<svg xmlns="http://www.w3.org/2000/svg" xmlns:xlink="http://www.w3.org/1999/xlink" id="Layer_1" x="0px" y="0px" viewBox="0 0 512 512" style="enable-background:new 0 0 512 512;" xml:space="preserve">
<style type="text/css">
	.st0{fill:#0174D9;}
</style>
<g id="Virus_Cleaning">
	<g id="Outline">
		<path class="st0" d="M288,80v32c0,25.5,16.4,44.7,40,48.3v7.7c0,10.6,16,10.6,16,0v-13.2c17.9-35.8,3.8-90.8-36.7-90.8h-9    c16.4-49.1,65.3-57.9,97.9-38.6c9.1,5.4,17.3-8.4,8.1-13.8c-52-30.8-114.7,1.3-124.3,59c-0.4,2.3,0.3,4.7,1.8,6.5    C283.3,79,285.6,80,288,80z M304,80h3.3c26.4,0,34.3,39.5,23.8,64.6c-16.2-2.1-27.1-14.9-27.1-32.6V80z"></path>
		<path class="st0" d="M64,288c0-10.6-16-10.6-16,0S64,298.6,64,288z"></path>
		<path class="st0" d="M24,280c10.6,0,10.6-16,0-16S13.4,280,24,280z"></path>
		<path class="st0" d="M56,344c-10.6,0-10.6,16,0,16C66.6,360,66.6,344,56,344z"></path>
		<path class="st0" d="M16,368c0,10.6,16,10.6,16,0S16,357.4,16,368z"></path>
		<path class="st0" d="M64,320c0,10.6,16,10.6,16,0S64,309.4,64,320z"></path>
		<path class="st0" d="M0,320c0,10.6,16,10.6,16,0S0,309.4,0,320z"></path>
		<path class="st0" d="M40,312c-10.6,0-10.6,16,0,16C50.6,328,50.6,312,40,312z"></path>
		<path class="st0" d="M504,160h-80c-8.3,0-8,8.9-8,9c-4.9-7.1-10.5-13.7-16.7-19.7c35.2-15.6,50.7-46,44.6-81    c-1.8-10.4-17.6-7.6-15.8,2.8c9.6,54.8-44.7,65.7-49.1,69c-3.5,2.7-4.2,7.7-1.6,11.2c0.2,0.3,0.5,0.6,0.8,0.9    c2.4,2.3,37.8,28.7,37.8,63.8c0.2,107.3-0.5,104.5,0.6,110.3c-1.5,3.5,1.8,29.9-22,51.9c-4.4,4-1.9,8.6-2.6,29.9    c0,10.6,16,10.6,16,0v-20.6c11.1-11.2,18.8-25.4,22.1-40.9c5.5,3.7,12,5.6,18.5,5.5c2.8,52.8-23.1,88-80.7,88    c-66.3,0-98-86.7-103.4-103.4c58.9-29.6,58-28,60.1-30.8l60.9-82.1c6.3-8.5-6.5-18-12.9-9.5l-59.7,80.6l-35.4,17.6L266,283.4    c33.6-18.1,33-16.8,34.8-19.2l50.4-65.8c6.4-8.4-6.3-18.1-12.7-9.7L289.2,253c-40.3,23.1-55.3,24.5-66.4,43H104c-4.4,0-8,3.6-8,8    v32c0,4.4,3.6,8,8,8h118.2c7.8,13.9,12.5,7.1,27.9-0.2C268.9,399.4,309.2,456,368,456c67.3,0,99.8-43.5,96.7-104H480    c17.7,0,32-14.3,32-32V168C512,163.6,508.4,160,504,160z M216.6,328H112v-16h104.8C215.8,317.3,215.8,322.7,216.6,328z     M234.8,333.5c-2.8-6.3-3.5-13.4-1.9-20.2c3.9-16.6,18-21.7,18.9-22.4l11.4,28.5L234.8,333.5z M496,320c0,8.8-7.2,16-16,16h-32    c-8.8,0-16-7.2-16-16v-80h64V320z M496,224h-64v-48h16v16c0,10.6,16,10.6,16,0v-16h32V224z"></path>
		<path class="st0" d="M104,144c10.6,0,10.6-16,0-16C93.4,128,93.4,144,104,144z"></path>
		<path class="st0" d="M0,96c0,10.6,16,10.6,16,0C16,85.4,0,85.4,0,96z"></path>
		<path class="st0" d="M136,88c-10.6,0-10.6,16,0,16S146.6,88,136,88z"></path>
		<path class="st0" d="M64,64c0,10.6,16,10.6,16,0C80,53.4,64,53.4,64,64z"></path>
		<path class="st0" d="M112,112c4.4,0,8-3.6,8-8c0-2.1-0.8-4.1-2.3-5.6L105.4,86c2.8-4.3,4.8-9,5.8-14H136c10.6,0,10.6-16,0-16    h-24.8c-1-5-3-9.8-5.8-14l20.3-20.3c7.5-7.5-3.8-18.8-11.3-11.3L94,30.6c-4.3-2.8-9-4.8-14-5.8V8C80-2.6,64-2.6,64,8v16.8    c-4.7,1-9.3,2.8-13.3,5.4l-20.3-27C24-5.3,11.3,4.3,17.6,12.8L39,41.4c-3,4.4-5.2,9.4-6.2,14.6H8C-2.6,56-2.6,72,8,72h24.8    c1.4,6.9,4.6,13.3,9.3,18.6l-15.8,15.8c-7.5,7.5,3.9,18.7,11.3,11.3l17.4-17.4c2.8,1.3,5.8,2.3,8.9,3V136c0,10.6,16,10.6,16,0    v-32.8c5-1,9.8-3,14-5.8C105.4,107.8,106.5,112,112,112z M72,88c-13.3,0-24-10.7-24-24s10.7-24,24-24s24,10.7,24,24    C96,77.2,85.2,88,72,88z"></path>
		<path class="st0" d="M216,112c10.6,0,10.6-16,0-16C205.4,96,205.4,112,216,112z"></path>
		<path class="st0" d="M128,232c10.6,0,10.6-16,0-16C117.4,216,117.4,232,128,232z"></path>
		<path class="st0" d="M256,232c10.6,0,10.6-16,0-16S245.4,232,256,232z"></path>
		<path class="st0" d="M200,192c0-10.6-16-10.6-16,0C184,202.6,200,202.6,200,192z"></path>
		<path class="st0" d="M432,40c0-10.6-16-10.6-16,0C416,50.6,432,50.6,432,40z"></path>
		<path class="st0" d="M137.6,140.8l21.4,28.6c-3,4.4-5.2,9.4-6.2,14.6H128c-10.6,0-10.6,16,0,16h24.8c1.4,6.9,4.6,13.3,9.3,18.6    l-15.8,15.8c-3.1,3.1-3.1,8.2,0,11.3c1.5,1.5,3.5,2.3,5.6,2.3c5.7,0,6.9-4.6,23.1-19.8c2.8,1.3,5.8,2.3,8.9,3V264    c0,10.6,16,10.6,16,0v-32.8c5-1,9.8-3,14-5.8c11.3,10.4,12.5,14.6,18,14.6c4.4,0,8-3.6,8-8c0-2.1-0.8-4.1-2.3-5.6L225.4,214    c2.8-4.3,4.8-9,5.8-14H256c10.6,0,10.6-16,0-16h-24.8c-1-5-3-9.8-5.8-14l20.3-20.3c7.5-7.5-3.8-18.8-11.3-11.3L214,158.6    c-4.3-2.8-9-4.8-14-5.8V136c0-10.6-16-10.6-16,0v16.8c-4.7,1-9.3,2.8-13.4,5.4l-20.2-27c-2.7-3.5-7.7-4.3-11.2-1.6    C135.7,132.3,134.9,137.3,137.6,140.8L137.6,140.8z M192,168c13.3,0,24,10.7,24,24s-10.7,24-24,24s-24-10.7-24-24    C168,178.8,178.8,168,192,168z"></path>
		<path class="st0" d="M328,320v80c0,10.6,16,10.6,16,0v-80C344,309.4,328,309.4,328,320z"></path>
		<path class="st0" d="M328,472v32c0,10.6,16,10.6,16,0v-32C344,461.4,328,461.4,328,472z"></path>
		<path class="st0" d="M392,472v32c0,10.6,16,10.6,16,0v-32C408,461.4,392,461.4,392,472z"></path>
	</g>
</g>
</svg>