<svg xmlns="http://www.w3.org/2000/svg" xmlns:xlink="http://www.w3.org/1999/xlink" id="Layer_1" x="0px" y="0px" viewBox="0 0 273.6 85.1" style="enable-background:new 0 0 273.6 85.1;" xml:space="preserve">
<style type="text/css">
	.st0{fill:#FFFFFF;}
</style>
<g>
	<path id="path3713" class="st0" d="M240.6,66.4h10.7V44.3h5.2c3.2,0,5.1,1.1,5.1,4.6v17.5h10.7V44.5c0-5-6.2-6.8-11-6.8h-20.6V66.4   z"></path>
	<path id="path3715" class="st0" d="M54.3,66.2V44.3h4.3c3.4,0,5.3,0.4,6,3.4l0.2,18.5h10.1h0.4c0-6.3,0-12.6,0-18.9   c0-4.1,0.2-5.1-2-7.2c-1-1-5-2.1-7-2.1H43.8v28.2L54.3,66.2z"></path>
	<path id="path3717" class="st0" d="M121.5,66.2h22.8v-28h-10.3l-0.2,21.7c-0.9,0.6-5.4,0.2-6.5,0c-1.9-0.4-3.8-1.1-3.8-3.5V38   h-10.7v22.3C112.9,64.5,117.7,65.9,121.5,66.2z"></path>
	<path id="path3719" class="st0" d="M90.1,60c-0.5,0.3-2.4,0.5-2.4-0.4V49.1H77.1v17.1h13.3c8.7,0,20.8-4.8,20.8-13.1v-1.6   c0-4.5-4.3-8.4-7.2-10c-2.7-1.6-9.5-3.5-13.6-3.5H77.1v6.4h9c5.6,0,14,1.5,14,6.8v1.4C100.2,57.1,94.5,60,90.1,60L90.1,60z"></path>
	<path id="path3721" class="st0" d="M0.9,33.4l0.2,0.2c0,0,0.1-0.2,0.1-0.1c0,0.1,0.1-0.2,0.2-0.2C1.7,33,1.5,33.2,1.7,33   c0.2-0.2,0.4-0.3,0.6-0.5c0.6-0.4,0.9-0.6,1.5-1c1-0.8,1.9-1.4,3-2c2-1.2,4.1-2.5,6.2-3.8c3.8-2.2,9.2-4.5,13.5-6.1   c5-1.8,9.3-3.3,14.6-5c5.2-1.6,10-2.6,15.5-4C62,9.3,67.3,8.6,72.9,7.4C78.4,6.3,84.3,6.1,90,5.1c5.5-0.9,11.8-1.1,17.8-1.5   c6.1-0.5,12.2-0.8,18.7-0.8h14.2c7.2,0,14.6,0.3,21.5,0.8c3.3,0.2,6.9,0.8,10.1,1c3.5,0.3,7,0.5,10.2,1.1c3.2,0.6,6.6,1,9.8,1.3   c1.5,0.2,3.3,0.8,4.7,1c1.7,0.2,3.4,0.3,4.9,0.7c3.5,1,16.5,3,18.3,4.3c1.4,0,12.5,3.3,14,4c2.2,0.9,4.4,1.6,6.6,2.5   c1.7,0.7,5.1,2.3,6.5,2.7c2.9,0.8,9.3,4.5,12.1,6.1c1.9,1.1,9.4,6.6,10.4,8.1l0.2-0.2c0,0-0.1-0.1-0.1-0.1c0,0.1-0.2-0.1-0.2-0.2   c-0.1-0.1-0.2-0.2-0.3-0.3c-0.3-0.3-0.4-0.4-0.7-0.7c-0.5-0.5-0.8-0.9-1.3-1.4c-0.7-0.8-2-1.9-2.8-2.6c-2.1-1.7-4-2.9-6.3-4.5   c-2.2-1.4-4.3-2.6-6.6-3.9c-2.4-1.4-4.7-2.2-7.2-3.5c-3.8-1.9-11-4.6-15.3-5.8c-2.6-0.8-5.5-1.9-8.2-2.5c-2.9-0.6-5.8-1.3-8.5-2.1   c-10.5-2.7-24-5.3-35.9-6.2c-2.8-0.2-6.9-1-9.4-1c-1.8,0-8-0.3-9.9-0.6C152.5-0.1,143,0,137.2,0h-4.9c-6.7,0-13.4,0.6-19.7,0.6   c-2,0-7.5,0.3-9.5,0.6c-2.9,0.5-6.6,0.4-9.4,0.9c-6.1,1-12.3,1.4-18.2,2.4c-2.9,0.5-5.7,1-8.7,1.5c-2.4,0.5-6.2,1.1-8.6,1.8   c-2.7,0.8-5.6,1.3-8.2,2c-2.8,0.7-5.2,1.5-8,2.3c-2,0.5-5.7,1.7-7.7,2.6c-2.4,1-5.1,1.8-7.6,2.8c-3.8,1.6-10.9,4.8-13.9,6.9   c-1,0.7-2.3,1.3-3.2,2c-0.7,0.5-2.3,1.8-3,2.2C4.8,29.6,2.7,32.2,0.9,33.4L0.9,33.4z"></path>
	<path id="path3723" class="st0" d="M224.8,59.4l-10.1,0l4.2-10.5l-10,0.1l-7.2,17.4l37,0L225.1,38l-11,0.1L224.8,59.4z"></path>
	<path id="path3725" class="st0" d="M148.5,40c0,4.2,4,6.7,6.2,8.9c1.3,1.4,7.1,6.1,7.1,8v0.8c0,1.2-1.6,2.4-2.6,2.4h-12.9v6.4h13.5   c6.2,0,9.5-1.4,12-5.4c0-4.2,0.5-3.9-1.2-7.3c-1-2-2.7-3.3-4.1-4.8c-1.3-1.4-8.2-8-8.2-9.6V38h-9.7L148.5,40z"></path>
	<path id="path3727" class="st0" d="M25.5,55.1L23,49.5l-0.2-0.4l-12.2-0.2L10.5,38H0.2v28.2h10.3V55.1L25.5,55.1z"></path>
	<path id="path3729" class="st0" d="M173.2,50.7l0.2,11.5c1.2,0.9,1.2,2,3.4,2.9c1.4,0.6,3.5,1.1,5.4,1.1H194V60l-5.8-0.2   c-2.8,0-3.2-0.6-4.1-2.6l-0.2-0.6l-0.2-7.6h-10.3L173.2,50.7z"></path>
	<path id="path3731" class="st0" d="M22.8,48.9v0.2l0.2,0.4l2.4,5.6l0.2,0.2c2.1,4.2,4.6,7.8,7.7,11.1c3.1,3.3,5.7,6.9,9.3,9.6   l0.2-0.2c0.1-0.1-1-1.1-1.1-1.2c-0.4-0.4-0.7-0.9-1.1-1.5c-0.7-1-1.4-1.8-2.1-2.8c-1.5-2.2-2.7-3.4-4-5.9c-1.2-2.3-2.2-4-3.2-6.5   c-0.5-1.3-2.2-6.2-2.2-7.8v-3.8c0-4.8,6-5,10.7-5c-0.8-1.2-6.8-3.4-9.2-3.4c-3.7,0-8.6,1.9-8.6,5.6v1.6   C22.1,46.4,22.6,47.8,22.8,48.9L22.8,48.9z"></path>
	<path id="path3733" class="st0" d="M173.4,44.1h25.3V38h-25.3V44.1z"></path>
	<path id="path3745" class="st0" d="M29,32v0.6c0,1.5,1.3,3,2.6,3H32c1,0,2.4-1.4,2.4-2.2V32c0-1.5-1.5-2.4-3-2.4   C30.8,29.6,29,31.2,29,32z"></path>
	<path id="path3757" class="st0" d="M25.7,55.3l-0.2-0.2h-15v11.1H0.2V38h10.3l0.2,10.9l12.2,0.2l0.2,0.4l-0.2-0.4v-0.2H10.7   L10.5,38L0,37.8v28.6h10.7V55.3L25.7,55.3z"></path>
	<path id="path3761" class="st0" d="M173.4,38h25.3v6.2h-25.3V38z M173.2,44.3h25.7v-6.6h-25.7V44.3z"></path>
	<path id="path3765" class="st0" d="M133.9,59.8l0.2-21.7h10.3v28h-22.8l23,0.2V38h-10.7v21.5V59.8z"></path>
	<path id="path3767" class="st0" d="M90.4,66.2H77.1V49.1h10.5v10.5c0,0.9,1.9,0.7,2.4,0.4h-2.2V49.5c0-0.5-0.1-0.6-0.6-0.6H77v17.5   L90.4,66.2z"></path>
	<path id="path3769" class="st0" d="M54.3,66.2H43.8V38h22.5l-22.7-0.2v28.6L54.3,66.2z"></path>
	<path id="path3775" class="st0" d="M173.2,50.7l0.2-1.6h10.3l0.2,7.6l0.2,0.6l-0.2-0.6v-7.8h-10.7V50.7z"></path>
	<path id="path3777" class="st0" d="M182.2,66.2l12,0.2v-6.6h-6L194,60v6.2H182.2z"></path>
	<path id="path3779" class="st0" d="M75.3,66.2h-0.4H64.8l-0.2-18.5v18.7L75.3,66.2z"></path>
	<g>
		<path class="st0" d="M101.5,82.8c0-0.4-0.1-0.6-0.4-0.9s-0.7-0.4-1.4-0.6c-1-0.2-1.7-0.6-2.2-1s-0.8-1-0.8-1.6    c0-0.7,0.3-1.3,0.9-1.7s1.3-0.7,2.2-0.7c0.9,0,1.7,0.3,2.3,0.8s0.8,1.1,0.8,1.8l0,0h-1.4c0-0.4-0.1-0.8-0.4-1.1s-0.7-0.4-1.3-0.4    c-0.5,0-0.9,0.1-1.2,0.3c-0.3,0.2-0.4,0.5-0.4,0.9c0,0.3,0.2,0.6,0.5,0.8s0.8,0.4,1.5,0.6c0.9,0.2,1.6,0.6,2.1,1s0.7,1,0.7,1.7    c0,0.7-0.3,1.3-0.9,1.7s-1.3,0.6-2.2,0.6c-0.9,0-1.7-0.2-2.3-0.7s-1-1.1-1-1.9l0,0h1.4c0,0.5,0.2,0.9,0.5,1.2    c0.4,0.3,0.8,0.4,1.4,0.4c0.5,0,0.9-0.1,1.2-0.3S101.5,83.1,101.5,82.8z"></path>
		<path class="st0" d="M106,85h-1.4v-8.5h1.4V85z"></path>
		<path class="st0" d="M109.7,76.4l2.5,6.6h0l2.5-6.6h1.8V85h-1.4v-2.9l0.1-3.7l0,0l-2.5,6.6h-1l-2.5-6.6l0,0l0.1,3.7V85h-1.4v-8.5    H109.7z"></path>
		<path class="st0" d="M119.8,81.7V85h-1.4v-8.5h3.3c0.9,0,1.7,0.2,2.2,0.7s0.8,1.1,0.8,1.9c0,0.8-0.3,1.4-0.8,1.9s-1.3,0.7-2.2,0.7    H119.8z M119.8,80.6h1.9c0.5,0,0.9-0.1,1.2-0.4s0.4-0.6,0.4-1.1s-0.1-0.8-0.4-1.1s-0.7-0.4-1.2-0.4h-1.9V80.6z"></path>
		<path class="st0" d="M127.6,83.8h3.9V85h-5.3v-8.5h1.4V83.8z"></path>
		<path class="st0" d="M133.8,80.6l2.1-4.1h1.6l-3,5.5v3h-1.4v-3.1l-2.9-5.5h1.6L133.8,80.6z"></path>
		<path class="st0" d="M146.1,82.8c0-0.4-0.1-0.6-0.4-0.9s-0.7-0.4-1.4-0.6c-1-0.2-1.7-0.6-2.2-1s-0.8-1-0.8-1.6    c0-0.7,0.3-1.3,0.9-1.7s1.3-0.7,2.2-0.7c0.9,0,1.7,0.3,2.3,0.8s0.8,1.1,0.8,1.8l0,0h-1.4c0-0.4-0.1-0.8-0.4-1.1s-0.7-0.4-1.3-0.4    c-0.5,0-0.9,0.1-1.2,0.3c-0.3,0.2-0.4,0.5-0.4,0.9c0,0.3,0.2,0.6,0.5,0.8s0.8,0.4,1.5,0.6c0.9,0.2,1.6,0.6,2.1,1s0.7,1,0.7,1.7    c0,0.7-0.3,1.3-0.9,1.7s-1.3,0.6-2.2,0.6c-0.9,0-1.7-0.2-2.3-0.7s-1-1.1-1-1.9l0,0h1.4c0,0.5,0.2,0.9,0.5,1.2s0.8,0.4,1.4,0.4    c0.5,0,0.9-0.1,1.2-0.3S146.1,83.1,146.1,82.8z"></path>
		<path class="st0" d="M150.5,81.7V85H149v-8.5h3.3c0.9,0,1.7,0.2,2.2,0.7s0.8,1.1,0.8,1.9c0,0.8-0.3,1.4-0.8,1.9s-1.3,0.7-2.2,0.7    H150.5z M150.5,80.6h1.9c0.5,0,0.9-0.1,1.2-0.4s0.4-0.6,0.4-1.1s-0.1-0.8-0.4-1.1s-0.7-0.4-1.2-0.4h-1.9V80.6z"></path>
		<path class="st0" d="M161.9,81.1h-3.7v2.7h4.3V85h-5.8v-8.5h5.7v1.1h-4.3V80h3.7V81.1z"></path>
		<path class="st0" d="M170,82.1L170,82.1c0,0.9-0.3,1.6-0.8,2.1s-1.4,0.8-2.3,0.8c-1,0-1.8-0.3-2.4-1s-0.9-1.5-0.9-2.6v-1.6    c0-1,0.3-1.9,0.9-2.6s1.4-1,2.4-1c1,0,1.8,0.3,2.4,0.8s0.9,1.2,0.8,2.1l0,0h-1.4c0-0.6-0.2-1-0.5-1.3s-0.8-0.5-1.4-0.5    c-0.6,0-1,0.2-1.4,0.7s-0.5,1-0.5,1.7v1.6c0,0.7,0.2,1.3,0.5,1.7s0.8,0.7,1.4,0.7c0.6,0,1-0.2,1.3-0.5c0.3-0.3,0.5-0.8,0.5-1.3    H170z"></path>
		<path class="st0" d="M172.9,85h-1.4v-8.5h1.4V85z"></path>
		<path class="st0" d="M179.4,83h-3.3l-0.7,2H174l3.1-8.5h1.3l3.1,8.5h-1.4L179.4,83z M176.5,81.8h2.5l-1.2-3.6h0L176.5,81.8z"></path>
		<path class="st0" d="M184,83.8h3.9V85h-5.3v-8.5h1.4V83.8z"></path>
		<path class="st0" d="M190.6,85h-1.4v-8.5h1.4V85z"></path>
		<path class="st0" d="M197.1,82.8c0-0.4-0.1-0.6-0.4-0.9s-0.7-0.4-1.4-0.6c-1-0.2-1.7-0.6-2.2-1s-0.8-1-0.8-1.6    c0-0.7,0.3-1.3,0.9-1.7s1.3-0.7,2.2-0.7c0.9,0,1.7,0.3,2.3,0.8s0.8,1.1,0.8,1.8l0,0h-1.4c0-0.4-0.1-0.8-0.4-1.1s-0.7-0.4-1.3-0.4    c-0.5,0-0.9,0.1-1.2,0.3c-0.3,0.2-0.4,0.5-0.4,0.9c0,0.3,0.2,0.6,0.5,0.8s0.8,0.4,1.5,0.6c0.9,0.2,1.6,0.6,2.1,1s0.7,1,0.7,1.7    c0,0.7-0.3,1.3-0.9,1.7s-1.3,0.6-2.2,0.6c-0.9,0-1.7-0.2-2.3-0.7s-1-1.1-1-1.9l0,0h1.4c0,0.5,0.2,0.9,0.5,1.2s0.8,0.4,1.4,0.4    c0.5,0,0.9-0.1,1.2-0.3S197.1,83.1,197.1,82.8z"></path>
		<path class="st0" d="M205.2,81.1h-3.7v2.7h4.3V85H200v-8.5h5.7v1.1h-4.3V80h3.7V81.1z"></path>
		<path class="st0" d="M207,85v-8.5h2.8c1.1,0,2,0.3,2.6,1s1,1.5,1,2.6v1.3c0,1.1-0.3,1.9-1,2.6s-1.6,1-2.6,1H207z M208.4,77.6v6.2    h1.3c0.7,0,1.3-0.2,1.7-0.7s0.6-1.1,0.6-1.8V80c0-0.7-0.2-1.3-0.6-1.8s-1-0.7-1.7-0.7H208.4z"></path>
		<path class="st0" d="M224.1,82.1L224.1,82.1c0,0.9-0.3,1.6-0.8,2.1s-1.4,0.8-2.3,0.8c-1,0-1.8-0.3-2.4-1s-0.9-1.5-0.9-2.6v-1.6    c0-1,0.3-1.9,0.9-2.6s1.4-1,2.4-1c1,0,1.8,0.3,2.4,0.8s0.9,1.2,0.8,2.1l0,0h-1.4c0-0.6-0.2-1-0.5-1.3s-0.8-0.5-1.4-0.5    c-0.6,0-1,0.2-1.4,0.7s-0.5,1-0.5,1.7v1.6c0,0.7,0.2,1.3,0.5,1.7s0.8,0.7,1.4,0.7c0.6,0,1-0.2,1.3-0.5s0.5-0.8,0.5-1.3H224.1z"></path>
		<path class="st0" d="M226.9,83.8h3.9V85h-5.3v-8.5h1.4V83.8z"></path>
		<path class="st0" d="M237.2,81.1h-3.7v2.7h4.3V85H232v-8.5h5.7v1.1h-4.3V80h3.7V81.1z"></path>
		<path class="st0" d="M243.6,83h-3.3l-0.7,2h-1.4l3.1-8.5h1.3l3.1,8.5h-1.4L243.6,83z M240.6,81.8h2.5l-1.2-3.6h0L240.6,81.8z"></path>
		<path class="st0" d="M253.3,85h-1.4l-3.8-6.2l0,0V85h-1.4v-8.5h1.4l3.8,6.2l0,0v-6.2h1.4V85z"></path>
		<path class="st0" d="M256.7,85h-1.4v-8.5h1.4V85z"></path>
		<path class="st0" d="M265.3,85h-1.4l-3.8-6.2l0,0V85h-1.4v-8.5h1.4l3.8,6.2l0,0v-6.2h1.4V85z"></path>
		<path class="st0" d="M273.6,83.8c-0.2,0.3-0.6,0.6-1.1,0.9s-1.2,0.4-2,0.4c-1,0-1.9-0.3-2.5-1s-1-1.5-1-2.5v-1.8    c0-1,0.3-1.9,0.9-2.5s1.4-1,2.4-1c1,0,1.8,0.2,2.3,0.7s0.8,1.1,0.9,1.9l0,0h-1.3c0-0.5-0.2-0.8-0.5-1.1s-0.7-0.4-1.3-0.4    c-0.6,0-1.1,0.2-1.4,0.7s-0.5,1-0.5,1.7v1.8c0,0.7,0.2,1.3,0.6,1.7s0.9,0.7,1.5,0.7c0.4,0,0.8-0.1,1.1-0.2    c0.3-0.1,0.5-0.2,0.6-0.4v-1.7h-1.7v-1.1h3.1V83.8z"></path>
	</g>
</g>
</svg>