<svg id="Layer_1" data-name="Layer 1" xmlns="http://www.w3.org/2000/svg" viewBox="0 0 273.56 85.09"><defs><style>.cls-1{fill:#076eb2;}.cls-2{fill:#d4d4d6;}.cls-3{fill:#b9d148;}.cls-4{fill:#5993c8;}.cls-5{fill:#84aad3;}.cls-6{fill:#78797b;}</style></defs><title>Artboard 1</title><path id="path3713" class="cls-1" d="M240.61,66.41h10.67V44.34h5.24c3.21,0,5.06,1.09,5.06,4.57v17.5h10.67V44.54c0-5-6.16-6.76-11.05-6.76H240.61Z"/><path id="path3715" class="cls-1" d="M54.3,66.21V44.34h4.31c3.39,0,5.33.39,6,3.38l.19,18.49H75.27V47.32c0-4.15.16-5.09-2-7.21-1-1-5-2.13-7-2.13H43.81V66.21Z"/><path id="path3717" class="cls-1" d="M121.52,66.21h22.84v-28H134.07l-.19,21.68c-.93.62-5.38.17-6.52,0-1.91-.36-3.78-1.07-3.78-3.54V38H112.91V60.24C112.91,64.46,117.68,65.87,121.52,66.21Z"/><path id="path3719" class="cls-1" d="M90.06,60c-.49.34-2.43.53-2.43-.39V49.11H77.14v17.1h13.3c8.71,0,20.78-4.75,20.78-13.12V51.5c0-4.46-4.33-8.38-7.2-10A35.45,35.45,0,0,0,90.44,38H77.14v6.36h9c5.6,0,14,1.49,14,6.76v1.39c0,4.64-5.64,7.55-10.11,7.55Z"/><path id="path3721" class="cls-2" d="M.94,33.4l.18.2s.06-.15.08-.12.11-.17.16-.22c.29-.29.12-.1.32-.26l.64-.51c.56-.44.92-.58,1.47-1a21.11,21.11,0,0,1,3-2c2-1.15,4.06-2.54,6.2-3.75a99.58,99.58,0,0,1,13.54-6.1c5-1.8,9.31-3.3,14.61-5s10-2.61,15.53-4C62,9.34,67.34,8.59,72.9,7.43S84.33,6.08,90,5.12c5.53-.92,11.8-1.07,17.83-1.54s12.23-.79,18.73-.79h14.23c7.23,0,14.59.27,21.53.79,3.3.25,6.88.76,10.11,1a94.63,94.63,0,0,1,10.22,1.08c3.16.59,6.65,1,9.8,1.33,1.51.17,3.32.81,4.71,1a32.83,32.83,0,0,1,4.93.73c3.52,1,16.46,3,18.27,4.26,1.44,0,12.54,3.34,14.05,4,2.17.9,4.4,1.58,6.63,2.51,1.72.72,5.09,2.26,6.47,2.66,2.92.85,9.32,4.48,12.06,6.09,1.88,1.12,9.42,6.59,10.44,8.06l.16-.23s-.1-.12-.11-.08-.17-.13-.22-.17l-.28-.3c-.27-.27-.39-.42-.65-.69l-1.31-1.4c-.75-.79-2-1.87-2.83-2.57a62.1,62.1,0,0,0-6.28-4.45c-2.22-1.45-4.35-2.55-6.63-3.9s-4.72-2.2-7.21-3.48a108.33,108.33,0,0,0-15.29-5.83c-2.58-.75-5.51-1.91-8.17-2.46-2.87-.6-5.79-1.35-8.55-2.06a222.11,222.11,0,0,0-35.9-6.22c-2.76-.22-6.89-1-9.36-1-1.84,0-8-.32-9.89-.63C152.53-.07,143,0,137.25,0h-4.87c-6.71,0-13.38.63-19.66.6a87,87,0,0,0-9.51.64c-2.88.48-6.56.43-9.44.91-6.11,1-12.29,1.4-18.17,2.38-2.88.48-5.7,1-8.68,1.51-2.45.45-6.19,1.15-8.58,1.84-2.71.78-5.56,1.32-8.2,2s-5.19,1.54-8,2.27a74.57,74.57,0,0,0-7.69,2.57c-2.43,1-5.1,1.76-7.63,2.83-3.77,1.61-10.92,4.76-13.93,6.88-1,.71-2.3,1.33-3.19,2s-2.35,1.79-3,2.16c-1.9,1-4,3.57-5.77,4.8Z"/><path id="path3723" class="cls-1" d="M224.76,59.41H214.65l4.24-10.49-10,.05-7.23,17.45,37,0L225.07,38l-11,.08Z"/><path id="path3725" class="cls-1" d="M148.48,40c0,4.2,4,6.68,6.22,8.91,1.35,1.36,7.08,6.11,7.08,8v.8c0,1.21-1.58,2.38-2.62,2.38H146.24v6.37h13.48c6.22,0,9.45-1.36,12-5.37,0-4.2.53-3.95-1.19-7.29-1-2-2.65-3.25-4.1-4.79s-8.19-8-8.19-9.59V38h-9.74Z"/><path id="path3727" class="cls-1" d="M25.46,55.07,23,49.51l-.19-.4-12.17-.2L10.49,38H.19V66.21h10.3V55.07Z"/><path id="path3729" class="cls-1" d="M173.2,50.7l.19,11.53c1.23.88,1.21,2,3.44,2.9a15.57,15.57,0,0,0,5.36,1.08H194V60l-5.8-.19c-2.83,0-3.23-.61-4.12-2.59l-.19-.6-.19-7.55H173.39Z"/><path id="path3731" class="cls-3" d="M22.84,48.91v.2l.19.4,2.43,5.56.19.2a45.35,45.35,0,0,0,7.73,11.09c3.08,3.27,5.72,6.94,9.34,9.62l.16-.23a11.86,11.86,0,0,0-1.08-1.24,14.07,14.07,0,0,1-1.06-1.46c-.72-1-1.35-1.76-2.06-2.78a46.09,46.09,0,0,1-4-5.89,72,72,0,0,1-3.23-6.52c-.53-1.32-2.24-6.19-2.24-7.76V46.33c0-4.8,6-5,10.67-5-.82-1.2-6.82-3.38-9.17-3.38-3.71,0-8.62,1.89-8.62,5.56v1.59a18.89,18.89,0,0,0,.75,3.78Z"/><path id="path3733" class="cls-1" d="M173.39,44.14h25.27V38H173.39Z"/><path id="path3745" class="cls-3" d="M29,32v.6a3,3,0,0,0,2.62,3H32a3,3,0,0,0,2.43-2.19V32c0-1.48-1.49-2.38-3-2.38C30.8,29.63,29,31.22,29,32Z"/><path id="path3757" class="cls-4" d="M25.65,55.27l-.19-.2h-15V66.21H.19V38h10.3l.18,10.93,12.17.2.19.4-.19-.4v-.2H10.67L10.49,38,0,37.78V66.41H10.67V55.27Z"/><path id="path3761" class="cls-5" d="M173.39,38h25.27v6.16H173.39Zm-.19,6.36h25.65V37.78H173.2Z"/><path id="path3765" class="cls-4" d="M133.88,59.85l.19-21.68h10.29v28H121.52l23,.2V38H133.88V59.85Z"/><path id="path3767" class="cls-5" d="M90.44,66.21H77.14V49.11H87.63V59.65c0,.92,1.94.73,2.43.39H87.82V49.51c0-.46-.13-.6-.56-.6H77v17.5Z"/><path id="path3769" class="cls-4" d="M54.3,66.21H43.81V38H66.28l-22.65-.2V66.41Z"/><path id="path3775" class="cls-4" d="M173.2,50.7l.19-1.59h10.29l.19,7.55.19.6-.19-.6V48.91H173.2Z"/><path id="path3777" class="cls-5" d="M182.19,66.21l12,.2V59.85h-6L194,60v6.17Z"/><path id="path3779" class="cls-5" d="M75.27,66.21H64.79L64.6,47.72V66.41Z"/><path class="cls-6" d="M101.53,82.77a1.12,1.12,0,0,0-.4-.87,3.65,3.65,0,0,0-1.4-.6,6,6,0,0,1-2.2-1,2,2,0,0,1-.77-1.62,2.08,2.08,0,0,1,.86-1.7,3.47,3.47,0,0,1,2.2-.66,3.27,3.27,0,0,1,2.25.75,2.28,2.28,0,0,1,.83,1.82v0h-1.37a1.38,1.38,0,0,0-.44-1.06,2.23,2.23,0,0,0-2.47-.07,1.07,1.07,0,0,0-.42.87,1,1,0,0,0,.45.81,4.8,4.8,0,0,0,1.5.61,4.91,4.91,0,0,1,2.1,1,2.15,2.15,0,0,1,.71,1.66,2,2,0,0,1-.85,1.69,3.69,3.69,0,0,1-2.24.63,3.94,3.94,0,0,1-2.35-.71,2.18,2.18,0,0,1-1-1.94l0,0h1.37a1.35,1.35,0,0,0,.54,1.17,2.39,2.39,0,0,0,1.4.38,2.11,2.11,0,0,0,1.23-.32A1,1,0,0,0,101.53,82.77Z"/><path class="cls-6" d="M106,85h-1.43V76.44H106Z"/><path class="cls-6" d="M109.75,76.44,112.2,83h0l2.46-6.56h1.84V85h-1.42V82.06l.14-3.69h0L112.69,85h-1l-2.52-6.59h0l.15,3.68V85H107.9V76.44Z"/><path class="cls-6" d="M119.84,81.74V85h-1.43V76.44h3.34a3.14,3.14,0,0,1,2.21.73A2.7,2.7,0,0,1,124,81a3.18,3.18,0,0,1-2.21.73Zm0-1.15h1.91a1.58,1.58,0,0,0,1.19-.42,1.52,1.52,0,0,0,.4-1.07,1.44,1.44,0,0,0-1.59-1.52h-1.91Z"/><path class="cls-6" d="M127.59,83.83h3.92V85h-5.34V76.44h1.42Z"/><path class="cls-6" d="M133.84,80.59l2.06-4.15h1.59l-3,5.54v3h-1.42V81.9l-2.91-5.46h1.59Z"/><path class="cls-6" d="M146.11,82.77a1.09,1.09,0,0,0-.4-.87,3.59,3.59,0,0,0-1.39-.6,5.86,5.86,0,0,1-2.2-1,2,2,0,0,1-.77-1.62,2.07,2.07,0,0,1,.85-1.7,3.49,3.49,0,0,1,2.2-.66,3.3,3.3,0,0,1,2.26.75,2.27,2.27,0,0,1,.82,1.82v0H146.1a1.35,1.35,0,0,0-.44-1.06,1.78,1.78,0,0,0-1.27-.41,1.84,1.84,0,0,0-1.2.34,1.07,1.07,0,0,0-.42.87,1,1,0,0,0,.45.81,5,5,0,0,0,1.51.61,4.86,4.86,0,0,1,2.09,1,2.11,2.11,0,0,1,.71,1.66,2,2,0,0,1-.85,1.69,3.67,3.67,0,0,1-2.24.63,3.91,3.91,0,0,1-2.34-.71,2.16,2.16,0,0,1-1-1.94v0h1.37a1.35,1.35,0,0,0,.54,1.17,2.41,2.41,0,0,0,1.4.38,2.07,2.07,0,0,0,1.23-.32A1,1,0,0,0,146.11,82.77Z"/><path class="cls-6" d="M150.46,81.74V85H149V76.44h3.34a3.14,3.14,0,0,1,2.21.73,2.7,2.7,0,0,1,0,3.84,3.18,3.18,0,0,1-2.21.73Zm0-1.15h1.91a1.57,1.57,0,0,0,1.19-.42,1.52,1.52,0,0,0,.4-1.07,1.44,1.44,0,0,0-1.59-1.52h-1.91Z"/><path class="cls-6" d="M161.94,81.13h-3.73v2.7h4.33V85h-5.75V76.44h5.71v1.14h-4.29V80h3.73Z"/><path class="cls-6" d="M170,82.14l0,0a2.7,2.7,0,0,1-.85,2.11,3.26,3.26,0,0,1-2.34.81,3.15,3.15,0,0,1-2.42-1,3.6,3.6,0,0,1-.94-2.57V79.9a3.68,3.68,0,0,1,.92-2.57,3.09,3.09,0,0,1,2.4-1,3.39,3.39,0,0,1,2.38.79,2.66,2.66,0,0,1,.85,2.13v0h-1.38a1.64,1.64,0,0,0-1.84-1.82,1.63,1.63,0,0,0-1.38.69,2.84,2.84,0,0,0-.52,1.73v1.63a2.8,2.8,0,0,0,.53,1.75,1.68,1.68,0,0,0,1.41.69,1.83,1.83,0,0,0,1.35-.47,1.87,1.87,0,0,0,.45-1.34Z"/><path class="cls-6" d="M172.88,85h-1.43V76.44h1.43Z"/><path class="cls-6" d="M179.44,83H176.1l-.68,2H174l3.14-8.53h1.35l3.1,8.53h-1.45Zm-2.93-1.19H179l-1.24-3.65h0Z"/><path class="cls-6" d="M184,83.83h3.92V85h-5.34V76.44H184Z"/><path class="cls-6" d="M190.55,85h-1.42V76.44h1.42Z"/><path class="cls-6" d="M197.12,82.77a1.11,1.11,0,0,0-.39-.87,3.73,3.73,0,0,0-1.4-.6,5.94,5.94,0,0,1-2.2-1,2,2,0,0,1-.77-1.62,2.07,2.07,0,0,1,.85-1.7,3.49,3.49,0,0,1,2.2-.66,3.3,3.3,0,0,1,2.26.75,2.27,2.27,0,0,1,.82,1.82v0h-1.36a1.35,1.35,0,0,0-.45-1.06,1.78,1.78,0,0,0-1.27-.41,1.84,1.84,0,0,0-1.2.34,1.07,1.07,0,0,0-.42.87.94.94,0,0,0,.46.81,4.8,4.8,0,0,0,1.5.61,4.86,4.86,0,0,1,2.09,1,2.12,2.12,0,0,1,.72,1.66,2,2,0,0,1-.86,1.69,3.65,3.65,0,0,1-2.24.63,3.91,3.91,0,0,1-2.34-.71,2.18,2.18,0,0,1-1-1.94v0h1.37a1.35,1.35,0,0,0,.54,1.17,2.41,2.41,0,0,0,1.4.38,2.07,2.07,0,0,0,1.23-.32A1,1,0,0,0,197.12,82.77Z"/><path class="cls-6" d="M205.2,81.13h-3.73v2.7h4.33V85h-5.75V76.44h5.71v1.14h-4.29V80h3.73Z"/><path class="cls-6" d="M207,85V76.44h2.77a3.6,3.6,0,0,1,2.64,1,3.57,3.57,0,0,1,1,2.61v1.29a3.53,3.53,0,0,1-1,2.61,3.6,3.6,0,0,1-2.64,1Zm1.42-7.39v6.25h1.31a2.09,2.09,0,0,0,1.66-.69,2.59,2.59,0,0,0,.61-1.79v-1.3a2.57,2.57,0,0,0-.61-1.78,2.09,2.09,0,0,0-1.66-.69Z"/><path class="cls-6" d="M224.1,82.14v0a2.66,2.66,0,0,1-.84,2.11,3.3,3.3,0,0,1-2.34.81,3.15,3.15,0,0,1-2.43-1,3.64,3.64,0,0,1-.93-2.57V79.9a3.63,3.63,0,0,1,.92-2.57,3.06,3.06,0,0,1,2.4-1,3.39,3.39,0,0,1,2.38.79,2.7,2.7,0,0,1,.85,2.13l0,0h-1.37a1.85,1.85,0,0,0-.47-1.34,1.83,1.83,0,0,0-1.37-.48,1.64,1.64,0,0,0-1.39.69,2.84,2.84,0,0,0-.51,1.73v1.63a2.8,2.8,0,0,0,.52,1.75,1.7,1.7,0,0,0,1.42.69,1.79,1.79,0,0,0,1.34-.47,1.83,1.83,0,0,0,.46-1.34Z"/><path class="cls-6" d="M226.93,83.83h3.92V85H225.5V76.44h1.43Z"/><path class="cls-6" d="M237.15,81.13h-3.73v2.7h4.33V85H232V76.44h5.71v1.14h-4.29V80h3.73Z"/><path class="cls-6" d="M243.58,83h-3.34l-.68,2h-1.45l3.14-8.53h1.35L245.7,85h-1.45Zm-2.93-1.19h2.52l-1.24-3.65h0Z"/><path class="cls-6" d="M253.35,85h-1.42l-3.78-6.23h0V85h-1.42V76.44h1.42l3.79,6.22h0V76.44h1.42Z"/><path class="cls-6" d="M256.72,85H255.3V76.44h1.42Z"/><path class="cls-6" d="M265.33,85h-1.42l-3.78-6.23h0V85h-1.42V76.44h1.42l3.79,6.22h0V76.44h1.42Z"/><path class="cls-6" d="M273.56,83.82a3.1,3.1,0,0,1-1.12.88,4.43,4.43,0,0,1-2,.39,3.47,3.47,0,0,1-2.54-1,3.4,3.4,0,0,1-1-2.53V79.81a3.51,3.51,0,0,1,.94-2.52,3.23,3.23,0,0,1,2.43-1,3.35,3.35,0,0,1,2.34.74,2.52,2.52,0,0,1,.86,1.93l0,0h-1.34a1.65,1.65,0,0,0-.5-1.13,1.86,1.86,0,0,0-1.32-.43,1.76,1.76,0,0,0-1.43.66,2.57,2.57,0,0,0-.54,1.68v1.79a2.49,2.49,0,0,0,.59,1.7,2,2,0,0,0,1.53.66,3.26,3.26,0,0,0,1.08-.15,1.51,1.51,0,0,0,.6-.37V81.7h-1.69V80.63h3.12Z"/></svg>