<svg xmlns="http://www.w3.org/2000/svg" xmlns:xlink="http://www.w3.org/1999/xlink" x="0px" y="0px" viewBox="0 0 54 54" style="enable-background:new 0 0 54 54;" xml:space="preserve">
<style type="text/css">
	.st0{opacity:0;}
	.st1{fill:#FFFFFF;}
	.st2{fill:#0074D9;}
	.st3{fill:#ACCDFF;}
	.st4{fill:#0074D9;stroke:#0074D9;stroke-width:0.25;stroke-miterlimit:10;}
</style>
<g id="base">
	<g class="st0">
		<path class="st1" d="M53,1v52H1V1H53 M54,0H0v54h54V0L54,0z"></path>
	</g>
</g>
<g id="Layer_1">
	<g>
		<path class="st4" d="M34,25.8H20c-1.5,0-2.8-1.3-2.8-2.8c0-0.1,0-0.2,0-0.2l1.2-15.2C18.6,6.1,19.8,5,21.3,5h11.4    c1.5,0,2.7,1.1,2.8,2.6l1.2,15.2c0.1,1.5-1,2.9-2.6,3C34.1,25.7,34,25.8,34,25.8L34,25.8z M21.3,6.3c-0.8,0-1.5,0.6-1.5,1.4    l-1.2,15.2c-0.1,0.8,0.6,1.6,1.4,1.7c0,0,0.1,0,0.1,0H34c0.8,0,1.5-0.7,1.5-1.5c0,0,0-0.1,0-0.1L34.3,7.7    c-0.1-0.8-0.7-1.4-1.5-1.4H21.3z"></path>
		<path class="st4" d="M36.6,35.2H17.4c-0.9,0-1.7-0.8-1.7-1.7v-4.1c0-0.9,0.8-1.7,1.7-1.7h19.2c0.9,0,1.7,0.8,1.7,1.7v4.1    C38.3,34.4,37.5,35.2,36.6,35.2z M17.4,28.9c-0.3,0-0.5,0.2-0.5,0.5v4.1c0,0.3,0.2,0.5,0.5,0.5h19.2c0.3,0,0.5-0.2,0.5-0.5v-4.1    c0-0.3-0.2-0.5-0.5-0.5H17.4z"></path>
		<path class="st4" d="M38.5,32.1h-0.8v-1.3h0.8c1.1,0,2-0.9,2-2v-2.3h1.3v2.3C41.7,30.6,40.3,32.1,38.5,32.1z"></path>
		<path class="st4" d="M41.1,27.1c-1.5,0-2.7-1.2-2.7-2.7c0-1.5,1.2-2.7,2.7-2.7c1.5,0,2.7,1.2,2.7,2.7c0,0,0,0,0,0    C43.8,25.9,42.6,27.1,41.1,27.1z M41.1,23.1c-0.8,0-1.4,0.6-1.4,1.4c0,0.8,0.6,1.4,1.4,1.4c0.8,0,1.4-0.6,1.4-1.4c0,0,0,0,0,0    C42.5,23.7,41.9,23.1,41.1,23.1z"></path>
		<path class="st4" d="M16.3,32.1h-0.8c-1.8,0-3.2-1.4-3.2-3.2v-2.3h1.3v2.3c0,1.1,0.9,2,2,2h0.8V32.1z"></path>
		<path class="st4" d="M12.9,27.1c-1.5,0-2.7-1.2-2.7-2.7c0-1.5,1.2-2.7,2.7-2.7c1.5,0,2.7,1.2,2.7,2.7c0,0,0,0,0,0    C15.6,25.9,14.4,27.1,12.9,27.1C12.9,27.1,12.9,27.1,12.9,27.1z M12.9,23.1c-0.8,0-1.4,0.6-1.4,1.4c0,0.8,0.6,1.4,1.4,1.4    c0.8,0,1.4-0.6,1.4-1.4C14.3,23.7,13.7,23.1,12.9,23.1C12.9,23.1,12.9,23.1,12.9,23.1z"></path>
		<path class="st4" d="M28.9,25.1h1.3v3.1h-1.3V25.1z"></path>
		<path class="st4" d="M23.9,25.1h1.3v3.1h-1.3V25.1z"></path>
		<path class="st4" d="M27.6,38.3h-1.3c-1.4,0-2.5-1.1-2.5-2.5v-1.9h6.3v1.9C30.1,37.2,29,38.3,27.6,38.3z M25.1,35.2v0.6    c0,0.7,0.6,1.3,1.3,1.3h1.3c0.7,0,1.3-0.6,1.3-1.3v-0.6H25.1z"></path>
		<path class="st4" d="M37,45.4h-1.3v-0.6c0-1.1-0.9-2-2-2H20.4c-1.1,0-2,0.9-2,2v0.6h-1.3v-0.6c0-1.8,1.5-3.3,3.3-3.3h13.2    c1.8,0,3.3,1.5,3.3,3.3L37,45.4z"></path>
		<path class="st4" d="M36.3,49c-1.2,0-2.1-1-2.1-2.1c0-1.2,1-2.1,2.1-2.1c1.2,0,2.1,1,2.1,2.1l0,0C38.5,48,37.5,49,36.3,49z     M36.3,46c-0.5,0-0.9,0.4-0.9,0.9s0.4,0.9,0.9,0.9c0.5,0,0.9-0.4,0.9-0.9l0,0C37.2,46.4,36.8,46,36.3,46z"></path>
		<path class="st4" d="M27.1,49c-1.2,0-2.1-1-2.1-2.1c0-1.2,1-2.1,2.1-2.1c1.2,0,2.1,1,2.1,2.1C29.2,48,28.2,49,27.1,49z M27.1,46    c-0.5,0-0.9,0.4-0.9,0.9c0,0.5,0.4,0.9,0.9,0.9c0.5,0,0.9-0.4,0.9-0.9C27.9,46.4,27.5,46,27.1,46z"></path>
		<path class="st4" d="M17.8,49c-1.2,0-2.1-1-2.1-2.1c0-1.2,1-2.1,2.1-2.1c1.2,0,2.1,1,2.1,2.1l0,0C19.9,48,19,49,17.8,49z M17.8,46    c-0.5,0-0.9,0.4-0.9,0.9c0,0.5,0.4,0.9,0.9,0.9c0.5,0,0.9-0.4,0.9-0.9l0,0C18.6,46.4,18.3,46,17.8,46z"></path>
		<path class="st4" d="M26.4,37.7h1.3v7.7h-1.3V37.7z"></path>
	</g>
</g>
</svg>