<svg xmlns="http://www.w3.org/2000/svg" xmlns:xlink="http://www.w3.org/1999/xlink" x="0px" y="0px" viewBox="0 0 54 54" style="enable-background:new 0 0 54 54;" xml:space="preserve">
<style type="text/css">
	.st0{opacity:0;}
	.st1{fill:#FFFFFF;}
	.st2{fill:#0074D9;}
	.st3{fill:#ACCDFF;}
</style>
<g id="base">
	<g class="st0">
		<path class="st1" d="M53,1v52H1V1H53 M54,0H0v54h54V0L54,0z"></path>
	</g>
</g>
<g id="Layer_1">
	<g>
		<path class="st2" d="M31.5,42.8H11.4c-0.4,0-0.8,0.3-0.8,0.8c0,0.4,0.3,0.8,0.8,0.8h20.1c0.4,0,0.8-0.3,0.8-0.8    C32.3,43.2,31.9,42.8,31.5,42.8z"></path>
		<path class="st2" d="M40,44.4c0.4,0,0.8-0.3,0.8-0.8c0-0.4-0.3-0.8-0.8-0.8h-3.1c-0.4,0-0.8,0.3-0.8,0.8c0,0.4,0.3,0.8,0.8,0.8H40    z"></path>
		<path class="st2" d="M28.9,47.5H6c-0.4,0-0.8,0.3-0.8,0.8S5.6,49,6,49h22.9c0.4,0,0.8-0.3,0.8-0.8C29.7,47.8,29.4,47.5,28.9,47.5    L28.9,47.5z"></path>
		<path class="st2" d="M27.6,47.5h-3.9c-0.4,0-0.8,0.3-0.8,0.8s0.3,0.8,0.8,0.8h3.9c0.4,0,0.8-0.3,0.8-0.8    C28.4,47.8,28.1,47.5,27.6,47.5L27.6,47.5z"></path>
		<path class="st2" d="M46.9,47.5H33c-0.4,0-0.8,0.3-0.8,0.8S32.6,49,33,49h13.9c0.4,0,0.8-0.3,0.8-0.8    C47.7,47.8,47.4,47.5,46.9,47.5L46.9,47.5z"></path>
		<path class="st2" d="M5.4,14.3h2.3v2.3c0,0.4,0.3,0.8,0.8,0.8h3.9c0.4,0,0.8-0.3,0.8-0.8v-2.3h2.3c0.4,0,0.8-0.3,0.8-0.8V9.6    c0-0.4-0.3-0.8-0.8-0.8h-2.3V6.5c0-0.4-0.3-0.8-0.8-0.8H8.5C8,5.8,7.7,6.1,7.7,6.5v2.3H5.4c-0.4,0-0.8,0.3-0.8,0.8v3.9    C4.6,13.9,4.9,14.3,5.4,14.3z M6.1,10.4h2.3c0.4,0,0.8-0.3,0.8-0.8V7.3h2.3v2.3c0,0.4,0.3,0.8,0.8,0.8h2.3v2.3h-2.3    c-0.4,0-0.8,0.3-0.8,0.8v2.3H9.2v-2.3c0-0.4-0.3-0.8-0.8-0.8H6.1L6.1,10.4z"></path>
		<path class="st2" d="M44.8,27.1c-0.5,0-0.8,0.4-0.8,0.8c0,0.5,0.4,0.8,0.8,0.8c0.5,0,0.8-0.4,0.8-0.8    C45.6,27.5,45.2,27.1,44.8,27.1z"></path>
		<path class="st2" d="M33.2,8.1c0.4,0,0.8-0.3,0.8-0.8V5.8c0-0.4-0.3-0.8-0.8-0.8s-0.8,0.3-0.8,0.8v1.5C32.4,7.7,32.7,8.1,33.2,8.1    z"></path>
		<path class="st2" d="M33.2,9.6c-0.4,0-0.8,0.3-0.8,0.8v1.5c0,0.4,0.3,0.8,0.8,0.8s0.8-0.3,0.8-0.8v-1.5C33.9,10,33.6,9.6,33.2,9.6    z"></path>
		<path class="st2" d="M30.1,9.6h1.5c0.4,0,0.8-0.3,0.8-0.8s-0.3-0.8-0.8-0.8h-1.5c-0.4,0-0.8,0.3-0.8,0.8S29.7,9.6,30.1,9.6z"></path>
		<path class="st2" d="M34.7,9.6h1.5c0.4,0,0.8-0.3,0.8-0.8s-0.3-0.8-0.8-0.8h-1.5c-0.4,0-0.8,0.3-0.8,0.8S34.3,9.6,34.7,9.6z"></path>
		<path class="st2" d="M50.1,17.1l-6.9-7.8c-0.2-0.2-0.4-0.3-0.7-0.3c-0.3,0-0.5,0.2-0.6,0.4l-5.3,10l-10.6-1.6    c-3.5-0.5-7,0.3-9.9,2.3L7.6,26c-0.7,0.5-1.1,1.2-1.2,2.1c-0.1,0.6,0.1,1.3,0.4,1.8l-0.8,0.6c-1.5,1.2-2.4,3-2.4,5V39    c0,0.4,0.3,0.8,0.8,0.8h38.6c0.3,0,0.6-0.2,0.7-0.5l1-3c0.4-1.1,0.1-2.3-0.6-3.2c-0.7-0.9-1.9-1.3-3-1.2c-1.9,0.3-3.8-0.2-5.3-1.2    c0.3-0.3,0.6-0.6,0.8-0.9c0.5-0.6,8.5-7.4,13.3-11.5c0.2-0.1,0.3-0.3,0.3-0.5C50.3,17.5,50.2,17.3,50.1,17.1L50.1,17.1z     M41.4,33.4c0.6-0.1,1.2,0.1,1.6,0.6c0.4,0.5,0.5,1.1,0.3,1.7l-0.8,2.5h-8.7c0,0-0.1-0.1-0.1-0.1c-0.2-0.2-5.7-5.2-12.8-6    c-0.4,0-0.8,0.3-0.9,0.7c0,0.4,0.3,0.8,0.7,0.9c4.7,0.5,8.8,3.2,10.7,4.6H5.2v-2.7c0-1.5,0.7-2.8,1.8-3.8l1-0.8    c0.7,0.3,1.6,0.4,2.3,0l2.1-0.9c-0.8,1.1-1.7,2.4-2.4,4c-0.2,0.4,0,0.8,0.4,1c0.1,0,0.2,0.1,0.3,0.1c0.3,0,0.6-0.2,0.7-0.5    c1.3-3,3.2-5.1,4.5-6.2c0,0,0,0,0,0l1.1-0.5c0.1,0.4,0.2,0.8,0.5,1.1c0.4,0.6,1.1,1,1.8,1.1l12,1.9c0.3,0,0.6,0.1,0.8,0.1    c0.8,0,1.5-0.2,2.2-0.5c0,0,0,0,0,0c0.1,0.2,1,1.7,1,4.3c0,0.4,0.3,0.8,0.8,0.8s0.8-0.3,0.8-0.8c0-1.3-0.2-2.3-0.4-3.1    C38.1,33.4,39.8,33.6,41.4,33.4L41.4,33.4z M35.4,28.8c-0.9,1.2-2.3,1.8-3.8,1.6l-12-1.9c-0.3,0-0.6-0.2-0.8-0.5    c-0.2-0.2-0.3-0.6-0.2-0.9c0.1-0.6,0.6-1,1.1-1c0.1,0,0.1,0,0.2,0l7.2,1.1c0.4,0.1,0.8-0.2,0.9-0.6c0.1-0.4-0.2-0.8-0.6-0.9    l-7.2-1.1c-1.2-0.2-2.3,0.4-2.8,1.4c0,0,0,0-0.1,0l-7.6,3.3c-0.5,0.2-1.1,0.1-1.4-0.3c-0.3-0.3-0.4-0.6-0.4-1    c0-0.4,0.2-0.7,0.6-0.9l8.6-5.9c2.6-1.8,5.7-2.5,8.8-2L37,21.1c0.3,0.1,0.6-0.1,0.8-0.4l5-9.5l5.6,6.4    C44.8,20.6,35.9,28.1,35.4,28.8L35.4,28.8z"></path>
	</g>
</g>
</svg>