<svg xmlns="http://www.w3.org/2000/svg" xmlns:xlink="http://www.w3.org/1999/xlink" id="Layer_1" x="0px" y="0px" viewBox="0 0 609 524" style="enable-background:new 0 0 609 524;" xml:space="preserve">
<style type="text/css">
	.st0{opacity:0.5348;}
	.st1{fill-rule:evenodd;clip-rule:evenodd;fill:#060125;fill-opacity:0.0583;}
</style>
<desc>Created with Sketch.</desc>
<g id="Page-1" class="st0">
	<g id="Group-3" transform="translate(-3.000000, 0.000000)">
		<g id="Group">
			<polygon id="Path" class="st1" points="521.12,385.98 562.81,368.71 559.55,360.75 517.33,377.33    "></polygon>
			<path id="Path-2" class="st1" d="M487.53,329.43c6,8.12,13.19,12,21.57,11.63c8.38-0.37,16.72-4.94,25.03-13.69l5.94,5.54     c-10.67,11.96-20.99,17.94-30.96,17.94c-9.97,0-19.76-5.98-29.36-17.94L487.53,329.43z"></path>
			<path id="Path-3" class="st1" d="M504.31,297.62c0.58,3.71-0.56,7.96-3.4,12.73c-2.84,4.78-6.47,8.54-10.88,11.28l5.43,6.82     c8.11-6.13,13.17-11.58,15.2-16.33c2.88-5.83,2.88-12.29,0-19.36L504.31,297.62z"></path>
			<path id="Path-4" class="st1" d="M546.49,269.86l-19.65,32.88l24.52-7.18l-12.26,26.9l41.29-17.99     c-2.62-4.96-3.92-7.44-3.92-7.44c-11.7,4.74-17.56,7.1-17.56,7.1c7.26-15.52,10.89-23.28,10.89-23.28     c-15.25,4.56-22.87,6.84-22.87,6.84l7.69-13.41L546.49,269.86z"></path>
			<path id="Path-5" class="st1" d="M564.36,269.78c-6.5-13.79-9.75-20.68-9.75-20.68c8.98-13.06,13.47-19.59,13.47-19.59     c5.08,2.52,7.62,3.79,7.62,3.79c-7.37,10.76-11.06,16.13-11.06,16.13l7.57,16.74C566.98,268.58,564.36,269.78,564.36,269.78z"></path>
			<path id="Path-6" class="st1" d="M581.94,269.86c2.5,2.62,4.88,4.25,7.13,4.9c3.37,0.97,8.39-0.44,8.39-0.44     c-3.03-4.82-4.54-7.24-4.54-7.24c5.39-3.27,8.09-4.9,8.09-4.9c7.32,8.86,10.98,13.28,10.98,13.28     c-5.54,5.83-11.51,8.73-17.9,8.72c-6.39-0.02-12.87-2.95-19.43-8.81L581.94,269.86z"></path>
			<path id="Path-7" class="st1" d="M596.37,249.72c-15.25-18.8-22.87-28.21-22.87-28.21c9.8-3,14.7-4.51,14.7-4.51     c-4.44-0.94-6.66-1.41-6.66-1.41c1.89-6.37,2.84-9.56,2.84-9.56c16.42,3.79,24.64,5.68,24.64,5.68     c-0.18,5.85-0.27,8.77-0.27,8.77c-12.61,3.6-18.92,5.4-18.92,5.4l14.73,19.38C599.1,248.24,596.37,249.72,596.37,249.72z"></path>
			<path id="Path-8" class="st1" d="M585.12,202.34c6.69-17.2,10.04-25.8,10.04-25.8c-8.02,2.57-12.03,3.85-12.03,3.85     c-2.18-6.06-3.28-9.09-3.28-9.09c20.25-6.89,30.37-10.33,30.37-10.33c-5.81,16.46-8.71,24.69-8.71,24.69     c6.6-3.27,9.9-4.91,9.9-4.91l0.17,9.97C593.94,198.47,585.12,202.34,585.12,202.34z"></path>
			<polygon id="Path-9" class="st1" points="591.26,155.26 607.79,137.05 607.79,123.48 583.94,148.39    "></polygon>
			<path id="Path-10" class="st1" d="M569.98,97.97c17.17,8.08,25.76,12.11,25.76,12.11c8.54-4.02,12.81-6.02,12.81-6.02     c0.22-6.87,0.33-10.3,0.33-10.3c-9.1,4.13-13.65,6.2-13.65,6.2l-21.58-9.91C571.21,95.33,569.98,97.97,569.98,97.97z"></path>
			<path id="Path-11" class="st1" d="M543.44,84.44c6.14,1.36,9.22,2.04,9.22,2.04c1.93-6.12,2.9-9.19,2.9-9.19     c3.32,9.52,4.98,14.28,4.98,14.28c22.43-11.9,33.65-17.85,33.65-17.85c-2.51-4.85-3.77-7.28-3.77-7.28     c-15.71,8.07-23.57,12.11-23.57,12.11l-12.8-31.69C546.98,71.92,543.44,84.44,543.44,84.44z"></path>
			<path id="Path-12" class="st1" d="M582.2,40.24c5.01,8.9,9.01,14.69,11.99,17.35c2.98,2.67,7.1,4.13,12.34,4.39V51.11     c-3.52,0.23-6.64-0.62-9.34-2.54c-2.7-1.92-4.68-4.7-5.93-8.33H582.2z"></path>
			<path id="Path-13" class="st1" d="M606.53,35.04c-21.26-6.64-31.9-9.96-31.9-9.96c2.93,5.6,4.39,8.4,4.39,8.4     c-6.01,2.67-9.02,4-9.02,4c-7.48-18.4-11.22-27.6-11.22-27.6c18.93,6.38,28.39,9.57,28.39,9.57c-5.9-10.03-8.86-15.04-8.86-15.04     L586.08,0L606.53,35.04z"></path>
			<path id="Path-14" class="st1" d="M537.11,4.63c-1.32,17.61-1.98,26.41-1.98,26.41c18.87,3.44,28.31,5.16,28.31,5.16     c-1.34,5.86-2.01,8.8-2.01,8.8c-23.99-3.29-35.99-4.94-35.99-4.94l3.32-36.81C534.33,4.17,537.11,4.63,537.11,4.63z"></path>
			<polygon id="Path-15" class="st1" points="480.59,13.15 510.02,13.15 510.02,4.49 480.59,4.49    "></polygon>
			<path id="Path-16" class="st1" d="M464.35,23.02l-1.15,8.46l26.73,3.14c-1.47,19.12-2.21,28.68-2.21,28.68l8.6,1.06l3.84-36.46     C476.29,24.64,464.35,23.02,464.35,23.02z"></path>
			<path id="Path-17" class="st1" d="M541.04,49.05c-16.39,12.68-24.58,19.02-24.58,19.02c3.78,4.6,5.67,6.9,5.67,6.9l24.91-19.25     C543.04,51.28,541.04,49.05,541.04,49.05z"></path>
			<path id="Path-18" class="st1" d="M496.59,106c-5.69-8.74-8.53-13.12-8.53-13.12c18.97,5.86,28.45,8.79,28.45,8.79     c-8.3-18.25-12.45-27.37-12.45-27.37c-5.3,1.7-7.95,2.55-7.95,2.55c2.65,6.35,3.98,9.52,3.98,9.52     c-23.04-7.14-34.56-10.7-34.56-10.7l22.98,35.72C493.89,107.8,496.59,106,496.59,106z"></path>
			<path id="Path-19" class="st1" d="M525.43,106.37c0.86-3.25,2.16-5.35,3.9-6.31s4.25-0.96,7.53,0l1.66-10.02     c-7.61-0.55-13.37,0.71-17.29,3.76c-3.92,3.06-5.78,7.76-5.6,14.12L525.43,106.37z"></path>
			<path id="Path-20" class="st1" d="M538.52,116.52l12.95,14.34c-23.31-2.96-34.97-4.44-34.97-4.44c-0.47,5.59-0.71,8.38-0.71,8.38     c19.18,3.1,28.77,4.64,28.77,4.64c1.96,17.71,2.95,26.56,2.95,26.56c18.03,2.97,27.05,4.45,27.05,4.45     c1.99-5.52,2.98-8.29,2.98-8.29c-13.87-2.71-20.8-4.06-20.8-4.06c-1.25-17.36-1.88-26.04-1.88-26.04     c9.42-7.49,14.13-11.23,14.13-11.23c6.5,8.89,9.75,13.33,9.75,13.33c5.45-3.4,8.18-5.11,8.18-5.11     c-10.22-14.54-15.34-21.81-15.34-21.81c-11.51,8.27-17.27,12.41-17.27,12.41l-8.57-8.98L538.52,116.52z"></path>
			<path id="Path-21" class="st1" d="M485,121.56c3.47,5.54,8.14,10.26,14.03,14.14c5.88,3.88,12.86,6.85,20.92,8.92     c-1.22,5.76-1.84,8.64-1.84,8.64c-9.32-2.04-17.4-5.28-24.25-9.71c-6.85-4.43-12.38-10-16.58-16.7L485,121.56z"></path>
			<path id="Path-22" class="st1" d="M508.01,162.81l-26.66-0.87l6.11,18.28l-8.72,4.39c-7.78-21.98-11.66-32.96-11.66-32.96     c6.5,0.5,9.75,0.75,9.75,0.75l5.56-7.61C499.47,156.8,508.01,162.81,508.01,162.81z"></path>
			<path id="Path-23" class="st1" d="M500.49,174.82c7.65-1.52,15.67-1.8,24.08-0.83c12.61,1.46,21.54,6.1,21.54,6.1     c2.38-5.46,3.57-8.19,3.57-8.19c-8.89-3.63-17.1-5.9-24.62-6.79s-16.38-0.67-26.58,0.69     C499.82,171.81,500.49,174.82,500.49,174.82z"></path>
			<path id="Path-24" class="st1" d="M549.68,194.11c3.2-0.58,5.6-0.31,7.18,0.8c1.58,1.11,2.21,2.96,1.88,5.56h9.68     c-0.78-5.77-2.75-9.79-5.91-12.06c-3.16-2.27-8.07-3.18-14.72-2.72L549.68,194.11z"></path>
			<polygon id="Path-25" class="st1" points="545.85,213.06 536.62,218.16 549.68,229.51 525.02,242.43 519.95,235.27      533.87,227.88 521.72,217.15 541.16,206.04    "></polygon>
			<path id="Path-26" class="st1" d="M526.27,185.34l-14.29,26.04c-22.51-2.56-33.77-3.84-33.77-3.84     c-5.18,9.74-7.77,14.61-7.77,14.61c-5.57-2.81-8.36-4.22-8.36-4.22c7.5-13.22,11.25-19.82,11.25-19.82     c22.15,2.05,33.22,3.08,33.22,3.08l12.57-20.9L526.27,185.34z"></path>
			<path id="Path-27" class="st1" d="M508.01,229.51C496.64,239.83,490.96,245,490.96,245c3.29,10.18,4.93,15.26,4.93,15.26     c-6.06,1.94-9.09,2.91-9.09,2.91c-3.49-14.07-5.24-21.1-5.24-21.1l18.8-18.29C505.46,227.6,508.01,229.51,508.01,229.51z"></path>
			<path id="Path-28" class="st1" d="M513.17,249.72c17.93,11.76,26.9,17.65,26.9,17.65c-3.45,5.64-5.17,8.46-5.17,8.46     l-27.85-18.47L513.17,249.72z"></path>
			<path id="Path-29" class="st1" d="M474.22,275.83c-4.06,19.22-6.08,28.82-6.08,28.82c5.83,1.43,8.75,2.15,8.75,2.15     c3.5-13.53,5.25-20.29,5.25-20.29c23.45,1.01,35.18,1.51,35.18,1.51l0.87-8.11C488.88,277.19,474.22,275.83,474.22,275.83z"></path>
			<path id="Path-31" class="st1" d="M507.72,368.83c3.05-2.87,5.76-4.31,8.11-4.31c2.35,0,4.54,1.44,6.57,4.31l6.96-5.84     c-4.19-4.53-8.7-6.8-13.53-6.8c-4.83,0-9.78,2.27-14.84,6.8L507.72,368.83z"></path>
			<path id="Path-32" class="st1" d="M546.57,340.68c2.83-0.82,5.85-0.82,9.06,0c4.82,1.24,3.73,4.41,8.13,4.41     c6.11-5.01,8.52-10.85,14.69-12.38c4.11-1.02,9.99,0.44,17.63,4.37l2.5,8.01c0.92,1.69-0.84,2.14-5.28,1.34     c-6.66-1.2-5.76-5.75-12.9-4.61c-7.14,1.14-11.94,11.26-16.64,12.46s-9.4-4.59-11.55-5.25c-1.43-0.44-3.31-0.44-5.64,0V340.68z"></path>
			<path id="Path-33" class="st1" d="M582.08,322.45c0,0,8.98-4.91,26.93-14.73v-9.83l-31.13,16.01     C580.68,319.6,582.08,322.45,582.08,322.45z"></path>
			<path id="Path-34" class="st1" d="M585.33,381.86l9.98-21.12l12.15,2.75c0-6.03,0-9.05,0-9.05c-11.66-2.82-17.49-4.23-17.49-4.23     l-13.32,27.32L585.33,381.86z"></path>
			<g id="Group-2" transform="translate(0.298726, 376.535892)">
				<polygon id="Path-Copy-4" class="st1" points="509.38,136.25 551.22,118.98 547.96,111.02 505.57,127.61     "></polygon>
				<path id="Path-2-Copy-4" class="st1" d="M475.67,79.71c6.02,8.12,13.24,12,21.65,11.63s16.78-4.94,25.12-13.69l5.96,5.54      c-10.71,11.96-21.07,17.94-31.08,17.94s-19.83-5.98-29.46-17.94L475.67,79.71z"></path>
				<path id="Path-3-Copy-4" class="st1" d="M492.51,47.89c0.58,3.71-0.56,7.96-3.41,12.73s-6.49,8.54-10.92,11.28l5.45,6.82      c8.14-6.13,13.22-11.58,15.25-16.33c2.89-5.83,2.89-12.29,0-19.36L492.51,47.89z"></path>
				<path id="Path-4-Copy-4" class="st1" d="M534.85,20.14l-19.72,32.88l24.61-7.18l-12.31,26.9l41.45-17.99      c-2.63-4.96-3.94-7.44-3.94-7.44c-11.75,4.74-17.62,7.1-17.62,7.1c7.29-15.52,10.93-23.28,10.93-23.28      c-15.3,4.56-22.96,6.84-22.96,6.84l7.72-13.41L534.85,20.14z"></path>
				<path id="Path-6-Copy-4" class="st1" d="M570.42,20.14c2.51,2.62,4.9,4.25,7.15,4.9c3.38,0.97,8.42-0.44,8.42-0.44      c-3.04-4.82-4.56-7.24-4.56-7.24c5.41-3.27,8.12-4.9,8.12-4.9c7.35,8.86,11.02,13.28,11.02,13.28      c-5.56,5.83-11.55,8.73-17.96,8.72c-6.41-0.02-12.92-2.95-19.5-8.81L570.42,20.14z"></path>
				<path id="Path-28-Copy-4" class="st1" d="M501.4,0c18,11.76,27,17.65,27,17.65c-3.46,5.64-5.19,8.46-5.19,8.46L495.26,7.63      L501.4,0z"></path>
				<path id="Path-29-Copy-4" class="st1" d="M462.31,26.1c-4.07,19.22-6.11,28.82-6.11,28.82c5.86,1.43,8.78,2.15,8.78,2.15      c3.51-13.53,5.27-20.29,5.27-20.29c23.54,1.01,35.31,1.51,35.31,1.51l0.87-8.11C477.02,27.46,462.31,26.1,462.31,26.1z"></path>
				<path id="Path-31-Copy-4" class="st1" d="M495.93,119.1c3.07-2.87,5.78-4.31,8.14-4.31s4.56,1.44,6.59,4.31l6.99-5.84      c-4.21-4.53-8.74-6.8-13.58-6.8c-4.85,0-9.81,2.27-14.9,6.8L495.93,119.1z"></path>
				<path id="Path-32-Copy-4" class="st1" d="M534.93,90.96c2.84-0.82,5.87-0.82,9.09,0c4.84,1.24,3.74,4.41,8.16,4.41      c6.13-5.01,8.55-10.85,14.74-12.38c4.13-1.02,10.03,0.44,17.7,4.37l2.51,8.01c0.92,1.69-0.85,2.14-5.3,1.34      c-6.69-1.2-5.78-5.75-12.95-4.61c-7.17,1.14-11.98,11.26-16.7,12.46c-4.72,1.2-9.44-4.59-11.59-5.25      c-1.44-0.44-3.32-0.44-5.66,0V90.96z"></path>
				<path id="Path-33-Copy-4" class="st1" d="M570.57,72.73c0,0,9.01-4.91,27.03-14.73v-9.83l-31.25,16.01      C569.17,69.88,570.57,72.73,570.57,72.73z"></path>
				<path id="Path-34-Copy-4" class="st1" d="M573.83,132.14l10.01-21.12l12.19,2.75c0-6.03,0-9.05,0-9.05      c-11.7-2.82-17.56-4.23-17.56-4.23l-13.37,27.32L573.83,132.14z"></path>
				<polygon id="Path-Copy-2" class="st1" points="357.32,136.46 399.16,119.2 395.89,111.24 353.51,127.82     "></polygon>
				<path id="Path-2-Copy-2" class="st1" d="M323.61,79.92c6.02,8.12,13.24,12,21.65,11.63c8.41-0.37,16.78-4.94,25.12-13.69      l5.96,5.54c-10.71,11.96-21.07,17.94-31.08,17.94c-10.01,0-19.83-5.98-29.46-17.94L323.61,79.92z"></path>
				<path id="Path-3-Copy-2" class="st1" d="M340.45,48.1c0.58,3.71-0.56,7.96-3.41,12.73s-6.49,8.54-10.92,11.28l5.45,6.82      c8.14-6.13,13.22-11.58,15.25-16.33c2.89-5.83,2.89-12.29,0-19.36L340.45,48.1z"></path>
				<path id="Path-4-Copy-2" class="st1" d="M382.78,20.35l-19.72,32.88l24.61-7.18l-12.31,26.9l41.45-17.99      c-2.63-4.96-3.94-7.44-3.94-7.44c-11.75,4.74-17.62,7.1-17.62,7.1c7.29-15.52,10.93-23.28,10.93-23.28      c-15.3,4.56-22.96,6.84-22.96,6.84l7.72-13.41L382.78,20.35z"></path>
				<path id="Path-6-Copy-2" class="st1" d="M418.36,20.35c2.51,2.62,4.9,4.25,7.15,4.9c3.38,0.97,8.42-0.44,8.42-0.44      c-3.04-4.82-4.56-7.24-4.56-7.24c5.41-3.27,8.12-4.9,8.12-4.9c7.35,8.86,11.02,13.28,11.02,13.28      c-5.56,5.83-11.55,8.73-17.96,8.72c-6.41-0.02-12.92-2.95-19.5-8.81L418.36,20.35z"></path>
				<path id="Path-28-Copy-2" class="st1" d="M349.34,0.21c18,11.76,27,17.65,27,17.65c-3.46,5.64-5.19,8.46-5.19,8.46L343.19,7.84      L349.34,0.21z"></path>
				<path id="Path-29-Copy-2" class="st1" d="M309.13,29.51c-4.07,19.22-6.11,28.82-6.11,28.82c5.86,1.43,8.78,2.15,8.78,2.15      c3.51-13.53,5.27-20.29,5.27-20.29c23.54,1.01,35.31,1.51,35.31,1.51l0.87-8.11C323.84,30.87,309.13,29.51,309.13,29.51z"></path>
				<path id="Path-31-Copy-2" class="st1" d="M343.87,119.31c3.07-2.87,5.78-4.31,8.14-4.31s4.56,1.44,6.59,4.31l6.99-5.84      c-4.21-4.53-8.74-6.8-13.58-6.8c-4.85,0-9.81,2.27-14.9,6.8L343.87,119.31z"></path>
				<path id="Path-32-Copy-2" class="st1" d="M382.86,91.17c2.84-0.82,5.87-0.82,9.09,0c4.84,1.24,3.74,4.41,8.16,4.41      c6.13-5.01,8.55-10.85,14.74-12.38c4.13-1.02,10.03,0.44,17.7,4.37l2.51,8.01c0.92,1.69-0.85,2.14-5.3,1.34      c-6.69-1.2-5.78-5.75-12.95-4.61s-11.98,11.26-16.7,12.46c-4.72,1.2-9.44-4.59-11.59-5.25c-1.44-0.44-3.32-0.44-5.66,0V91.17z"></path>
				<path id="Path-33-Copy-2" class="st1" d="M418.5,72.94c0,0,9.01-4.91,27.03-14.73v-9.83l-31.25,16.01      C417.1,70.09,418.5,72.94,418.5,72.94z"></path>
				<path id="Path-34-Copy-2" class="st1" d="M421.76,132.35l10.01-21.12l12.19,2.75c0-6.03,0-9.05,0-9.05      c-11.7-2.82-17.56-4.23-17.56-4.23l-13.37,27.32L421.76,132.35z"></path>
				<polygon id="Path-Copy-3" class="st1" points="206.34,136.46 248.18,119.2 244.91,111.24 202.53,127.82     "></polygon>
				<path id="Path-2-Copy-3" class="st1" d="M172.63,79.92c6.02,8.12,13.24,12,21.65,11.63c8.41-0.37,16.78-4.94,25.12-13.69      l5.96,5.54c-10.71,11.96-21.07,17.94-31.08,17.94c-10.01,0-19.83-5.98-29.46-17.94L172.63,79.92z"></path>
				<path id="Path-3-Copy-3" class="st1" d="M189.47,48.1c0.58,3.71-0.56,7.96-3.41,12.73c-2.85,4.78-6.49,8.54-10.92,11.28      l5.45,6.82c8.14-6.13,13.22-11.58,15.25-16.33c2.89-5.83,2.89-12.29,0-19.36L189.47,48.1z"></path>
				<path id="Path-4-Copy-3" class="st1" d="M231.8,20.35l-19.72,32.88l24.61-7.18l-12.31,26.9l41.45-17.99      c-2.63-4.96-3.94-7.44-3.94-7.44c-11.75,4.74-17.62,7.1-17.62,7.1c7.29-15.52,10.93-23.28,10.93-23.28      c-15.3,4.56-22.96,6.84-22.96,6.84l7.72-13.41L231.8,20.35z"></path>
				<path id="Path-6-Copy-3" class="st1" d="M267.38,20.35c2.51,2.62,4.9,4.25,7.15,4.9c3.38,0.97,8.42-0.44,8.42-0.44      c-3.04-4.82-4.56-7.24-4.56-7.24c5.41-3.27,8.12-4.9,8.12-4.9c7.35,8.86,11.02,13.28,11.02,13.28      c-5.56,5.83-11.55,8.73-17.96,8.72c-6.41-0.02-12.92-2.95-19.5-8.81L267.38,20.35z"></path>
				<path id="Path-28-Copy-3" class="st1" d="M198.36,0.21c18,11.76,27,17.65,27,17.65c-3.46,5.64-5.19,8.46-5.19,8.46L192.21,7.84      L198.36,0.21z"></path>
				<path id="Path-29-Copy-3" class="st1" d="M159.27,26.31c-4.07,19.22-6.11,28.82-6.11,28.82c5.86,1.43,8.78,2.15,8.78,2.15      c3.51-13.53,5.27-20.29,5.27-20.29c23.54,1.01,35.31,1.51,35.31,1.51l0.87-8.11C173.97,27.68,159.27,26.31,159.27,26.31z"></path>
				<path id="Path-31-Copy-3" class="st1" d="M192.89,119.31c3.07-2.87,5.78-4.31,8.14-4.31c2.36,0,4.56,1.44,6.59,4.31l6.99-5.84      c-4.21-4.53-8.74-6.8-13.58-6.8s-9.81,2.27-14.9,6.8L192.89,119.31z"></path>
				<path id="Path-32-Copy-3" class="st1" d="M231.88,91.17c2.84-0.82,5.87-0.82,9.09,0c4.84,1.24,3.74,4.41,8.16,4.41      c6.13-5.01,8.55-10.85,14.74-12.38c4.13-1.02,10.03,0.44,17.7,4.37l2.51,8.01c0.92,1.69-0.85,2.14-5.3,1.34      c-6.69-1.2-5.78-5.75-12.95-4.61s-11.98,11.26-16.7,12.46c-4.72,1.2-9.44-4.59-11.59-5.25c-1.44-0.44-3.32-0.44-5.66,0V91.17z"></path>
				<path id="Path-33-Copy-3" class="st1" d="M267.53,72.94c0,0,9.01-4.91,27.03-14.73v-9.83l-31.25,16.01      C266.12,70.09,267.53,72.94,267.53,72.94z"></path>
				<path id="Path-34-Copy-3" class="st1" d="M270.78,132.35l10.01-21.12l12.19,2.75c0-6.03,0-9.05,0-9.05      c-11.7-2.82-17.56-4.23-17.56-4.23l-13.37,27.32L270.78,132.35z"></path>
				<polygon id="Path-Copy" class="st1" points="54.27,136.68 96.11,119.41 92.85,111.45 50.46,128.03     "></polygon>
				<path id="Path-2-Copy" class="st1" d="M20.56,80.13c6.02,8.12,13.24,12,21.65,11.63s16.78-4.94,25.12-13.69l5.96,5.54      c-10.71,11.96-21.07,17.94-31.08,17.94s-19.83-5.98-29.46-17.94L20.56,80.13z"></path>
				<path id="Path-3-Copy" class="st1" d="M44.09,52.58c0.58,3.71-0.56,7.96-3.41,12.73c-2.85,4.78-6.49,8.54-10.92,11.28l5.45,6.82      c8.14-6.13,13.22-11.58,15.25-16.33c2.89-5.83,2.89-12.29,0-19.36L44.09,52.58z"></path>
				<path id="Path-4-Copy" class="st1" d="M79.73,20.56L60.01,53.44l24.61-7.18l-12.31,26.9l41.45-17.99      c-2.63-4.96-3.94-7.44-3.94-7.44c-11.75,4.74-17.62,7.1-17.62,7.1c7.29-15.52,10.93-23.28,10.93-23.28      c-15.3,4.56-22.96,6.84-22.96,6.84l7.72-13.41L79.73,20.56z"></path>
				<path id="Path-6-Copy" class="st1" d="M115.31,20.56c2.51,2.62,4.9,4.25,7.15,4.9c3.38,0.97,8.42-0.44,8.42-0.44      c-3.04-4.82-4.56-7.24-4.56-7.24c5.41-3.27,8.12-4.9,8.12-4.9c7.35,8.86,11.02,13.28,11.02,13.28      c-5.56,5.83-11.55,8.73-17.96,8.72c-6.41-0.02-12.92-2.95-19.5-8.81L115.31,20.56z"></path>
				<path id="Path-28-Copy" class="st1" d="M46.29,0.42c18,11.76,27,17.65,27,17.65c-3.46,5.64-5.19,8.46-5.19,8.46L40.14,8.06      L46.29,0.42z"></path>
				<path id="Path-29-Copy" class="st1" d="M20.57,26.53c-4.07,19.22-6.11,28.82-6.11,28.82c5.86,1.43,8.78,2.15,8.78,2.15      c3.51-13.53,5.27-20.29,5.27-20.29c23.54,1.01,35.31,1.51,35.31,1.51l0.87-8.11C35.28,27.89,20.57,26.53,20.57,26.53z"></path>
				<path id="Path-31-Copy" class="st1" d="M45.28,114.2c3.07-2.87,5.78-4.31,8.14-4.31c2.36,0,4.56,1.44,6.59,4.31l6.99-5.84      c-4.21-4.53-8.74-6.8-13.58-6.8s-9.81,2.27-14.9,6.8L45.28,114.2z"></path>
				<path id="Path-32-Copy" class="st1" d="M79.82,91.38c2.84-0.82,5.87-0.82,9.09,0c4.84,1.24,3.74,4.41,8.16,4.41      c6.13-5.01,8.55-10.85,14.74-12.38c4.13-1.02,10.03,0.44,17.7,4.37l2.51,8.01c0.92,1.69-0.85,2.14-5.3,1.34      c-6.69-1.2-5.78-5.75-12.95-4.61s-11.98,11.26-16.7,12.46c-4.72,1.2-9.44-4.59-11.59-5.25c-1.44-0.44-3.32-0.44-5.66,0V91.38z"></path>
				<path id="Path-33-Copy" class="st1" d="M115.46,73.15c0,0,9.01-4.91,27.03-14.73v-9.83L111.25,64.6      C114.06,70.3,115.46,73.15,115.46,73.15z"></path>
				<path id="Path-34-Copy" class="st1" d="M118.72,132.56l10.01-21.12l12.19,2.75c0-6.03,0-9.05,0-9.05      c-11.7-2.82-17.56-4.23-17.56-4.23l-13.37,27.32L118.72,132.56z"></path>
				<path id="Path-30-Copy-7" class="st1" d="M452.4,104.78l9.51-15.31l8.91,3.91c-3.28,6.27-4.91,9.41-4.91,9.41l16.32,10.65      l-16.45,22.33l-6.43-7.8l8.07-11.4L452.4,104.78z"></path>
				<path id="Path-30-Copy-6" class="st1" d="M300.87,111.17l9.51-15.31l8.91,3.91c-3.28,6.27-4.91,9.41-4.91,9.41l16.32,10.65      l-16.45,22.33l-6.43-7.8l8.07-11.4L300.87,111.17z"></path>
				<path id="Path-30-Copy-5" class="st1" d="M3.4,116.5l9.51-15.31l8.91,3.91c-3.28,6.27-4.91,9.41-4.91,9.41l16.32,10.65      l-16.45,22.33l-6.43-7.8l8.07-11.4L3.4,116.5z"></path>
				<path id="Path-30-Copy-4" class="st1" d="M149.35,104.99l9.51-15.31l8.91,3.91c-3.28,6.27-4.91,9.41-4.91,9.41l16.32,10.65      l-16.45,22.33l-6.43-7.8l8.07-11.4L149.35,104.99z"></path>
			</g>
		</g>
		<g id="Group-Copy" transform="translate(311.000000, 0.000000)">
			<polygon id="Path_1_" class="st1" points="59.42,385.56 101.32,368.31 98.05,360.36 55.61,376.92    "></polygon>
			<path id="Path-2_1_" class="st1" d="M25.67,329.08c6.03,8.12,13.25,11.99,21.67,11.62c8.42-0.37,16.8-4.93,25.15-13.68l5.97,5.54     c-10.72,11.95-21.1,17.92-31.12,17.92s-19.86-5.97-29.5-17.92L25.67,329.08z"></path>
			<path id="Path-3_1_" class="st1" d="M42.53,297.29c0.58,3.71-0.56,7.95-3.41,12.72s-6.5,8.53-10.93,11.27l5.45,6.81     c8.15-6.13,13.24-11.56,15.27-16.31c2.89-5.83,2.89-12.27,0-19.33L42.53,297.29z"></path>
			<path id="Path-4_1_" class="st1" d="M84.92,269.57l-19.75,32.84l24.65-7.18L77.5,322.1l41.5-17.97     c-2.63-4.95-3.94-7.43-3.94-7.43c-11.76,4.73-17.64,7.1-17.64,7.1c7.3-15.5,10.95-23.25,10.95-23.25     c-15.32,4.56-22.99,6.83-22.99,6.83l7.73-13.39L84.92,269.57z"></path>
			<path id="Path-5_1_" class="st1" d="M102.88,269.49c-6.53-13.77-9.8-20.66-9.8-20.66c9.03-13.05,13.54-19.57,13.54-19.57     c5.11,2.52,7.66,3.78,7.66,3.78c-7.41,10.74-11.11,16.12-11.11,16.12l7.61,16.73C105.51,268.29,102.88,269.49,102.88,269.49z"></path>
			<path id="Path-6_1_" class="st1" d="M120.54,269.57c2.52,2.62,4.9,4.25,7.16,4.89c3.39,0.97,8.43-0.44,8.43-0.44     c-3.04-4.82-4.56-7.23-4.56-7.23c5.42-3.26,8.13-4.89,8.13-4.89c7.36,8.85,11.03,13.27,11.03,13.27     c-5.57,5.82-11.57,8.72-17.99,8.71s-12.93-2.95-19.53-8.8L120.54,269.57z"></path>
			<path id="Path-7_1_" class="st1" d="M135.05,249.45c-15.32-18.78-22.99-28.17-22.99-28.17c9.85-3,14.77-4.5,14.77-4.5     c-4.46-0.94-6.69-1.41-6.69-1.41c1.9-6.37,2.85-9.55,2.85-9.55c16.51,3.78,24.76,5.67,24.76,5.67c-0.18,5.84-0.27,8.76-0.27,8.76     c-12.68,3.59-19.02,5.39-19.02,5.39l14.8,19.36C137.79,247.97,135.05,249.45,135.05,249.45z"></path>
			<path id="Path-8_1_" class="st1" d="M123.75,202.12c6.72-17.18,10.09-25.77,10.09-25.77c-8.06,2.57-12.09,3.85-12.09,3.85     c-2.19-6.05-3.29-9.08-3.29-9.08c20.35-6.88,30.52-10.32,30.52-10.32c-5.84,16.44-8.76,24.66-8.76,24.66     c6.63-3.27,9.95-4.9,9.95-4.9l0.17,9.96C132.61,198.25,123.75,202.12,123.75,202.12z"></path>
			<polygon id="Path-9_1_" class="st1" points="129.91,155.09 146.53,136.9 146.53,123.35 122.56,148.23    "></polygon>
			<path id="Path-10_1_" class="st1" d="M119.68,95.74c17.26,8.07,25.89,12.1,25.89,12.1c8.58-4.01,12.87-6.02,12.87-6.02     c0.22-6.86,0.33-10.29,0.33-10.29c-9.14,4.13-13.72,6.19-13.72,6.19l-21.68-9.9C120.92,93.1,119.68,95.74,119.68,95.74z"></path>
			<path id="Path-11_1_" class="st1" d="M81.86,84.35c6.18,1.36,9.26,2.03,9.26,2.03c1.94-6.12,2.91-9.18,2.91-9.18     c3.34,9.51,5.01,14.26,5.01,14.26c22.55-11.88,33.82-17.83,33.82-17.83c-2.52-4.85-3.79-7.27-3.79-7.27     c-15.79,8.06-23.68,12.09-23.68,12.09L92.53,46.81C85.42,71.84,81.86,84.35,81.86,84.35z"></path>
			<path id="Path-12_1_" class="st1" d="M120.81,40.2c5.04,8.89,9.05,14.67,12.05,17.33c3,2.66,7.13,4.12,12.4,4.38V51.06     c-3.54,0.23-6.67-0.62-9.39-2.54c-2.72-1.92-4.7-4.69-5.96-8.32H120.81z"></path>
			<path id="Path-13_1_" class="st1" d="M145.26,35c-21.37-6.63-32.06-9.95-32.06-9.95c2.94,5.6,4.41,8.39,4.41,8.39     c-6.04,2.66-9.06,4-9.06,4C101.04,19.06,97.28,9.87,97.28,9.87c19.02,6.37,28.54,9.56,28.54,9.56     c-5.93-10.02-8.9-15.03-8.9-15.03L124.7,0L145.26,35z"></path>
			<path id="Path-14_1_" class="st1" d="M75.5,4.63c-1.33,17.59-1.99,26.38-1.99,26.38c18.97,3.43,28.45,5.15,28.45,5.15     c-1.35,5.86-2.02,8.79-2.02,8.79c-24.11-3.29-36.17-4.93-36.17-4.93L67.1,3.25C72.7,4.17,75.5,4.63,75.5,4.63z"></path>
			<polygon id="Path-15_1_" class="st1" points="18.69,13.14 48.27,13.14 48.27,4.49 18.69,4.49    "></polygon>
			<path id="Path-16_1_" class="st1" d="M2.37,22.99l-1.16,8.45l26.86,3.13c-1.48,19.1-2.22,28.65-2.22,28.65l8.65,1.06l3.86-36.42     C14.37,24.61,2.37,22.99,2.37,22.99z"></path>
			<path id="Path-17_1_" class="st1" d="M79.44,49C62.97,61.67,54.74,68,54.74,68c3.8,4.6,5.7,6.89,5.7,6.89l25.04-19.23     C81.45,51.22,79.44,49,79.44,49z"></path>
			<path id="Path-18_1_" class="st1" d="M34.77,105.89c-5.72-8.74-8.58-13.1-8.58-13.1c19.06,5.85,28.59,8.78,28.59,8.78     c-8.34-18.23-12.52-27.34-12.52-27.34c-5.33,1.7-7.99,2.55-7.99,2.55c2.67,6.34,4,9.51,4,9.51C15.12,79.15,3.55,75.58,3.55,75.58     l23.1,35.69C32.06,107.68,34.77,105.89,34.77,105.89z"></path>
			<path id="Path-19_1_" class="st1" d="M63.76,106.26c0.87-3.24,2.17-5.34,3.92-6.3c1.75-0.96,4.27-0.96,7.57,0l1.66-10.01     c-7.65-0.55-13.44,0.7-17.38,3.76c-3.94,3.06-5.81,7.76-5.63,14.1L63.76,106.26z"></path>
			<path id="Path-20_1_" class="st1" d="M76.91,116.39l13.01,14.32c-23.43-2.96-35.14-4.43-35.14-4.43     c-0.48,5.58-0.71,8.37-0.71,8.37c19.27,3.09,28.91,4.64,28.91,4.64c1.97,17.69,2.96,26.53,2.96,26.53     c18.12,2.97,27.18,4.45,27.18,4.45c2-5.52,3-8.28,3-8.28c-13.94-2.71-20.91-4.06-20.91-4.06c-1.26-17.34-1.89-26.01-1.89-26.01     c9.47-7.48,14.2-11.22,14.2-11.22c6.53,8.88,9.8,13.31,9.8,13.31c5.48-3.4,8.22-5.1,8.22-5.1     c-10.27-14.52-15.41-21.78-15.41-21.78c-11.57,8.27-17.35,12.4-17.35,12.4l-8.62-8.97L76.91,116.39z"></path>
			<path id="Path-21_1_" class="st1" d="M23.12,121.43c3.49,5.54,8.19,10.25,14.1,14.12s12.92,6.85,21.03,8.91     c-1.23,5.76-1.84,8.63-1.84,8.63c-9.36-2.04-17.49-5.28-24.37-9.7c-6.88-4.43-12.44-9.99-16.66-16.68L23.12,121.43z"></path>
			<path id="Path-22_1_" class="st1" d="M46.25,162.63l-26.79-0.86l6.14,18.26l-8.76,4.39c-7.81-21.95-11.72-32.93-11.72-32.93     c6.53,0.5,9.79,0.75,9.79,0.75l5.58-7.6C37.66,156.63,46.25,162.63,46.25,162.63z"></path>
			<path id="Path-23_1_" class="st1" d="M38.69,174.63c7.68-1.52,15.75-1.8,24.2-0.83c12.67,1.45,21.65,6.09,21.65,6.09     c2.39-5.45,3.59-8.18,3.59-8.18c-8.93-3.63-17.18-5.89-24.74-6.79c-7.56-0.9-16.47-0.67-26.71,0.69     C38.02,171.63,38.69,174.63,38.69,174.63z"></path>
			<path id="Path-24_1_" class="st1" d="M88.13,193.9c3.22-0.58,5.62-0.31,7.21,0.8c1.59,1.11,2.22,2.96,1.89,5.55h9.73     c-0.78-5.77-2.76-9.78-5.94-12.05s-8.11-3.17-14.79-2.72L88.13,193.9z"></path>
			<polygon id="Path-25_1_" class="st1" points="84.28,212.83 75,217.92 88.13,229.26 63.35,242.17 58.25,235.02 72.24,227.63      60.03,216.91 79.57,205.81    "></polygon>
			<path id="Path-26_1_" class="st1" d="M64.6,185.14l-14.37,26.01c-22.62-2.56-33.94-3.83-33.94-3.83     c-5.2,9.73-7.81,14.6-7.81,14.6c-5.6-2.81-8.4-4.21-8.4-4.21c7.54-13.2,11.3-19.8,11.3-19.8c22.26,2.05,33.38,3.08,33.38,3.08     l12.63-20.87L64.6,185.14z"></path>
			<path id="Path-27_1_" class="st1" d="M46.25,229.26c-11.43,10.32-17.14,15.48-17.14,15.48c3.3,10.16,4.96,15.25,4.96,15.25     c-6.09,1.94-9.13,2.91-9.13,2.91c-3.51-14.05-5.27-21.08-5.27-21.08l18.89-18.27C43.68,227.35,46.25,229.26,46.25,229.26z"></path>
			<path id="Path-28_1_" class="st1" d="M51.43,249.45c18.02,11.75,27.03,17.63,27.03,17.63c-3.47,5.63-5.2,8.45-5.2,8.45     l-27.99-18.45L51.43,249.45z"></path>
			<path id="Path-29_1_" class="st1" d="M11.18,278.72c-4.08,19.19-6.11,28.79-6.11,28.79c5.86,1.43,8.8,2.15,8.8,2.15     c3.52-13.51,5.27-20.27,5.27-20.27c23.57,1.01,35.35,1.51,35.35,1.51l0.87-8.11C25.9,280.08,11.18,278.72,11.18,278.72z"></path>
			<path id="Path-31_1_" class="st1" d="M45.96,368.42c3.07-2.87,5.79-4.3,8.15-4.3s4.57,1.43,6.6,4.3l7-5.83     c-4.21-4.53-8.75-6.79-13.6-6.79s-9.83,2.26-14.92,6.79L45.96,368.42z"></path>
			<path id="Path-32_1_" class="st1" d="M85,340.31c2.84-0.82,5.88-0.82,9.11,0c4.84,1.23,3.75,4.4,8.17,4.4     c6.14-5.01,8.56-10.84,14.76-12.36c4.13-1.02,10.04,0.44,17.72,4.36l2.52,8c0.92,1.69-0.85,2.14-5.31,1.34     c-6.69-1.2-5.79-5.74-12.97-4.61c-7.18,1.14-12,11.25-16.72,12.45c-4.72,1.2-9.45-4.59-11.61-5.24c-1.44-0.44-3.33-0.44-5.67,0     V340.31z"></path>
			<path id="Path-33_1_" class="st1" d="M120.69,322.1c0,0,9.02-4.9,27.07-14.71v-9.82l-31.29,15.99     C119.29,319.26,120.69,322.1,120.69,322.1z"></path>
			<path id="Path-34_1_" class="st1" d="M123.95,381.45l10.03-21.09l12.21,2.75c0-6.03,0-9.04,0-9.04     c-11.72-2.82-17.58-4.22-17.58-4.22l-13.39,27.29L123.95,381.45z"></path>
		</g>
		<path id="Path-30" class="st1" d="M464.35,354.5l9.48-15.31l8.87,3.91c-3.26,6.27-4.9,9.41-4.9,9.41l16.26,10.65l-16.38,22.33    l-6.41-7.8l8.04-11.4L464.35,354.5z"></path>
		<path id="Path-30-Copy-2" class="st1" d="M313.38,360.89l9.48-15.31l8.87,3.91c-3.26,6.27-4.9,9.41-4.9,9.41l16.26,10.65    l-16.38,22.33l-6.41-7.8l8.04-11.4L313.38,360.89z"></path>
		<path id="Path-30-Copy-3" class="st1" d="M17,366.22l9.48-15.31l8.87,3.91c-3.26,6.27-4.9,9.41-4.9,9.41l16.26,10.65l-16.38,22.33    l-6.41-7.8l8.04-11.4L17,366.22z"></path>
		<g id="Group-Copy-3" transform="translate(160.000000, 0.000000)">
			<polygon id="Path_2_" class="st1" points="59.42,385.56 101.32,368.31 98.05,360.36 55.61,376.92    "></polygon>
			<path id="Path-2_2_" class="st1" d="M25.67,329.08c6.03,8.12,13.25,11.99,21.67,11.62c8.42-0.37,16.8-4.93,25.15-13.68l5.97,5.54     c-10.72,11.95-21.1,17.92-31.12,17.92s-19.86-5.97-29.5-17.92L25.67,329.08z"></path>
			<path id="Path-3_2_" class="st1" d="M42.53,297.29c0.58,3.71-0.56,7.95-3.41,12.72s-6.5,8.53-10.93,11.27l5.45,6.81     c8.15-6.13,13.24-11.56,15.27-16.31c2.89-5.83,2.89-12.27,0-19.33L42.53,297.29z"></path>
			<path id="Path-4_2_" class="st1" d="M84.92,269.57l-19.75,32.84l24.65-7.18L77.5,322.1l41.5-17.97     c-2.63-4.95-3.94-7.43-3.94-7.43c-11.76,4.73-17.64,7.1-17.64,7.1c7.3-15.5,10.95-23.25,10.95-23.25     c-15.32,4.56-22.99,6.83-22.99,6.83l7.73-13.39L84.92,269.57z"></path>
			<path id="Path-5_2_" class="st1" d="M102.88,269.49c-6.53-13.77-9.8-20.66-9.8-20.66c9.03-13.05,13.54-19.57,13.54-19.57     c5.11,2.52,7.66,3.78,7.66,3.78c-7.41,10.74-11.11,16.12-11.11,16.12l7.61,16.73C105.51,268.29,102.88,269.49,102.88,269.49z"></path>
			<path id="Path-6_2_" class="st1" d="M120.54,269.57c2.52,2.62,4.9,4.25,7.16,4.89c3.39,0.97,8.43-0.44,8.43-0.44     c-3.04-4.82-4.56-7.23-4.56-7.23c5.42-3.26,8.13-4.89,8.13-4.89c7.36,8.85,11.03,13.27,11.03,13.27     c-5.57,5.82-11.57,8.72-17.99,8.71s-12.93-2.95-19.53-8.8L120.54,269.57z"></path>
			<path id="Path-7_2_" class="st1" d="M135.05,249.45c-15.32-18.78-22.99-28.17-22.99-28.17c9.85-3,14.77-4.5,14.77-4.5     c-4.46-0.94-6.69-1.41-6.69-1.41c1.9-6.37,2.85-9.55,2.85-9.55c16.51,3.78,24.76,5.67,24.76,5.67c-0.18,5.84-0.27,8.76-0.27,8.76     c-12.68,3.59-19.02,5.39-19.02,5.39l14.8,19.36C137.79,247.97,135.05,249.45,135.05,249.45z"></path>
			<path id="Path-8_2_" class="st1" d="M123.75,202.12c6.72-17.18,10.09-25.77,10.09-25.77c-8.06,2.57-12.09,3.85-12.09,3.85     c-2.19-6.05-3.29-9.08-3.29-9.08c20.35-6.88,30.52-10.32,30.52-10.32c-5.84,16.44-8.76,24.66-8.76,24.66     c6.63-3.27,9.95-4.9,9.95-4.9l0.17,9.96C132.61,198.25,123.75,202.12,123.75,202.12z"></path>
			<polygon id="Path-9_2_" class="st1" points="129.91,155.09 146.53,136.9 146.53,123.35 122.56,148.23    "></polygon>
			<path id="Path-10_2_" class="st1" d="M119.68,95.74c17.26,8.07,25.89,12.1,25.89,12.1c8.58-4.01,12.87-6.02,12.87-6.02     c0.22-6.86,0.33-10.29,0.33-10.29c-9.14,4.13-13.72,6.19-13.72,6.19l-21.68-9.9C120.92,93.1,119.68,95.74,119.68,95.74z"></path>
			<path id="Path-11_2_" class="st1" d="M81.86,84.35c6.18,1.36,9.26,2.03,9.26,2.03c1.94-6.12,2.91-9.18,2.91-9.18     c3.34,9.51,5.01,14.26,5.01,14.26c22.55-11.88,33.82-17.83,33.82-17.83c-2.52-4.85-3.79-7.27-3.79-7.27     c-15.79,8.06-23.68,12.09-23.68,12.09L92.53,46.81C85.42,71.84,81.86,84.35,81.86,84.35z"></path>
			<path id="Path-12_2_" class="st1" d="M120.81,40.2c5.04,8.89,9.05,14.67,12.05,17.33c3,2.66,7.13,4.12,12.4,4.38V51.06     c-3.54,0.23-6.67-0.62-9.39-2.54c-2.72-1.92-4.7-4.69-5.96-8.32H120.81z"></path>
			<path id="Path-13_2_" class="st1" d="M145.26,35c-21.37-6.63-32.06-9.95-32.06-9.95c2.94,5.6,4.41,8.39,4.41,8.39     c-6.04,2.66-9.06,4-9.06,4C101.04,19.06,97.28,9.87,97.28,9.87c19.02,6.37,28.54,9.56,28.54,9.56     c-5.93-10.02-8.9-15.03-8.9-15.03L124.7,0L145.26,35z"></path>
			<path id="Path-14_2_" class="st1" d="M75.5,4.63c-1.33,17.59-1.99,26.38-1.99,26.38c18.97,3.43,28.45,5.15,28.45,5.15     c-1.35,5.86-2.02,8.79-2.02,8.79c-24.11-3.29-36.17-4.93-36.17-4.93L67.1,3.25C72.7,4.17,75.5,4.63,75.5,4.63z"></path>
			<polygon id="Path-15_2_" class="st1" points="18.69,13.14 48.27,13.14 48.27,4.49 18.69,4.49    "></polygon>
			<path id="Path-16_2_" class="st1" d="M2.37,22.99l-1.16,8.45l26.86,3.13c-1.48,19.1-2.22,28.65-2.22,28.65l8.65,1.06l3.86-36.42     C14.37,24.61,2.37,22.99,2.37,22.99z"></path>
			<path id="Path-17_2_" class="st1" d="M79.44,49C62.97,61.67,54.74,68,54.74,68c3.8,4.6,5.7,6.89,5.7,6.89l25.04-19.23     C81.45,51.22,79.44,49,79.44,49z"></path>
			<path id="Path-18_2_" class="st1" d="M34.77,105.89c-5.72-8.74-8.58-13.1-8.58-13.1c19.06,5.85,28.59,8.78,28.59,8.78     c-8.34-18.23-12.52-27.34-12.52-27.34c-5.33,1.7-7.99,2.55-7.99,2.55c2.67,6.34,4,9.51,4,9.51C15.12,79.15,3.55,75.58,3.55,75.58     l23.1,35.69C32.06,107.68,34.77,105.89,34.77,105.89z"></path>
			<path id="Path-19_2_" class="st1" d="M63.76,106.26c0.87-3.24,2.17-5.34,3.92-6.3c1.75-0.96,4.27-0.96,7.57,0l1.66-10.01     c-7.65-0.55-13.44,0.7-17.38,3.76c-3.94,3.06-5.81,7.76-5.63,14.1L63.76,106.26z"></path>
			<path id="Path-20_2_" class="st1" d="M76.91,116.39l13.01,14.32c-23.43-2.96-35.14-4.43-35.14-4.43     c-0.48,5.58-0.71,8.37-0.71,8.37c19.27,3.09,28.91,4.64,28.91,4.64c1.97,17.69,2.96,26.53,2.96,26.53     c18.12,2.97,27.18,4.45,27.18,4.45c2-5.52,3-8.28,3-8.28c-13.94-2.71-20.91-4.06-20.91-4.06c-1.26-17.34-1.89-26.01-1.89-26.01     c9.47-7.48,14.2-11.22,14.2-11.22c6.53,8.88,9.8,13.31,9.8,13.31c5.48-3.4,8.22-5.1,8.22-5.1     c-10.27-14.52-15.41-21.78-15.41-21.78c-11.57,8.27-17.35,12.4-17.35,12.4l-8.62-8.97L76.91,116.39z"></path>
			<path id="Path-21_2_" class="st1" d="M23.12,121.43c3.49,5.54,8.19,10.25,14.1,14.12s12.92,6.85,21.03,8.91     c-1.23,5.76-1.84,8.63-1.84,8.63c-9.36-2.04-17.49-5.28-24.37-9.7c-6.88-4.43-12.44-9.99-16.66-16.68L23.12,121.43z"></path>
			<path id="Path-22_2_" class="st1" d="M46.25,162.63l-26.79-0.86l6.14,18.26l-8.76,4.39c-7.81-21.95-11.72-32.93-11.72-32.93     c6.53,0.5,9.79,0.75,9.79,0.75l5.58-7.6C37.66,156.63,46.25,162.63,46.25,162.63z"></path>
			<path id="Path-23_2_" class="st1" d="M38.69,174.63c7.68-1.52,15.75-1.8,24.2-0.83c12.67,1.45,21.65,6.09,21.65,6.09     c2.39-5.45,3.59-8.18,3.59-8.18c-8.93-3.63-17.18-5.89-24.74-6.79c-7.56-0.9-16.47-0.67-26.71,0.69     C38.02,171.63,38.69,174.63,38.69,174.63z"></path>
			<path id="Path-24_2_" class="st1" d="M88.13,193.9c3.22-0.58,5.62-0.31,7.21,0.8c1.59,1.11,2.22,2.96,1.89,5.55h9.73     c-0.78-5.77-2.76-9.78-5.94-12.05s-8.11-3.17-14.79-2.72L88.13,193.9z"></path>
			<polygon id="Path-25_2_" class="st1" points="84.28,212.83 75,217.92 88.13,229.26 63.35,242.17 58.25,235.02 72.24,227.63      60.03,216.91 79.57,205.81    "></polygon>
			<path id="Path-26_2_" class="st1" d="M64.6,185.14l-14.37,26.01c-22.62-2.56-33.94-3.83-33.94-3.83     c-5.2,9.73-7.81,14.6-7.81,14.6c-5.6-2.81-8.4-4.21-8.4-4.21c7.54-13.2,11.3-19.8,11.3-19.8c22.26,2.05,33.38,3.08,33.38,3.08     l12.63-20.87L64.6,185.14z"></path>
			<path id="Path-27_2_" class="st1" d="M46.25,229.26c-11.43,10.32-17.14,15.48-17.14,15.48c3.3,10.16,4.96,15.25,4.96,15.25     c-6.09,1.94-9.13,2.91-9.13,2.91c-3.51-14.05-5.27-21.08-5.27-21.08l18.89-18.27C43.68,227.35,46.25,229.26,46.25,229.26z"></path>
			<path id="Path-28_2_" class="st1" d="M51.43,249.45c18.02,11.75,27.03,17.63,27.03,17.63c-3.47,5.63-5.2,8.45-5.2,8.45     l-27.99-18.45L51.43,249.45z"></path>
			<path id="Path-29_2_" class="st1" d="M12.29,275.53c-4.08,19.19-6.11,28.79-6.11,28.79c5.86,1.43,8.8,2.15,8.8,2.15     c3.52-13.51,5.27-20.27,5.27-20.27c23.57,1.01,35.35,1.51,35.35,1.51l0.87-8.11C27.02,276.89,12.29,275.53,12.29,275.53z"></path>
			<path id="Path-31_2_" class="st1" d="M45.96,368.42c3.07-2.87,5.79-4.3,8.15-4.3s4.57,1.43,6.6,4.3l7-5.83     c-4.21-4.53-8.75-6.79-13.6-6.79s-9.83,2.26-14.92,6.79L45.96,368.42z"></path>
			<path id="Path-32_2_" class="st1" d="M85,340.31c2.84-0.82,5.88-0.82,9.11,0c4.84,1.23,3.75,4.4,8.17,4.4     c6.14-5.01,8.56-10.84,14.76-12.36c4.13-1.02,10.04,0.44,17.72,4.36l2.52,8c0.92,1.69-0.85,2.14-5.31,1.34     c-6.69-1.2-5.79-5.74-12.97-4.61c-7.18,1.14-12,11.25-16.72,12.45c-4.72,1.2-9.45-4.59-11.61-5.24c-1.44-0.44-3.33-0.44-5.67,0     V340.31z"></path>
			<path id="Path-33_2_" class="st1" d="M120.69,322.1c0,0,9.02-4.9,27.07-14.71v-9.82l-31.29,15.99     C119.29,319.26,120.69,322.1,120.69,322.1z"></path>
			<path id="Path-34_2_" class="st1" d="M123.95,381.45l10.03-21.09l12.21,2.75c0-6.03,0-9.04,0-9.04     c-11.72-2.82-17.58-4.22-17.58-4.22l-13.39,27.29L123.95,381.45z"></path>
		</g>
		<g id="Group-Copy-2" transform="translate(8.000000, 1.000000)">
			<polygon id="Path_3_" class="st1" points="59.42,385.56 101.32,368.31 98.05,360.36 55.61,376.92    "></polygon>
			<path id="Path-2_3_" class="st1" d="M25.67,329.08c6.03,8.12,13.25,11.99,21.67,11.62c8.42-0.37,16.8-4.93,25.15-13.68l5.97,5.54     c-10.72,11.95-21.1,17.92-31.12,17.92s-19.86-5.97-29.5-17.92L25.67,329.08z"></path>
			<path id="Path-3_3_" class="st1" d="M49.23,301.55c0.58,3.71-0.56,7.95-3.41,12.72c-2.85,4.77-6.5,8.53-10.93,11.27l5.45,6.81     c8.15-6.13,13.24-11.56,15.27-16.31c2.89-5.83,2.89-12.27,0-19.33L49.23,301.55z"></path>
			<path id="Path-4_3_" class="st1" d="M84.92,269.57l-19.75,32.84l24.65-7.18L77.5,322.1l41.5-17.97     c-2.63-4.95-3.94-7.43-3.94-7.43c-11.76,4.73-17.64,7.1-17.64,7.1c7.3-15.5,10.95-23.25,10.95-23.25     c-15.32,4.56-22.99,6.83-22.99,6.83l7.73-13.39L84.92,269.57z"></path>
			<path id="Path-5_3_" class="st1" d="M102.88,269.49c-6.53-13.77-9.8-20.66-9.8-20.66c9.03-13.05,13.54-19.57,13.54-19.57     c5.11,2.52,7.66,3.78,7.66,3.78c-7.41,10.74-11.11,16.12-11.11,16.12l7.61,16.73C105.51,268.29,102.88,269.49,102.88,269.49z"></path>
			<path id="Path-6_3_" class="st1" d="M120.54,269.57c2.52,2.62,4.9,4.25,7.16,4.89c3.39,0.97,8.43-0.44,8.43-0.44     c-3.04-4.82-4.56-7.23-4.56-7.23c5.42-3.26,8.13-4.89,8.13-4.89c7.36,8.85,11.03,13.27,11.03,13.27     c-5.57,5.82-11.57,8.72-17.99,8.71s-12.93-2.95-19.53-8.8L120.54,269.57z"></path>
			<path id="Path-7_3_" class="st1" d="M135.05,249.45c-15.32-18.78-22.99-28.17-22.99-28.17c9.85-3,14.77-4.5,14.77-4.5     c-4.46-0.94-6.69-1.41-6.69-1.41c1.9-6.37,2.85-9.55,2.85-9.55c16.51,3.78,24.76,5.67,24.76,5.67c-0.18,5.84-0.27,8.76-0.27,8.76     c-12.68,3.59-19.02,5.39-19.02,5.39l14.8,19.36C137.79,247.97,135.05,249.45,135.05,249.45z"></path>
			<path id="Path-8_3_" class="st1" d="M123.75,202.12c6.72-17.18,10.09-25.77,10.09-25.77c-8.06,2.57-12.09,3.85-12.09,3.85     c-2.19-6.05-3.29-9.08-3.29-9.08c20.35-6.88,30.52-10.32,30.52-10.32c-5.84,16.44-8.76,24.66-8.76,24.66     c6.63-3.27,9.95-4.9,9.95-4.9l0.17,9.96C132.61,198.25,123.75,202.12,123.75,202.12z"></path>
			<polygon id="Path-9_3_" class="st1" points="129.91,155.09 146.53,136.9 146.53,123.35 122.56,148.23    "></polygon>
			<path id="Path-10_3_" class="st1" d="M119.68,95.74c17.26,8.07,25.89,12.1,25.89,12.1c8.58-4.01,12.87-6.02,12.87-6.02     c0.22-6.86,0.33-10.29,0.33-10.29c-9.14,4.13-13.72,6.19-13.72,6.19l-21.68-9.9C120.92,93.1,119.68,95.74,119.68,95.74z"></path>
			<path id="Path-11_3_" class="st1" d="M81.86,84.35c6.18,1.36,9.26,2.03,9.26,2.03c1.94-6.12,2.91-9.18,2.91-9.18     c3.34,9.51,5.01,14.26,5.01,14.26c22.55-11.88,33.82-17.83,33.82-17.83c-2.52-4.85-3.79-7.27-3.79-7.27     c-15.79,8.06-23.68,12.09-23.68,12.09L92.53,46.81C85.42,71.84,81.86,84.35,81.86,84.35z"></path>
			<path id="Path-12_3_" class="st1" d="M120.81,40.2c5.04,8.89,9.05,14.67,12.05,17.33c3,2.66,7.13,4.12,12.4,4.38V51.06     c-3.54,0.23-6.67-0.62-9.39-2.54c-2.72-1.92-4.7-4.69-5.96-8.32H120.81z"></path>
			<path id="Path-13_3_" class="st1" d="M145.26,35c-21.37-6.63-32.06-9.95-32.06-9.95c2.94,5.6,4.41,8.39,4.41,8.39     c-6.04,2.66-9.06,4-9.06,4C101.04,19.06,97.28,9.87,97.28,9.87c19.02,6.37,28.54,9.56,28.54,9.56     c-5.93-10.02-8.9-15.03-8.9-15.03L124.7,0L145.26,35z"></path>
			<path id="Path-14_3_" class="st1" d="M75.5,4.63c-1.33,17.59-1.99,26.38-1.99,26.38c18.97,3.43,28.45,5.15,28.45,5.15     c-1.35,5.86-2.02,8.79-2.02,8.79c-24.11-3.29-36.17-4.93-36.17-4.93L67.1,3.25C72.7,4.17,75.5,4.63,75.5,4.63z"></path>
			<polygon id="Path-15_3_" class="st1" points="18.69,13.14 48.27,13.14 48.27,4.49 18.69,4.49    "></polygon>
			<path id="Path-16_3_" class="st1" d="M17.99,22.99l-1.16,8.45l26.86,3.13c-1.48,19.1-2.22,28.65-2.22,28.65l8.65,1.06l3.86-36.42     C29.99,24.61,17.99,22.99,17.99,22.99z"></path>
			<path id="Path-17_3_" class="st1" d="M79.44,49C62.97,61.67,54.74,68,54.74,68c3.8,4.6,5.7,6.89,5.7,6.89l25.04-19.23     C81.45,51.22,79.44,49,79.44,49z"></path>
			<path id="Path-18_3_" class="st1" d="M34.77,105.89c-5.72-8.74-8.58-13.1-8.58-13.1c19.06,5.85,28.59,8.78,28.59,8.78     c-8.34-18.23-12.52-27.34-12.52-27.34c-5.33,1.7-7.99,2.55-7.99,2.55c2.67,6.34,4,9.51,4,9.51C15.12,79.15,3.55,75.58,3.55,75.58     l23.1,35.69C32.06,107.68,34.77,105.89,34.77,105.89z"></path>
			<path id="Path-19_3_" class="st1" d="M63.76,106.26c0.87-3.24,2.17-5.34,3.92-6.3c1.75-0.96,4.27-0.96,7.57,0l1.66-10.01     c-7.65-0.55-13.44,0.7-17.38,3.76c-3.94,3.06-5.81,7.76-5.63,14.1L63.76,106.26z"></path>
			<path id="Path-20_3_" class="st1" d="M76.91,116.39l13.01,14.32c-23.43-2.96-35.14-4.43-35.14-4.43     c-0.48,5.58-0.71,8.37-0.71,8.37c19.27,3.09,28.91,4.64,28.91,4.64c1.97,17.69,2.96,26.53,2.96,26.53     c18.12,2.97,27.18,4.45,27.18,4.45c2-5.52,3-8.28,3-8.28c-13.94-2.71-20.91-4.06-20.91-4.06c-1.26-17.34-1.89-26.01-1.89-26.01     c9.47-7.48,14.2-11.22,14.2-11.22c6.53,8.88,9.8,13.31,9.8,13.31c5.48-3.4,8.22-5.1,8.22-5.1     c-10.27-14.52-15.41-21.78-15.41-21.78c-11.57,8.27-17.35,12.4-17.35,12.4l-8.62-8.97L76.91,116.39z"></path>
			<path id="Path-21_3_" class="st1" d="M23.12,121.43c3.49,5.54,8.19,10.25,14.1,14.12s12.92,6.85,21.03,8.91     c-1.23,5.76-1.84,8.63-1.84,8.63c-9.36-2.04-17.49-5.28-24.37-9.7c-6.88-4.43-12.44-9.99-16.66-16.68L23.12,121.43z"></path>
			<path id="Path-22_3_" class="st1" d="M46.25,162.63l-26.79-0.86l6.14,18.26l-8.76,4.39c-7.81-21.95-11.72-32.93-11.72-32.93     c6.53,0.5,9.79,0.75,9.79,0.75l5.58-7.6C37.66,156.63,46.25,162.63,46.25,162.63z"></path>
			<path id="Path-23_3_" class="st1" d="M38.69,174.63c7.68-1.52,15.75-1.8,24.2-0.83c12.67,1.45,21.65,6.09,21.65,6.09     c2.39-5.45,3.59-8.18,3.59-8.18c-8.93-3.63-17.18-5.89-24.74-6.79c-7.56-0.9-16.47-0.67-26.71,0.69     C38.02,171.63,38.69,174.63,38.69,174.63z"></path>
			<path id="Path-24_3_" class="st1" d="M88.13,193.9c3.22-0.58,5.62-0.31,7.21,0.8c1.59,1.11,2.22,2.96,1.89,5.55h9.73     c-0.78-5.77-2.76-9.78-5.94-12.05s-8.11-3.17-14.79-2.72L88.13,193.9z"></path>
			<polygon id="Path-25_3_" class="st1" points="84.28,212.83 75,217.92 88.13,229.26 63.35,242.17 58.25,235.02 72.24,227.63      60.03,216.91 79.57,205.81    "></polygon>
			<path id="Path-26_3_" class="st1" d="M64.6,185.14l-14.37,26.01c-22.62-2.56-33.94-3.83-33.94-3.83     c-5.2,9.73-7.81,14.6-7.81,14.6c-5.6-2.81-8.4-4.21-8.4-4.21c7.54-13.2,11.3-19.8,11.3-19.8c22.26,2.05,33.38,3.08,33.38,3.08     l12.63-20.87L64.6,185.14z"></path>
			<path id="Path-27_3_" class="st1" d="M46.25,229.26c-11.43,10.32-17.14,15.48-17.14,15.48c3.3,10.16,4.96,15.25,4.96,15.25     c-6.09,1.94-9.13,2.91-9.13,2.91c-3.51-14.05-5.27-21.08-5.27-21.08l18.89-18.27C43.68,227.35,46.25,229.26,46.25,229.26z"></path>
			<path id="Path-28_3_" class="st1" d="M51.43,249.45c18.02,11.75,27.03,17.63,27.03,17.63c-3.47,5.63-5.2,8.45-5.2,8.45     l-27.99-18.45L51.43,249.45z"></path>
			<path id="Path-29_3_" class="st1" d="M25.68,275.53c-4.08,19.19-6.11,28.79-6.11,28.79c5.86,1.43,8.8,2.15,8.8,2.15     c3.52-13.51,5.27-20.27,5.27-20.27c23.57,1.01,35.35,1.51,35.35,1.51l0.87-8.11C40.41,276.89,25.68,275.53,25.68,275.53z"></path>
			<path id="Path-31_3_" class="st1" d="M50.42,363.1c3.07-2.87,5.79-4.3,8.15-4.3s4.57,1.43,6.6,4.3l7-5.83     c-4.21-4.53-8.75-6.79-13.6-6.79s-9.83,2.26-14.92,6.79L50.42,363.1z"></path>
			<path id="Path-32_3_" class="st1" d="M85,340.31c2.84-0.82,5.88-0.82,9.11,0c4.84,1.23,3.75,4.4,8.17,4.4     c6.14-5.01,8.56-10.84,14.76-12.36c4.13-1.02,10.04,0.44,17.72,4.36l2.52,8c0.92,1.69-0.85,2.14-5.31,1.34     c-6.69-1.2-5.79-5.74-12.97-4.61c-7.18,1.14-12,11.25-16.72,12.45c-4.72,1.2-9.45-4.59-11.61-5.24c-1.44-0.44-3.33-0.44-5.67,0     V340.31z"></path>
			<path id="Path-33_3_" class="st1" d="M120.69,322.1c0,0,9.02-4.9,27.07-14.71v-9.82l-31.29,15.99     C119.29,319.26,120.69,322.1,120.69,322.1z"></path>
			<path id="Path-34_3_" class="st1" d="M123.95,381.45l10.03-21.09l12.21,2.75c0-6.03,0-9.04,0-9.04     c-11.72-2.82-17.58-4.22-17.58-4.22l-13.39,27.29L123.95,381.45z"></path>
		</g>
		<path id="Path-30-Copy" class="st1" d="M162.42,354.71l9.48-15.31l8.87,3.91c-3.26,6.27-4.9,9.41-4.9,9.41l16.26,10.65    l-16.38,22.33l-6.41-7.8l8.04-11.4L162.42,354.71z"></path>
	</g>
</g>
</svg>