<svg xmlns="http://www.w3.org/2000/svg" xmlns:xlink="http://www.w3.org/1999/xlink" id="Layer_1" x="0px" y="0px" viewBox="0 0 600 600" style="enable-background:new 0 0 600 600;" xml:space="preserve">
<style type="text/css">
	.st0{fill:#0143A9;}
	.st1{fill:#0C54C2;}
	.st2{opacity:0;}
	.st3{fill:none;stroke:#0C54C2;stroke-width:2;stroke-linecap:round;stroke-linejoin:round;stroke-miterlimit:10.0001;}
	.st4{fill:none;stroke:#0C54C2;stroke-width:2;stroke-linecap:round;stroke-linejoin:round;stroke-miterlimit:10;}
	.st5{fill:none;stroke:#0C54C2;stroke-width:2;stroke-miterlimit:10;}
	.st6{fill:none;stroke:#0C54C2;stroke-width:2;stroke-linejoin:round;stroke-miterlimit:10;}
	.st7{fill:none;stroke:#0C54C2;stroke-width:0.5;stroke-miterlimit:10;}
	.st8{display:none;}
	.st9{display:inline;}
	.st10{fill:none;stroke:#88B6E5;stroke-width:0.25;stroke-miterlimit:10;}
</style>
<g id="Layer_1_1_">
	<g>
		<circle class="st0" cx="300" cy="300" r="300"></circle>
	</g>
</g>
<g id="Layer_3">
	<g id="Layer_2_1_">
		<g>
			<g>
				<path class="st1" d="M235.9,108.1c-1.8-2.4-4.8-3.5-7.7-2.8c-0.2-0.8-0.6-1.5-1.1-2.2c-2.1-2.8-6.1-3.4-8.9-1.2      c-0.5,0.4-1,0.9-1.4,1.5c-1-0.1-2.1-0.1-3.1,0.2c-2.3-1.8-5.2-2.8-8.1-3c-3.2-0.1-6.5,0.9-9,2.8l-2.5,1.9      c-3.4-3.6-8.9-4.1-12.9-1.1l-9.6,7.2c-4,3-5,8.5-2.5,12.7l-9.8,7.4l0,0c-2,1.5-2.4,4.5-0.9,6.5l23.1,30.7      c0.2,0.2,0.3,0.4,0.5,0.6l0.1,0.1c0.1,0.1,0.1,0.1,0.2,0.2c0.4,0.4,0.9,0.8,1.4,1.1c2.7,1.6,6.2,1.5,8.8-0.4l3.8-2.9l0,0      l37.4-28.2c2.7-2.1,3.3-5.9,1.2-8.7l-0.4-0.6c0.7-0.3,1.4-0.6,2-1.1c3.3-2.5,4-7.3,1.5-10.6c-0.4-0.6-1-1.1-1.6-1.6      C237.9,114,237.8,110.6,235.9,108.1z M173.1,113.5l9.6-7.2c2.8-2.1,6.7-1.8,9.2,0.6l-20.8,15.7      C169.5,119.5,170.3,115.6,173.1,113.5z M176.9,136l18.4,24.4c1.2,1.6,0.9,3.8-0.7,4.9l-3.8,2.9c-1.7,1.3-3.9,1.4-5.7,0.4l0,0      l0,0c-0.4-0.2-0.7-0.4-1-0.7c-0.1,0-0.1-0.1-0.2-0.2l0,0c-0.1-0.1-0.2-0.3-0.3-0.4l-23.1-30.6c-0.7-0.9-0.5-2.1,0.4-2.8l0,0      C165.8,129.9,173,130.9,176.9,136z M232,137.1l-33.4,25.2c0-1.2-0.5-2.4-1.2-3.5L179,134.4c-2.9-3.8-7.3-5.7-11.7-5.6l30.8-23.3      c3.7-2.8,8.8-3,12.7-0.8c-0.1,0.1-0.3,0.2-0.4,0.3c-3.1,2.3-4.2,6.3-3,9.8c-0.9,0.2-1.6,0.5-2.4,1c-1.8,1.3-2.6,3.6-2.1,5.6      c-2.1,0.2-4.1,1-5.8,2.3c-5.1,3.8-6.1,11.1-2.3,16.2c3.8,5.1,11.1,6.1,16.2,2.3c1.2-0.9,2.2-2,2.9-3.2c2.4,0.7,5,0.2,7.1-1.2      c2.8,1.4,6.2,1.1,8.7-0.8c1.5-1.2,2.6-2.8,3-4.6C233.8,133.9,233.4,135.9,232,137.1z M233.4,116.1L233.4,116.1      C233.3,116.1,233.3,116.2,233.4,116.1c-0.1,0.1-0.1,0.1-0.1,0.1s0,0,0,0.1c0,0,0,0,0,0.1l0,0c0,0,0,0,0,0.1l0,0l0,0v0.1l0,0      c0,0,0,0,0,0.1c0,0,0,0,0,0.1c0,0,0,0,0,0.1c0,0,0,0,0,0.1l0,0c0,0,0,0,0,0.1c0,0,0,0,0,0.1c0,0,0,0,0,0.1c0,0,0,0,0,0.1      c0,0,0,0,0,0.1c0,0,0,0,0,0.1c0,0,0,0,0,0.1v0.1c0,0,0,0,0,0.1s0,0.1,0,0.1s0,0,0,0.1c0,0,0,0,0,0.1l0,0c0,0,0,0,0,0.1      s0,0,0,0.1l0,0c0,0,0,0,0.1,0l0,0l0,0c0,0,0,0,0.1,0c0,0,0,0,0.1,0l0,0c0,0,0,0,0.1,0l0,0h0.1l0,0c0.8,0.3,1.4,0.9,1.9,1.5      c1.6,2.2,1.2,5.3-1,6.9c-0.9,0.7-2,1-3.1,1h-0.1c-0.1,0-0.3,0-0.4,0.1l0,0H231h-0.1l0,0c0,0-0.1,0-0.1,0.1l0,0      c0,0-0.1,0-0.1,0.1l0,0c0,0,0,0-0.1,0.1l0,0c0,0,0,0,0,0.1l0,0l0,0c0,0,0,0,0,0.1l0,0c0,0,0,0,0,0.1c0,0,0,0,0,0.1      c0,0,0,0,0,0.1v0.1l0,0c0,0.1,0,0.3,0,0.4v0.1c0.4,2.1-0.5,4.2-2.2,5.5c-1.9,1.4-4.5,1.5-6.5,0.2l0,0c0,0,0,0-0.1,0l0,0      c0,0,0,0-0.1,0c0,0,0,0-0.1,0c0,0,0,0-0.1,0c0,0,0,0-0.1,0c0,0,0,0-0.1,0c0,0,0,0-0.1,0c0,0,0,0-0.1,0l0,0c0,0,0,0-0.1,0l0,0      c0,0,0,0-0.1,0l0,0h-0.1l0,0h-0.1l0,0h-0.1l0,0h-0.1l0,0c0,0,0,0-0.1,0c0,0,0,0-0.1,0s0,0,0,0s0,0-0.1,0l0,0      c-0.1,0.1-0.3,0.2-0.4,0.3c-1.6,1.2-3.8,1.5-5.7,0.6c-0.9-0.4-1.6-1-2.2-1.8l0,0l4.1-2.3c0,0,0.1,0,0.2-0.1      c0.5-0.4,0.7-1.1,0.4-1.7c-0.4-0.6-1.2-0.9-1.8-0.5l-13.4,7.6c-0.6,0.4-0.9,1.2-0.5,1.8s1.2,0.9,1.8,0.5l7-4      c0,0.1,0.1,0.2,0.2,0.3c0.6,0.7,1.2,1.4,2,1.9c-0.6,0.8-1.3,1.6-2.1,2.2c-3.9,3-9.5,2.2-12.5-1.7s-2.2-9.5,1.7-12.5      c1.6-1.2,3.5-1.8,5.4-1.8c0.6,0.7,1.4,1.3,2.3,1.6l-8.4,7.4c-0.5,0.5-0.6,1.3-0.1,1.9c0.5,0.5,1.2,0.6,1.8,0.2      c0,0,0.1,0,0.1-0.1l10.8-9.6c0.5-0.4,0.6-1.1,0.3-1.7c-0.3-0.5-1-0.8-1.6-0.6c-1.2,0.4-2.6,0-3.4-1c0-0.1-0.1-0.1-0.1-0.2      c-0.9-1.3-0.6-3.1,0.7-4.1c0.7-0.6,1.7-0.7,2.6-0.5l0,0c0,0,0,0,0.1,0c0,0,0,0,0.1,0c0,0,0,0,0.1,0c0,0,0,0,0.1,0c0,0,0,0,0.1,0      c0,0,0,0,0.1,0c0,0,0,0,0.1,0c0,0,0,0,0.1,0c0,0,0,0,0.1,0c0,0,0,0,0.1,0c0,0,0,0,0.1,0c0,0,0,0,0.1,0s0.1,0,0.1,0s0,0,0.1,0      c0,0,0,0,0.1,0c0,0,0,0,0.1,0l0,0l0,0l0,0l0,0l0,0c0,0,0,0,0.1,0c0,0,0,0,0.1,0s0,0,0,0s0,0,0-0.1l0,0c0,0,0,0,0-0.1s0,0,0,0      s0,0,0-0.1l0,0v-0.1l0,0v-0.1l0,0l0,0v-0.1l0,0c0,0,0,0,0-0.1c0,0,0,0,0-0.1c0,0,0,0,0-0.1s0,0,0-0.1c0,0,0,0,0-0.1      c0,0,0,0,0-0.1c0,0,0,0,0-0.1c0,0,0,0,0-0.1v-0.1c0,0,0,0,0-0.1v-0.1c0,0,0,0,0-0.1c0,0,0,0,0-0.1c0,0,0,0,0-0.1l0,0      c-1.8-2.7-1.2-6.3,1.4-8.3c1.5-1.1,3.3-1.5,5.1-1.1c0.1,0,0.3,0,0.4,0c0,0,0,0,0.1,0c0,0,0,0,0.1,0c0,0,0,0,0.1,0c0,0,0,0,0.1,0      c0,0,0,0,0.1,0s0.1,0,0.1,0l0,0h0.1l0,0h0.1l0,0c0.1-0.1,0.2-0.1,0.3-0.2l0,0c0,0,0,0,0.1-0.1s0.1-0.1,0.1-0.2      c0.3-0.5,0.6-1,1.1-1.4c1.6-1.2,4-0.9,5.2,0.7c0.5,0.7,0.8,1.5,0.7,2.3l0,0v0.1c0,0,0,0,0,0.1c0,0,0,0,0,0.1c0,0,0,0,0,0.1      c0,0,0,0,0,0.1v0.1l0,0v0.1l0,0l0,0v0.1l0,0c0,0,0,0,0,0.1c0.1,0.1,0.2,0.2,0.3,0.3l0,0c0,0,0,0,0.1,0l0,0l0,0      c0.1,0.1,0.2,0.1,0.4,0.1c0,0,0,0,0.1,0l0,0h0.1l0,0l0,0c0.1,0,0.2,0,0.2,0l0,0c0.1,0,0.1,0,0.2,0l0,0c0.1,0,0.1,0,0.1-0.1      c2.1-1,4.7-0.4,6.1,1.5C235.2,111.7,235,114.4,233.4,116.1z"></path>
			</g>
			<g>
				<path class="st1" d="M216,109.7c-2.3,1.7-2.8,5-1,7.4c0.4,0.6,1.3,0.7,1.9,0.3s0.7-1.3,0.3-1.9c-0.9-1.1-0.6-2.8,0.5-3.7      c1.2-0.9,2.8-0.6,3.7,0.5c0.9,1.2,0.6,2.8-0.5,3.7c-0.6,0.4-0.7,1.3-0.3,1.9c0.4,0.6,1.3,0.7,1.9,0.3c2.3-1.7,2.8-5,1-7.4      C221.6,108.4,218.3,108,216,109.7z"></path>
			</g>
			<g>
				<path class="st1" d="M221.3,120.7c-1.4,0.2-2.6,0.9-3.5,2c-0.4,0.6-0.3,1.4,0.2,1.9c0.6,0.4,1.4,0.3,1.9-0.2      c0.4-0.6,1-0.9,1.7-1s1.4,0.1,1.9,0.5c0.6,0.4,0.9,1,1,1.7s-0.1,1.4-0.5,1.9s-1,0.9-1.7,1s-1.4-0.1-1.9-0.5      c-0.6-0.4-1.4-0.3-1.9,0.2c-0.4,0.6-0.3,1.4,0.2,1.9c1.1,0.9,2.5,1.2,3.9,1c0.9-0.1,1.8-0.5,2.5-1c0.4-0.3,0.7-0.6,1-1      c0.9-1.1,1.2-2.5,1-3.9s-0.9-2.6-2-3.5C224.1,120.9,222.7,120.6,221.3,120.7z"></path>
			</g>
			<g>
				<circle class="st1" cx="181" cy="127.6" r="2.1"></circle>
			</g>
			<g>
				<circle class="st1" cx="186.6" cy="123.4" r="2.1"></circle>
			</g>
			<g>
				<circle class="st1" cx="192.2" cy="119.1" r="2.1"></circle>
			</g>
		</g>
	</g>
	<g>
		<g>
			<path class="st1" d="M380,105.7c1-1.5,3-1.9,4.4-0.9l10.2,6.8c1.5,1,1.9,3,0.9,4.4l-3.4,5.1l1.9,1.3l3.4-5.1c1.7-2.5,1-6-1.5-7.7     l-0.2-0.2l3.7-5.6c0.8-1.2,0.5-2.8-0.7-3.6l-5.3-3.6c-1.2-0.8-2.8-0.5-3.6,0.7L386,103l-0.2-0.2c-2.5-1.7-6-1-7.7,1.5l-4,6.1     l1.9,1.3L380,105.7z M391.6,98.7c0.1-0.1,0.3-0.2,0.4-0.1l5.3,3.6c0.1,0.1,0.2,0.3,0.1,0.4l-3.7,5.6l-5.8-3.9L391.6,98.7z"></path>
		</g>
		<g>
			<path class="st1" d="M389.6,120.8l2.4-3.6c0.8-1.2,0.5-2.8-0.7-3.6l-7.3-4.8c-1.2-0.8-2.8-0.5-3.6,0.7l-2.4,3.6l1.9,1.3l2.4-3.6     c0.1-0.1,0.3-0.2,0.4-0.1l7.3,4.8c0.1,0.1,0.2,0.3,0.1,0.4l-2.4,3.6L389.6,120.8z"></path>
		</g>
		<g>
			<path class="st1" d="M365,132.5c-1.6-1.1-3.8-0.6-4.9,1s-0.6,3.8,1,4.9c1.6,1.1,3.8,0.6,4.9-1l0,0     C367,135.7,366.6,133.5,365,132.5z M362.4,136.4c-0.5-0.4-0.7-1.1-0.3-1.6s1.1-0.7,1.6-0.3s0.7,1.1,0.3,1.6     C363.7,136.6,362.9,136.7,362.4,136.4z"></path>
		</g>
		<g>
			<path class="st1" d="M400,111.5c-0.1,0.3,0,0.7,0.2,0.9l2.3,2.9c0.3,0.4,0.8,0.5,1.2,0.4l9-2.4l-1.3,2l-12.9,5     c-0.2,0.1-0.4,0.2-0.5,0.4l-1.9,2.9l1.9,1.3l1.7-2.6l12.4-4.8l4.6,3l-3.2,10.7l-2.5,3.7l1.9,1.3l2.6-3.9c0.1-0.1,0.1-0.2,0.1-0.3     l3.5-11.5l2.5-3.7l0,0l0,0l0,0l0,0l0,0l0,0l0,0l0,0c0.1-0.2,0.1-0.3,0.1-0.5l0.6-9.4c0-0.4-0.2-0.8-0.5-1l-11.7-7.8     c-0.5-0.4-1.3-0.2-1.6,0.3l-1.9,2.9c-0.3,0.4-0.3,1,0.1,1.4l1.1,1.4l-0.2,0.1c-0.5,0.4-0.7,1.1-0.3,1.6l0.1,0.1l0.2,0.2l-7.1,4.5     C400.3,110.9,400.1,111.2,400,111.5L400,111.5z M413.8,115.9l1.3-1.9l3.9,2.6l-1.3,1.9L413.8,115.9z M413.5,103.1l6.5,4.4     l-0.4,6.7l-4-2.7l-5.5-6L413.5,103.1z M409.1,102l0.8-1.2l1.5,1l-1.6,1.1L409.1,102z M409.2,108l2.8,3.1l-8.1,2.2l-1-1.3     L409.2,108z"></path>
		</g>
		<g>
			<path class="st1" d="M416.7,166.1v-11.8c0-0.9-0.4-1.7-1.2-2.2l-1.3-0.9l20-30.1l-1.9-1.3l-20,30.1l-1.9-1.3l24.4-36.7     c0.1-0.1,0.3-0.2,0.4-0.1l1.5,1c0.1,0.1,0.2,0.3,0.1,0.4l-3.1,4.6l1.9,1.3l3.1-4.6c0.8-1.2,0.5-2.8-0.7-3.6l-1.5-1     c-1.2-0.8-2.8-0.5-3.6,0.7l-19.2,28.9l-10.7-7.1c0.4-0.5,0.2-1.3-0.3-1.6l-16.5-11c-0.5-0.4-1.3-0.2-1.6,0.3l-13.6-9     c-0.5-0.4-1.3-0.2-1.6,0.3l-1,1.5c-1.3,1.9-0.7,4.4,1.1,5.7l0.5,0.3l-2.6,3.9l1.9,1.3l2.6-3.9l8.7,5.8l-7.8,11.7     c-0.4,0.5-0.2,1.3,0.3,1.6l11.7,7.8l1.3-1.9l-10.7-7.1l1.9-2.9l14.6,9.7l-1.9,2.9l-1.9-1.3l-1.3,1.9l2.9,1.9     c0.5,0.4,1.3,0.2,1.6-0.3l7.8-11.7l10.7,7.1l-1.3,1.9l-1.3-0.9c-0.7-0.5-1.7-0.6-2.5-0.2l-10.9,4.6c-0.2,0.1-0.4,0.2-0.5,0.4     L388,159l-23.4-15.6c4.4-0.8,7.3-5.1,6.5-9.6c-0.5-2.6-2.2-4.7-4.5-5.8l1.3-2l-1.9-1.3l-1.7,2.6c-4.5-0.6-8.6,2.4-9.3,6.9     c-0.4,3.1,0.9,6.2,3.6,8c0.2,0.1,0.3,0.2,0.5,0.3l0,0l50,33.3c0.5,0.4,1.3,0.2,1.6-0.3l5.8-8.7     C416.6,166.5,416.6,166.3,416.7,166.1z M400.2,132.1l-4.5,6.8l-14.6-9.7l4.5-6.8L400.2,132.1z M370.6,116.6     c-0.8-0.5-1-1.6-0.5-2.4l0.3-0.5l12.6,8.4l-1.3,1.9L370.6,116.6z M378.6,133.1l1.3-1.9l14.6,9.7l-1.3,1.9L378.6,133.1z      M400.2,136.3l1.3-1.9l10.7,7.1l-1.3,1.9L400.2,136.3z M358.2,132.2c1.8-2.7,5.4-3.4,8.1-1.6c2.7,1.8,3.4,5.4,1.6,8.1     c-1.8,2.7-5.4,3.4-8.1,1.6C357.1,138.5,356.4,134.8,358.2,132.2z M405.5,148.4c0.1,0,0.2,0,0.3,0l8.4,5.6     c0.1,0.1,0.1,0.1,0.1,0.2v11.1l-19.1-12.7L405.5,148.4z M405.5,170.6l2.6-3.9l-1.9-1.3l-2.6,3.9l-2.9-1.9l2.6-3.9l-1.9-1.3     l-2.6,3.9l-2.9-1.9l2.6-3.9l-1.9-1.3l-2.6,3.9l-3.9-2.6l3.9-5.8l19.4,12.9l-3.9,5.8L405.5,170.6z"></path>
		</g>
		<g>
			
				<rect x="403.3" y="152" transform="matrix(0.5538 -0.8327 0.8327 0.5538 52.9645 405.1329)" class="st1" width="2.3" height="2.3"></rect>
		</g>
		<g>
			
				<rect x="409.2" y="155.9" transform="matrix(0.5538 -0.8327 0.8327 0.5538 52.3091 411.7355)" class="st1" width="2.3" height="2.3"></rect>
		</g>
		<g>
			
				<rect x="434" y="129" transform="matrix(0.5538 -0.8327 0.8327 0.5538 85.8141 420.4439)" class="st1" width="2.3" height="2.3"></rect>
		</g>
		<g>
			
				<rect x="431.5" y="132.9" transform="matrix(0.5538 -0.8327 0.8327 0.5538 81.4094 420.0383)" class="st1" width="2.3" height="2.3"></rect>
		</g>
		<g>
			
				<rect x="430.8" y="129.6" transform="matrix(0.5538 -0.8327 0.8327 0.5538 83.866 417.9962)" class="st1" width="2.3" height="2.3"></rect>
		</g>
		<g>
			
				<rect x="434.7" y="132.2" transform="matrix(0.5538 -0.8327 0.8327 0.5538 83.4605 422.4009)" class="st1" width="2.3" height="2.3"></rect>
		</g>
		<g>
			
				<rect x="392.6" y="86" transform="matrix(0.5538 -0.8327 0.8327 0.5538 103.1645 366.7302)" class="st1" width="2.3" height="2.3"></rect>
		</g>
		<g>
			
				<rect x="390" y="89.9" transform="matrix(0.5538 -0.8327 0.8327 0.5538 98.7598 366.3246)" class="st1" width="2.3" height="2.3"></rect>
		</g>
		<g>
			
				<rect x="389.3" y="86.6" transform="matrix(0.5538 -0.8327 0.8327 0.5538 101.1224 364.2736)" class="st1" width="2.3" height="2.3"></rect>
		</g>
		<g>
			
				<rect x="393.2" y="89.2" transform="matrix(0.5538 -0.8327 0.8327 0.5538 100.7169 368.6783)" class="st1" width="2.3" height="2.3"></rect>
		</g>
	</g>
	<g>
		<g id="Layer_1_2_">
			<g id="Floor_Scrubber">
				<g>
					<g>
						<circle class="st1" cx="473.9" cy="316" r="2.3"></circle>
					</g>
				</g>
				<g>
					<g>
						<path class="st1" d="M534.4,330.3v-11.5c0-1.4-0.9-2.7-2.2-3.2l-6.9-2.6c-0.6-0.2-1.3-0.4-2-0.4h-34.6v-2.3        c0-0.6-0.5-1.1-1.1-1.1h-3.4v-9H507v1.1c0,0.6,0.5,1.1,1.1,1.1h4.6v1.1c0,0.6,0.5,1.1,1.1,1.1h4.6c1.9,0,3.4-1.5,3.4-3.4        v-29.7c0-1.9-1.5-3.4-3.4-3.4h-4.6c-0.6,0-1.1,0.5-1.1,1.1v1.1h-4.6c-0.6,0-1.1,0.5-1.1,1.1v1.1h-22.8v-1.1        c0-0.6-0.5-1.1-1.1-1.1h-4.6c-0.2-1.3-1.2-2.3-2.4-2.7l-6.3-1.8c-0.3-0.1-0.7,0-1,0.2s-0.5,0.6-0.5,0.9v1.1H466v2.3h2.3v1.1        H466v2.3h2.3v1.1H466v2.3h2.3v1.1H466v2.3h2.3v1.1H466v2.3h2.3v1.1H466v2.3h2.3v1.1H466v2.3h2.3v1.1H466v2.3h2.3v1.1H466v2.3        h2.3v1.1H466v2.3h2.3v1.1H466v2.3h2.3v1.1c0,0.4,0.2,0.7,0.5,0.9c0.3,0.2,0.7,0.3,1,0.2l6.3-1.8c0.1,0,0.1-0.1,0.2-0.1v3.4        c-0.7-0.2-1.5-0.3-2.3-0.3c-4.4,0-8,3.6-8,8s3.6,8,8,8c0.8,0,1.5-0.1,2.3-0.3v0.3c0,0.6,0.5,1.1,1.1,1.1h5.7        c0.6,0,1.1-0.5,1.1-1.1v-1.1h3.4c0.6,0,1.1-0.5,1.1-1.1v-2.3h30.5c0.9,0,1.7,0.1,2.5,0.4l4.7,1.6v8.9c0,2.2,1.8,4,4,4        S534.4,332.5,534.4,330.3L534.4,330.3z M516.1,314.8v2.3h-2.3v-2.3H516.1z M511.6,314.8v2.3h-22.8v-2.3H511.6z M515,270.3h3.4        c0.6,0,1.1,0.5,1.1,1.1v29.7c0,0.6-0.5,1.1-1.1,1.1H515V270.3z M481.9,300h-3.4v-27.4h3.4V300z M484.2,274.8H507v23h-22.8        V274.8z M509.3,272.6h3.4V300h-3.4V272.6z M470.5,268.4l4.9,1.4c0.5,0.1,0.8,0.6,0.8,1.1v30.8c0,0.5-0.3,1-0.8,1.1l-4.9,1.4        V268.4z M468.2,316c0-3.2,2.6-5.7,5.7-5.7s5.7,2.6,5.7,5.7s-2.6,5.7-5.7,5.7S468.2,319.1,468.2,316z M481.9,322.8h-3.4v-0.3        c3.6-2.5,4.5-7.5,2-11.1c-0.5-0.8-1.2-1.5-2-2v-7.1h3.4V322.8z M486.4,320.6h-2.3v-9.1h2.3V320.6z M528.7,330.3v-8.9        c0-1-0.6-1.9-1.6-2.2l-4.7-1.6c-1.1-0.3-2.2-0.5-3.3-0.5h-0.8v-2.3h4.9c0.4,0,0.8,0.1,1.2,0.2l6.9,2.6        c0.4,0.2,0.7,0.6,0.7,1.1v11.5c0,0.9-0.8,1.7-1.7,1.7S528.7,331.2,528.7,330.3z"></path>
					</g>
				</g>
			</g>
		</g>
		<g id="Layer_2_2_">
			<g>
				<g>
					<rect x="464.4" y="263.5" class="st1" width="0.7" height="73.1"></rect>
				</g>
			</g>
			<g>
				<g>
					<g>
						<g>
							<rect x="465.1" y="263.5" class="st1" width="0.7" height="0.9"></rect>
						</g>
					</g>
					<g>
						<g>
							<path class="st1" d="M465.1,333.9v-1.7h0.7v1.7H465.1z M465.1,330.5v-1.7h0.7v1.7H465.1z M465.1,327v-1.7h0.7v1.7H465.1z          M465.1,323.5v-1.7h0.7v1.7H465.1z M465.1,320v-1.7h0.7v1.7H465.1z M465.1,316.5v-1.7h0.7v1.7H465.1z M465.1,313.1v-1.7h0.7         v1.7H465.1z M465.1,309.6v-1.7h0.7v1.7H465.1z M465.1,306.1v-1.7h0.7v1.7H465.1z M465.1,302.6v-1.7h0.7v1.7H465.1z          M465.1,299.1v-1.7h0.7v1.7H465.1z M465.1,295.6v-1.7h0.7v1.7H465.1z M465.1,292.2v-1.7h0.7v1.7H465.1z M465.1,288.7V287h0.7         v1.7H465.1z M465.1,285.2v-1.7h0.7v1.7H465.1z M465.1,281.7V280h0.7v1.7H465.1z M465.1,278.2v-1.7h0.7v1.7H465.1z          M465.1,274.8V273h0.7v1.7L465.1,274.8L465.1,274.8z M465.1,271.3v-1.7h0.7v1.7H465.1z M465.1,267.8v-1.7h0.7v1.7H465.1z"></path>
						</g>
					</g>
					<g>
						<g>
							<rect x="465.1" y="335.7" class="st1" width="0.7" height="0.9"></rect>
						</g>
					</g>
				</g>
			</g>
		</g>
	</g>
	<g id="Layer_1_3_">
		<g>
			<g>
				<path class="st1" d="M388.4,483l24.5-15.9c2.6-1.7,6.4-0.9,8.1,1.7c0.1,0.2,0.2,0.3,0.2,0.3l15.1,27.9c1.3,2.8,0.5,6.1-2.1,7.8      l-19.9,12.9c-2.6,1.7-6,1.1-7.8-1.4l-19.5-25c-1.9-2.5-1.5-6.2,1.1-8.2C388.3,483.3,388.4,483,388.4,483L388.4,483z       M432.7,502.7c1.4-0.9,1.9-2.7,1-4.1l-15.1-27.9c-0.7-1.5-2.9-2.1-4.4-1.4l-0.2,0.1l-24.3,15.7c-1.4,0.9-1.8,2.9-0.9,4.3      l0.1,0.2l19.4,25.4c1.1,1.3,2.8,1.7,4.2,0.7C412.6,515.8,432.7,502.7,432.7,502.7z"></path>
			</g>
			<g>
				<path class="st1" d="M373.2,469.5l33.6-21.8c1.6-1,3.9-0.5,4.9,1l4.6,7.2c1,1.6,0.5,3.9-1,4.9l-33.6,21.8c-1.6,1-3.9,0.5-4.9-1      l-4.6-7.2C371.1,472.9,371.6,470.6,373.2,469.5z M413.9,458.8c0.5-0.3,0.6-0.9,0.3-1.4l-4.6-7.2c-0.3-0.5-0.9-0.6-1.4-0.3      l-33.6,21.8c-0.5,0.3-0.6,0.9-0.3,1.4l4.6,7.2c0.3,0.5,0.9,0.6,1.4,0.3L413.9,458.8z"></path>
			</g>
			<g>
				<path class="st1" d="M373.4,477.1l1.4-0.9l1.5,2.3l-1.4,0.9c-1.9,1.2-2.5,3.8-1.2,5.8l2.6,4l-2.3,1.5l-2.6-4      C369.5,483.4,370.2,479.2,373.4,477.1z"></path>
			</g>
			<g>
				<path class="st1" d="M374.5,488.8c2.6-1.7,6.1-1,7.8,1.7c1.7,2.6,1,6.1-1.7,7.8c-2.6,1.7-6.1,1-7.8-1.7l0,0      C371.1,494,371.9,490.5,374.5,488.8z M379,495.8c1.4-0.9,1.8-2.6,0.9-4s-2.6-1.8-4-0.9c-1.4,0.9-1.8,2.6-0.9,4l0,0      C375.9,496.3,377.6,496.7,379,495.8z"></path>
			</g>
			<g>
				<path class="st1" d="M412.2,452l1.4-0.9c3.1-2,7.2-1.2,9.2,2l2.6,4l-2.3,1.5l-2.6-4c-1.2-1.9-3.8-2.5-5.8-1.2l-1.4,0.9l-1.4-2.1      L412.2,452z"></path>
			</g>
			<g>
				<path class="st1" d="M423.8,456.8c2.6-1.7,6.1-1,7.8,1.7c1.7,2.6,1,6.1-1.7,7.8c-2.6,1.7-6.1,1-7.8-1.7l0,0      C420.4,462,421.2,458.5,423.8,456.8L423.8,456.8z M428.3,463.8c1.4-0.9,1.8-2.6,0.9-4s-2.6-1.8-4-0.9s-1.8,2.6-0.9,4      C425.2,464.4,426.9,464.7,428.3,463.8L428.3,463.8z"></path>
			</g>
			<g>
				
					<rect x="393.9" y="473.3" transform="matrix(0.8392 -0.5439 0.5439 0.8392 -195.627 291.5936)" class="st1" width="2.7" height="6.5"></rect>
			</g>
			<g>
				
					<rect x="402.6" y="467.6" transform="matrix(0.8392 -0.5439 0.5439 0.8392 -191.1015 295.4434)" class="st1" width="2.7" height="6.5"></rect>
			</g>
			<g>
				<path class="st1" d="M385.4,453.9l2.3-1.5c2.4-1.6,5.6-0.9,7.2,1.5l2.2,3.3l-11,7.1l-2.2-3.3      C382.3,458.7,382.9,455.5,385.4,453.9z M393.3,456.5l-0.7-1c-0.8-1.2-2.5-1.6-3.7-0.8l-2.3,1.5c-1.2,0.8-1.6,2.5-0.8,3.7l0.7,1      L393.3,456.5z"></path>
			</g>
			<g>
				<path class="st1" d="M360.9,452.2l2.3-1.5l0.7,1c1.2,1.9,3.8,2.5,5.8,1.2l23.3-15.1c1.9-1.2,2.5-3.8,1.2-5.8l-0.7-1l2.3-1.5      l0.7,1c2,3.1,1.1,7.5-2,9.5l-23.1,15c-3.1,2-7.5,1.1-9.5-2L360.9,452.2z"></path>
			</g>
			<g>
				<path class="st1" d="M358.1,445.1c2.1-1.4,4.8-0.6,6.1,1.3c1.4,2.1,0.6,4.8-1.3,6.1c-2.1,1.4-4.8,0.6-6.1-1.3l0,0      C355.3,449.3,356,446.4,358.1,445.1z M361.5,450.3c0.9-0.6,1.1-1.7,0.6-2.6c-0.6-0.9-1.7-1.1-2.6-0.6c-0.9,0.6-1.1,1.7-0.6,2.6      l0,0C359.4,450.6,360.6,450.9,361.5,450.3z"></path>
			</g>
			<g>
				<path class="st1" d="M374.1,434.6c2.1-1.4,4.8-0.6,6.1,1.3c1.4,2.1,0.6,4.8-1.3,6.1c-2.1,1.4-4.8,0.6-6.1-1.3      S372.2,435.9,374.1,434.6z M377.5,439.9c0.9-0.6,1.1-1.7,0.6-2.6c-0.6-0.9-1.7-1.1-2.6-0.6c-0.9,0.6-1.1,1.7-0.6,2.6      C375.7,440.1,376.8,440.3,377.5,439.9z"></path>
			</g>
			<g>
				<path class="st1" d="M390.4,424.1c2.1-1.4,4.8-0.6,6.1,1.3c1.4,2.1,0.6,4.8-1.3,6.1c-2.1,1.4-4.8,0.6-6.1-1.3l0,0      C387.9,428.2,388.3,425.5,390.4,424.1z M393.8,429.4c0.9-0.6,1.1-1.7,0.6-2.6c-0.6-0.9-1.7-1.1-2.6-0.6      c-0.9,0.6-1.1,1.7-0.6,2.6l0,0C391.9,429.6,392.9,429.9,393.8,429.4z"></path>
			</g>
			<g>
				
					<rect x="381.3" y="439.6" transform="matrix(0.8392 -0.5439 0.5439 0.8392 -181.9007 280.1177)" class="st1" width="2.7" height="16"></rect>
			</g>
		</g>
	</g>
	<g id="Layer_1_4_">
		<g>
			<g>
				<g>
					<g>
						<path class="st1" d="M218.3,471.9l-2.3,2.7l-33.5-29.1l-4.7,5.4l28,24.3l-2.3,2.7L180.6,458l7.7,17l12,10.4l17.9,5.2l-7.4-6.4        l2.3-2.7l12.2,10.6l4.7-5.4l-6.6-5.7l2.3-2.7l9.3,8.1l-9,10.3l-26.2-7.7L187,503.7l-15.3-13.3l12.7-14.7L173,450.8l9-10.3        L218.3,471.9z M186.7,478.7l-0.3,0.4l9.9,8.6l0.3-0.4L186.7,478.7z M184,481.7l-7.2,8.3l9.9,8.6l7.2-8.3L184,481.7z"></path>
					</g>
					<g>
						<path class="st1" d="M185.4,475.9l-12.5,14.5l14.1,12.2l12.5-14.5l26.2,7.7l8.2-9.4l-8.1-7l-1.3,1.5l6.6,5.7l-5.7,6.6        l-12.2-10.6l-1.3,1.5l9.5,8.3l-21.5-6.3l-12.2-10.6l-9.3-20.4l25,21.7l1.3-1.5l-28-24.3l5.7-6.6l33.5,29.1l1.3-1.5l-35-30.4        L174,451L185.4,475.9z M186.6,477.6l11,9.6l-1.3,1.5l-11-9.6L186.6,477.6z M184,480.6l11,9.6l-8.3,9.5l-11-9.6L184,480.6z"></path>
					</g>
					<g>
						<path class="st1" d="M234.4,461.4l-0.5,0.6c-1,1.2-1.9,1.7-2.6,2.1l-0.3,0.1l-0.3,0.1c-0.5,0.1-1,0.4-1.6,1.1        c-0.6,0.7-0.7,1.3-1,1.8l-0.2,0.5c-0.3,0.8-0.5,1.6-1.7,2.9s-1.9,1.7-2.6,2.1l-0.3,0.1l-0.3,0.1c-0.5,0.1-1,0.4-1.6,1.1        l-0.5,0.6l-2.7-2.3l0.5-0.6c1-1.2,1.9-1.7,2.6-2.1l0.7-0.4c0.6-0.3,1.2-0.4,1.8-1.1c0.6-0.7,0.7-1.3,1-1.8l0.2-0.5        c0.3-0.8,0.5-1.6,1.7-2.9c1-1.2,1.9-1.7,2.6-2.1l0.1-0.1l0.3-0.1c0.5-0.1,1-0.4,1.6-1.1l0.5-0.6l2.7,2.3L234.4,461.4z"></path>
					</g>
					<g>
						<path class="st1" d="M219.7,471.9l1.5,1.3c0.8-0.9,1.4-1.1,2-1.4c0.7-0.4,1.6-0.7,2.7-2s1.3-2.2,1.6-3        c0.2-0.7,0.3-1.3,1.1-2.2c0.8-0.9,1.4-1.1,2-1.4c0.7-0.4,1.6-0.7,2.7-2l-1.5-1.3c-0.8,0.9-1.4,1.1-2,1.4        c-0.7,0.4-1.6,0.7-2.7,2c-1.1,1.3-1.3,2.2-1.6,3c-0.2,0.7-0.3,1.3-1.1,2.2s-1.4,1.1-2,1.4        C221.7,470.4,220.9,470.7,219.7,471.9z"></path>
					</g>
					<g>
						<path class="st1" d="M226.6,454.6l-0.5,0.6c-1,1.2-1.9,1.7-2.6,2.1l-0.3,0.1l-0.3,0.1c-0.5,0.1-1,0.4-1.6,1.1s-0.7,1.3-1,1.8        l-0.2,0.5c-0.3,0.8-0.5,1.6-1.7,2.9c-1.1,1.3-1.9,1.7-2.6,2.1l-0.3,0.1l-0.3,0.1c-0.5,0.1-1,0.4-1.6,1.1l-0.5,0.6l-2.7-2.3        l0.5-0.6c1.2-1.4,2.1-1.9,3.2-2.2c0.5-0.1,1.1-0.5,1.6-1.1s0.7-1.3,1-1.8l0.2-0.5c0.3-0.8,0.5-1.6,1.7-2.9        c1.1-1.3,1.9-1.7,2.6-2.1l0.3-0.1l0.3-0.1c0.5-0.1,1-0.4,1.6-1.1l0.5-0.6L226.6,454.6L226.6,454.6z"></path>
					</g>
					<g>
						<path class="st1" d="M211.9,465.1l1.5,1.3c0.8-0.9,1.4-1.1,2-1.4c0.7-0.4,1.6-0.7,2.7-2s1.3-2.2,1.6-3        c0.2-0.7,0.3-1.3,1.1-2.2c0.8-0.9,1.4-1.1,2-1.4c0.7-0.4,1.6-0.7,2.7-2l-1.5-1.3c-0.8,0.9-1.4,1.1-2,1.4        c-0.7,0.4-1.6,0.7-2.7,2s-1.3,2.2-1.6,3c-0.2,0.7-0.3,1.3-1.1,2.2s-1.4,1.1-2,1.4C213.7,463.4,213,463.8,211.9,465.1z"></path>
					</g>
					<g>
						<path class="st1" d="M218.6,447.7l-0.5,0.6c-1,1.2-1.9,1.7-2.6,2.1l-0.3,0.1l-0.3,0.1c-0.5,0.1-1,0.4-1.6,1.1s-0.7,1.3-1,1.8        l-0.2,0.5c-0.3,0.8-0.5,1.6-1.7,2.9c-1.1,1.3-1.9,1.7-2.6,2.1l-0.3,0.1l-0.3,0.1c-0.5,0.1-1,0.4-1.6,1.1l-0.5,0.6l-2.6-2.2        l0.5-0.6c1-1.2,1.9-1.7,2.6-2.1l0.3-0.1c0.6-0.3,1.2-0.4,1.8-1.1s0.7-1.3,1-1.8l0.2-0.5c0.3-0.8,0.5-1.6,1.7-2.9        c1-1.2,1.9-1.7,2.6-2.1l0.3-0.1l0.3-0.1c0.5-0.1,1-0.4,1.6-1.1l0.5-0.6l2.6,2.2L218.6,447.7z"></path>
					</g>
					<g>
						<path class="st1" d="M203.9,458.2l1.5,1.3c0.8-0.9,1.4-1.1,2-1.4c0.7-0.4,1.6-0.7,2.7-2s1.3-2.2,1.6-3        c0.2-0.7,0.3-1.3,1.1-2.2c0.8-0.9,1.4-1.1,2-1.4c0.7-0.4,1.6-0.7,2.7-2l-1.5-1.3c-0.8,0.9-1.4,1.1-2,1.4        c-0.7,0.4-1.6,0.7-2.7,2s-1.3,2.2-1.6,3c-0.2,0.7-0.3,1.3-1.1,2.2c-0.7,0.8-1.4,1.1-2,1.4C205.9,456.6,205,456.9,203.9,458.2z        "></path>
					</g>
					<g>
						<path class="st1" d="M210.7,440.8l-0.5,0.6c-1,1.2-1.9,1.7-2.6,2.1l-0.3,0.1l-0.3,0.1c-0.5,0.1-1,0.4-1.6,1.1s-0.7,1.3-1,1.8        l-0.2,0.5c-0.3,0.8-0.5,1.6-1.7,2.9c-1.1,1.3-1.9,1.7-2.6,2.1l-0.3,0.1l-0.3,0.1c-0.5,0.1-1,0.4-1.6,1.1l-0.5,0.6l-2.7-2.3        l0.5-0.6c1-1.2,1.9-1.7,2.6-2.1l0.3-0.1c0.6-0.3,1.2-0.4,1.8-1.1s0.7-1.3,1-1.8l0.2-0.5c0.3-0.8,0.5-1.6,1.7-2.9        c1-1.2,1.9-1.7,2.6-2.1l0.3-0.1l0.3-0.1c0.5-0.1,1-0.4,1.6-1.1l0.5-0.6l2.7,2.3L210.7,440.8z"></path>
					</g>
					<g>
						<path class="st1" d="M196,451.3l1.5,1.3c0.8-0.9,1.4-1.1,2-1.4c0.7-0.4,1.6-0.7,2.7-2s1.3-2.2,1.6-3c0.2-0.7,0.3-1.3,1.1-2.2        c0.8-0.9,1.4-1.1,2-1.4c0.7-0.4,1.6-0.7,2.7-2l-1.5-1.3c-0.8,0.9-1.4,1.1-2,1.4c-0.7,0.4-1.6,0.7-2.7,2        c-1.1,1.3-1.3,2.2-1.6,3c-0.2,0.7-0.3,1.3-1.1,2.2c-0.7,0.8-1.4,1.1-2,1.4C198,449.8,197.1,450.1,196,451.3z"></path>
					</g>
				</g>
			</g>
		</g>
	</g>
	<g id="Layer_1_5_">
		<g id="base_1_" class="st2">
			<rect x="65.4" y="265" transform="matrix(0.2548 -0.967 0.967 0.2548 -215.2933 320.6653)" class="st3" width="70" height="70"></rect>
		</g>
		<g id="Layer_3_1_">
			<g>
				<path class="st4" d="M126.4,306.1l7.3-27.8c-4.5-1.2-9,1.6-10.1,5.9l-6.6,25l2.6,0.7"></path>
				<path class="st5" d="M133.6,280.2c1.3,1.1,1.8,2.9,1.4,4.7c-0.4,1.6-1.8,2.9-3.4,3.5"></path>
				<path class="st5" d="M118.9,302.7L118.9,302.7c-3-0.8-3.5-3.4-2.7-6.3l2.1-8c0.8-3,2.5-5,5.5-4.2l0,0"></path>
				<circle class="st5" cx="123.9" cy="309.5" r="4.3"></circle>
				<path class="st4" d="M78.5,315.6l30.9-3.4c0.7-0.1,1.4-0.8,1.1-1.4l-0.9-9.2c-0.2-3-3.1-4.7-5.9-3.9l-24,7.4      c-1.7,0.6-2.9,2.1-3,4.1v5.4C77,315.3,77.7,315.7,78.5,315.6z"></path>
				<line class="st4" x1="93.2" y1="308.7" x2="106.2" y2="307"></line>
				<line class="st5" x1="110.2" y1="309" x2="117.6" y2="308"></line>
				<line class="st6" x1="109.7" y1="304.6" x2="118.9" y2="302.7"></line>
				<path class="st6" d="M67,321.8L67,321.8c-1.5-0.4-2.4-1.9-2-3.4l1.5-5.8c0.6-2.2,2.3-3.7,4.4-4.2l6-0.4v5.6l-4,0.4      c-0.8,0.2-1.4,0.9-1.6,1.6l-1.1,4.1C69.9,321.2,68.5,322.1,67,321.8z"></path>
			</g>
		</g>
	</g>
</g>
<g id="Layer_2_3_">
	<g>
		<g>
			<line class="st7" x1="300.5" y1="300" x2="560.3" y2="150"></line>
		</g>
		<g>
			<line class="st7" x1="300.5" y1="300" x2="560.3" y2="450"></line>
		</g>
		<g>
			<line class="st7" x1="300.5" y1="300" x2="300.5" y2="600"></line>
		</g>
		<g>
			<line class="st7" x1="300.5" y1="300" x2="40.7" y2="450"></line>
		</g>
		<g>
			<line class="st7" x1="300.5" y1="300" x2="40.7" y2="150"></line>
		</g>
		<g>
			<line class="st7" x1="300.5" y1="300" x2="300.5" y2="0"></line>
		</g>
	</g>
	<g>
		<circle class="st0" cx="300" cy="300" r="34.5"></circle>
		<path class="st1" d="M300,266c18.7,0,34,15.3,34,34s-15.3,34-34,34s-34-15.3-34-34S281.3,266,300,266 M300,265    c-19.3,0-35,15.7-35,35s15.7,35,35,35s35-15.7,35-35S319.3,265,300,265L300,265z"></path>
	</g>
	<g>
		<circle class="st1" cx="300" cy="300" r="28.8"></circle>
	</g>
</g>
<g id="Layer_4" class="st8">
	<g class="st9">
		<g>
			<line class="st10" x1="300" y1="300" x2="300" y2="0"></line>
		</g>
		<g>
			<line class="st10" x1="300" y1="300" x2="450" y2="40.2"></line>
		</g>
		<g>
			<line class="st10" x1="300" y1="300" x2="559.8" y2="150"></line>
		</g>
		<g>
			<line class="st10" x1="300" y1="300" x2="600" y2="300"></line>
		</g>
		<g>
			<line class="st10" x1="300" y1="300" x2="559.8" y2="450"></line>
		</g>
		<g>
			<line class="st10" x1="300" y1="300" x2="450" y2="559.8"></line>
		</g>
		<g>
			<line class="st10" x1="300" y1="300" x2="300" y2="600"></line>
		</g>
		<g>
			<line class="st10" x1="300" y1="300" x2="150" y2="559.8"></line>
		</g>
		<g>
			<line class="st10" x1="300" y1="300" x2="40.2" y2="450"></line>
		</g>
		<g>
			<line class="st10" x1="300" y1="300" x2="0" y2="300"></line>
		</g>
		<g>
			<line class="st10" x1="300" y1="300" x2="40.2" y2="150"></line>
		</g>
		<g>
			<line class="st10" x1="300" y1="300" x2="150" y2="40.2"></line>
		</g>
		<g>
			<line class="st10" x1="300" y1="300" x2="300" y2="0"></line>
		</g>
	</g>
</g>
</svg>