<svg xmlns="http://www.w3.org/2000/svg" xmlns:xlink="http://www.w3.org/1999/xlink" id="Layer_2" x="0px" y="0px" viewBox="0 0 195.5 164.66" style="enable-background:new 0 0 195.5 164.66;" xml:space="preserve">
<style type="text/css">
	.st0{fill:#C7CEDA;}
</style>
<g>
	<circle class="st0" cx="6" cy="159.94" r="2"></circle>
	<circle class="st0" cx="36.5" cy="159.94" r="2"></circle>
	<circle class="st0" cx="67" cy="159.94" r="2"></circle>
	<circle class="st0" cx="97.5" cy="159.94" r="2"></circle>
	<circle class="st0" cx="128" cy="159.94" r="2"></circle>
	<circle class="st0" cx="158.5" cy="159.94" r="2"></circle>
	<circle class="st0" cx="189" cy="159.94" r="2"></circle>
</g>
<g>
	<circle class="st0" cx="6" cy="129.34" r="2"></circle>
	<circle class="st0" cx="36.5" cy="129.34" r="2"></circle>
	<circle class="st0" cx="67" cy="129.34" r="2"></circle>
	<circle class="st0" cx="97.5" cy="129.34" r="2"></circle>
	<circle class="st0" cx="128" cy="129.34" r="2"></circle>
	<circle class="st0" cx="158.5" cy="129.34" r="2"></circle>
	<circle class="st0" cx="189" cy="129.34" r="2"></circle>
</g>
<g>
	<circle class="st0" cx="6" cy="98.74" r="2"></circle>
	<circle class="st0" cx="36.5" cy="98.74" r="2"></circle>
	<circle class="st0" cx="67" cy="98.74" r="2"></circle>
	<circle class="st0" cx="97.5" cy="98.74" r="2"></circle>
	<circle class="st0" cx="128" cy="98.74" r="2"></circle>
	<circle class="st0" cx="158.5" cy="98.74" r="2"></circle>
	<circle class="st0" cx="189" cy="98.74" r="2"></circle>
</g>
<g>
	<circle class="st0" cx="6" cy="68.14" r="2"></circle>
	<circle class="st0" cx="36.5" cy="68.14" r="2"></circle>
	<circle class="st0" cx="67" cy="68.14" r="2"></circle>
	<circle class="st0" cx="97.5" cy="68.14" r="2"></circle>
	<circle class="st0" cx="128" cy="68.14" r="2"></circle>
	<circle class="st0" cx="158.5" cy="68.14" r="2"></circle>
	<circle class="st0" cx="189" cy="68.14" r="2"></circle>
</g>
<g>
	<circle class="st0" cx="6" cy="37.54" r="2"></circle>
	<circle class="st0" cx="36.5" cy="37.54" r="2"></circle>
	<circle class="st0" cx="67" cy="37.54" r="2"></circle>
	<circle class="st0" cx="97.5" cy="37.54" r="2"></circle>
	<circle class="st0" cx="128" cy="37.54" r="2"></circle>
	<circle class="st0" cx="158.5" cy="37.54" r="2"></circle>
	<circle class="st0" cx="189" cy="37.54" r="2"></circle>
</g>
<g>
	<circle class="st0" cx="6" cy="6.94" r="2"></circle>
	<circle class="st0" cx="36.5" cy="6.94" r="2"></circle>
	<circle class="st0" cx="67" cy="6.94" r="2"></circle>
	<circle class="st0" cx="97.5" cy="6.94" r="2"></circle>
	<circle class="st0" cx="128" cy="6.94" r="2"></circle>
	<circle class="st0" cx="158.5" cy="6.94" r="2"></circle>
	<circle class="st0" cx="189" cy="6.94" r="2"></circle>
</g>
</svg>