<svg xmlns="http://www.w3.org/2000/svg" xmlns:xlink="http://www.w3.org/1999/xlink" id="Layer_2_1_" x="0px" y="0px" viewBox="0 0 195.5 164.7" style="enable-background:new 0 0 195.5 164.7;" xml:space="preserve">
<style type="text/css">
	.st0{fill:#008AFF;}
</style>
<g>
	<circle class="st0" cx="6" cy="159.9" r="2"></circle>
	<circle class="st0" cx="36.5" cy="159.9" r="2"></circle>
	<circle class="st0" cx="67" cy="159.9" r="2"></circle>
	<circle class="st0" cx="97.5" cy="159.9" r="2"></circle>
	<circle class="st0" cx="128" cy="159.9" r="2"></circle>
	<circle class="st0" cx="158.5" cy="159.9" r="2"></circle>
	<circle class="st0" cx="189" cy="159.9" r="2"></circle>
</g>
<g>
	<circle class="st0" cx="6" cy="129.3" r="2"></circle>
	<circle class="st0" cx="36.5" cy="129.3" r="2"></circle>
	<circle class="st0" cx="67" cy="129.3" r="2"></circle>
	<circle class="st0" cx="97.5" cy="129.3" r="2"></circle>
	<circle class="st0" cx="128" cy="129.3" r="2"></circle>
	<circle class="st0" cx="158.5" cy="129.3" r="2"></circle>
	<circle class="st0" cx="189" cy="129.3" r="2"></circle>
</g>
<g>
	<circle class="st0" cx="6" cy="98.7" r="2"></circle>
	<circle class="st0" cx="36.5" cy="98.7" r="2"></circle>
	<circle class="st0" cx="67" cy="98.7" r="2"></circle>
	<circle class="st0" cx="97.5" cy="98.7" r="2"></circle>
	<circle class="st0" cx="128" cy="98.7" r="2"></circle>
	<circle class="st0" cx="158.5" cy="98.7" r="2"></circle>
	<circle class="st0" cx="189" cy="98.7" r="2"></circle>
</g>
<g>
	<circle class="st0" cx="6" cy="68.1" r="2"></circle>
	<circle class="st0" cx="36.5" cy="68.1" r="2"></circle>
	<circle class="st0" cx="67" cy="68.1" r="2"></circle>
	<circle class="st0" cx="97.5" cy="68.1" r="2"></circle>
	<circle class="st0" cx="128" cy="68.1" r="2"></circle>
	<circle class="st0" cx="158.5" cy="68.1" r="2"></circle>
	<circle class="st0" cx="189" cy="68.1" r="2"></circle>
</g>
<g>
	<circle class="st0" cx="6" cy="37.5" r="2"></circle>
	<circle class="st0" cx="36.5" cy="37.5" r="2"></circle>
	<circle class="st0" cx="67" cy="37.5" r="2"></circle>
	<circle class="st0" cx="97.5" cy="37.5" r="2"></circle>
	<circle class="st0" cx="128" cy="37.5" r="2"></circle>
	<circle class="st0" cx="158.5" cy="37.5" r="2"></circle>
	<circle class="st0" cx="189" cy="37.5" r="2"></circle>
</g>
<g>
	<circle class="st0" cx="6" cy="6.9" r="2"></circle>
	<circle class="st0" cx="36.5" cy="6.9" r="2"></circle>
	<circle class="st0" cx="67" cy="6.9" r="2"></circle>
	<circle class="st0" cx="97.5" cy="6.9" r="2"></circle>
	<circle class="st0" cx="128" cy="6.9" r="2"></circle>
	<circle class="st0" cx="158.5" cy="6.9" r="2"></circle>
	<circle class="st0" cx="189" cy="6.9" r="2"></circle>
</g>
</svg>