<svg xmlns="http://www.w3.org/2000/svg" xmlns:xlink="http://www.w3.org/1999/xlink" x="0px" y="0px" viewBox="0 0 54 54" style="enable-background:new 0 0 54 54;" xml:space="preserve">
<style type="text/css">
	.st0{opacity:0;}
	.st1{fill:#FFFFFF;}
	.st2{fill:#0074D9;}
	.st3{fill:#ACCDFF;}
</style>
<g id="base">
	<g class="st0">
		<path class="st1" d="M53,1v52H1V1H53 M54,0H0v54h54V0L54,0z"></path>
	</g>
</g>
<g id="Layer_1">
	<path class="st2" d="M51.1,52H2.9C2.4,52,2,51.6,2,51.1V2.9C2,2.4,2.4,2,2.9,2h48.2C51.6,2,52,2.4,52,2.9v48.2   C52,51.6,51.6,52,51.1,52z M39.4,50.2h10.8V39.4L40.2,49.4c0,0,0,0,0,0c0,0,0,0,0,0L39.4,50.2z M25.5,50.2h11.3l1.4-1.4l-5.7-5.7   L25.5,50.2z M12.6,50.2H23l15.5-15.5l-5.2-5.2L16.9,46l0,0L12.6,50.2z M3.8,50.2h6.3l4.9-4.9l-5.5-5.5l-5.7,5.7V50.2z M33.9,41.9   l5.7,5.7l10.7-10.7V25.5l-9.8,9.8l0,0L33.9,41.9z M10.8,38.6l5.5,5.5l27.3-27.3L38,11.4L27.4,22c0,0,0,0,0,0L10.8,38.6z M3.8,31.2   v11.9L8.9,38c0,0,0,0,0,0c0,0,0,0,0,0l16.6-16.6l-5.8-5.8L3.8,31.2z M34.5,28.3l5.2,5.2l10.5-10.5c0,0,0,0,0,0V12.6L34.5,28.3z    M3.8,16.7v12l7-6.9l-6-6L3.8,16.7z M6.1,14.5l6,6L29,3.8H17.4L6.1,14.5z M20.9,14.3l5.8,5.8L43.1,3.8H31.6L20.9,14.3z M39.3,10.1   l5.5,5.5l5.5-5.5V3.8h-4.6L39.3,10.1z M3.8,3.8v10.4l0.3-0.3c0,0,0,0,0.1-0.1c0,0,0.1-0.1,0.1-0.1l10.6-10H3.8z"></path>
</g>
</svg>