<svg xmlns="http://www.w3.org/2000/svg" xmlns:xlink="http://www.w3.org/1999/xlink" x="0px" y="0px" viewBox="0 0 54 54" style="enable-background:new 0 0 54 54;" xml:space="preserve">
<style type="text/css">
	.st0{opacity:0;}
	.st1{fill:#FFFFFF;}
	.st2{fill:#0074D9;}
	.st3{fill:#ACCDFF;}
</style>
<g id="base">
	<g class="st0">
		<path class="st1" d="M53,1v52H1V1H53 M54,0H0v54h54V0L54,0z"></path>
	</g>
</g>
<g id="Layer_1">
	<g>
		<path class="st2" d="M51.2,8.7H25.3v1.7h3.8l-2.7,2.7l1.2,1.2l3.9-3.9H35l-5.2,5.2l1.2,1.2l6.4-6.4h3.5l-5.2,5.2l1.2,1.2l6.4-6.4    h3.5l-3.6,3.6l1.2,1.2l4.8-4.8h1.3v2.2L37.2,25.6l1.2,1.2l11.9-11.9v3.5L37.2,31.4l1.2,1.2l11.9-11.9v3.5L36.4,38.1l1.2,1.2    l12.7-12.7V30l-17,17h-3.5l6.1-6.1l-1.2-1.2L27.5,47H24l1.1-1.1l-1.2-1.2L21.7,47H11.2C8.9,47,7,45.1,7,42.8    c0-2.3,1.9-4.2,4.2-4.2h3.3c0.5,0,0.8,0.4,0.8,0.8s-0.4,0.8-0.8,0.8h-4.2c-0.5,0-0.8,0.4-0.8,0.8v3.3c0,0.5,0.4,0.8,0.8,0.8h4.2    c3.2,0,5.8-2.6,5.8-5.8V7.8c0-3.2-2.6-5.8-5.8-5.8h-3.3C6.1,2,2,6.1,2,11.2v31.7c0,5.1,4.1,9.2,9.2,9.2h40c0.5,0,0.8-0.4,0.8-0.8    V9.5C52,9,51.6,8.7,51.2,8.7L51.2,8.7z M50.3,47h-3l3-3V47z M50.3,32.3v3.5l-5.6,5.6l1.2,1.2l4.4-4.4v3.5L45,47h-3.5l2.7-2.7    l-1.2-1.2L39.2,47h-3.5L50.3,32.3z M3.7,11.2C3.7,7,7,3.7,11.2,3.7h3.3c2.3,0,4.2,1.9,4.2,4.2v1.8c-1.1-1.1-2.6-1.8-4.2-1.8H12    v1.7h2.5c2.3,0,4.2,1.9,4.2,4.2v0.9c-1.1-1.1-2.6-1.8-4.2-1.8H12v1.7h2.5c2.3,0,4.2,1.9,4.2,4.2v0.9c-1.1-1.1-2.6-1.8-4.2-1.8H12    v1.7h2.5c2.3,0,4.2,1.9,4.2,4.2v0.9c-1.1-1.1-2.6-1.8-4.2-1.8H12v1.7h2.5c2.3,0,4.2,1.9,4.2,4.2v0.9c-1.1-1.1-2.6-1.8-4.2-1.8H12    v1.7h2.5c2.3,0,4.2,1.9,4.2,4.2v1.8c-1.1-1.1-2.6-1.8-4.2-1.8h-3.3c-3,0-5.8,1.5-7.5,3.9V11.2z M50.3,50.3H11.2    c-4.1,0-7.5-3.4-7.5-7.5s3.4-7.5,7.5-7.5h3.3c2.3,0,4.2,1.9,4.2,4.2s-1.9,4.2-4.2,4.2h-3.3V42h3.3c1.4,0,2.5-1.1,2.5-2.5    S15.9,37,14.5,37h-3.3c-3.2,0-5.8,2.6-5.8,5.8s2.6,5.8,5.8,5.8h39.2V50.3z"></path>
		<path class="st2" d="M22,8.7h1.7v1.7H22V8.7z"></path>
		<path class="st2" d="M8.7,7.8h1.7v1.7H8.7V7.8z"></path>
		<path class="st2" d="M8.7,12.8h1.7v1.7H8.7V12.8z"></path>
		<path class="st2" d="M8.7,17.8h1.7v1.7H8.7V17.8z"></path>
		<path class="st2" d="M8.7,22.8h1.7v1.7H8.7V22.8z"></path>
		<path class="st2" d="M8.7,27.8h1.7v1.7H8.7V27.8z"></path>
		<path class="st2" d="M26.4,24.7l7.5-7.5l1.2,1.2l-7.5,7.5L26.4,24.7z"></path>
		<path class="st2" d="M22.2,28.9l2.5-2.5l1.2,1.2l-2.5,2.5L22.2,28.9z"></path>
		<path class="st2" d="M22.2,23.1l5.8-5.8l1.2,1.2l-5.8,5.8L22.2,23.1z"></path>
		<path class="st2" d="M22.2,17.2l2.5-2.5l1.2,1.2l-2.5,2.5L22.2,17.2z"></path>
		<path class="st2" d="M23.1,33.9l18.3-18.3l1.2,1.2L24.3,35.1L23.1,33.9z"></path>
		<path class="st2" d="M25.6,37.2l10-10l1.2,1.2l-10,10L25.6,37.2z"></path>
		<path class="st2" d="M22.2,40.6l1.7-1.7l1.2,1.2l-1.7,1.7L22.2,40.6z"></path>
		<path class="st2" d="M25.6,43.1l10-10l1.2,1.2l-10,10L25.6,43.1z"></path>
	</g>
</g>
</svg>