<svg xmlns="http://www.w3.org/2000/svg" xmlns:xlink="http://www.w3.org/1999/xlink" id="Layer_1" x="0px" y="0px" viewBox="0 0 54 54" style="enable-background:new 0 0 54 54;" xml:space="preserve">
<style type="text/css">
	.st0{fill:#ACCDFF;}
	.st1{display:none;}
	.st2{display:inline;}
	.st3{fill:none;stroke:#FFFFFF;stroke-width:2;stroke-miterlimit:10;}
</style>
<g id="Layer_2_1_">
	<g>
		<g>
			<path class="st0" d="M16.5,8L16.5,8L16.5,8 M16.5,8l3.9,9.1l-5,4.1c-0.7,0.6-0.9,1.6-0.5,2.4c3.2,6.8,8.7,12.3,15.5,15.5     c0.3,0.1,0.6,0.2,0.9,0.2c0.6,0,1.2-0.3,1.6-0.7l4-5l9.2,3.9L44.1,46C24.2,46,8,29.8,8,10L16.5,8 M16.5,6c-0.1,0-0.3,0-0.4,0.1     L7.5,8C6.7,8.2,6,9,6,9.9l0,0C6,31,23,48,44.1,48l0,0c0.9,0,1.7-0.7,1.9-1.5l2-8.5c0-0.1,0-0.3,0-0.4c0-0.8-0.5-1.5-1.2-1.8     l-9.2-3.9c-0.2-0.1-0.5-0.2-0.8-0.2c-0.6,0-1.2,0.3-1.5,0.7l-4.1,5c-6.4-3-11.5-8.1-14.5-14.5l5-4.1c0.4-0.4,0.7-0.9,0.7-1.5     c0-0.3-0.1-0.5-0.2-0.8l-3.9-9.2C18,6.5,17.3,6,16.5,6L16.5,6z"></path>
		</g>
	</g>
</g>
<g id="Layer_3" class="st1">
	<g class="st2">
		<path class="st3" d="M46,41H8c-1.1,0-2-0.9-2-2V15c0-1.1,0.9-2,2-2h38c1.1,0,2,0.9,2,2v24C48,40.1,47.1,41,46,41z"></path>
		<path class="st3" d="M6.8,13.4l19.1,12.8c0.7,0.5,1.5,0.5,2.2,0L48,13.4"></path>
	</g>
</g>
</svg>