<svg xmlns="http://www.w3.org/2000/svg" xmlns:xlink="http://www.w3.org/1999/xlink" id="Layer_1" x="0px" y="0px" viewBox="0 0 192.7 37" style="enable-background:new 0 0 192.7 37;" xml:space="preserve">
<style type="text/css">
	.st0{fill:#FFFFFF;}
	.st1{opacity:0.5;fill:#FFFFFF;enable-background:new    ;}
</style>
<g>
	<polygon class="st0" points="1.9,27.1 1.9,1.3 27.4,1.3 27.4,19.3 8,19.3  "></polygon>
	<polygon class="st1" points="8.5,23.1 8.5,28.8 29,28.8 35.6,35.3 35.6,8.1 30.6,8.1 30.6,23.1  "></polygon>
	<g>
		<path class="st0" d="M43.7,9.4c0.5,0,0.9-0.1,1.3-0.2c0.4-0.1,0.7-0.4,1.1-0.8L47,9.3c-0.9,1-2,1.5-3.2,1.5    c-1.3,0-2.3-0.4-3.2-1.2c-0.8-0.8-1.3-1.8-1.3-3.1s0.4-2.3,1.3-3.1c0.9-0.8,1.9-1.2,3.2-1.2c1.3,0,2.4,0.5,3.3,1.4l-0.9,1    c-0.4-0.4-0.8-0.7-1.1-0.8c-0.4-0.2-0.8-0.2-1.3-0.2c-0.8,0-1.6,0.3-2.1,0.8c-0.6,0.5-0.9,1.2-0.9,2.1s0.3,1.6,0.9,2.1    C42.2,9.1,42.9,9.4,43.7,9.4z"></path>
		<path class="st0" d="M55.7,9.5c-0.8,0.8-1.9,1.2-3.1,1.2c-1.2,0-2.3-0.4-3.1-1.2c-0.8-0.8-1.3-1.9-1.3-3.1s0.4-2.3,1.3-3.1    c0.8-0.8,1.9-1.2,3.1-1.2c1.2,0,2.3,0.4,3.1,1.2C56.6,4.1,57,5.2,57,6.4S56.6,8.7,55.7,9.5z M54.7,4.3c-0.6-0.6-1.3-0.9-2.1-0.9    c-0.8,0-1.5,0.3-2.1,0.9c-0.6,0.6-0.9,1.3-0.9,2.2s0.3,1.6,0.9,2.2c0.6,0.6,1.3,0.9,2.1,0.9c0.8,0,1.5-0.3,2.1-0.9    c0.6-0.6,0.9-1.3,0.9-2.2S55.3,4.8,54.7,4.3z"></path>
		<path class="st0" d="M65.1,2.3h1.4v8.4H65l-4.8-6.1v6.1h-1.4V2.3h1.4l4.9,6.3V2.3z"></path>
		<path class="st0" d="M72,3.6v7.1h-1.4V3.6H68V2.3h6.5v1.3H72z"></path>
		<path class="st0" d="M77.3,8.8l-0.8,1.9H75l3.7-8.4h1.5l3.7,8.4h-1.5l-0.8-1.9H77.3z M80.9,7.4L79.4,4l-1.5,3.5h3V7.4z"></path>
		<path class="st0" d="M88.8,9.4c0.5,0,0.9-0.1,1.3-0.2c0.4-0.1,0.7-0.4,1.1-0.8l0.9,0.9c-0.9,1-2,1.5-3.2,1.5    c-1.3,0-2.3-0.4-3.2-1.2c-0.8-0.8-1.3-1.8-1.3-3.1s0.4-2.3,1.3-3.1c0.9-0.8,1.9-1.2,3.2-1.2c1.3,0,2.4,0.5,3.3,1.4l-0.9,1    c-0.4-0.4-0.8-0.7-1.1-0.8c-0.4-0.2-0.8-0.2-1.3-0.2c-0.8,0-1.6,0.3-2.1,0.8c-0.6,0.5-0.9,1.2-0.9,2.1s0.3,1.6,0.9,2.1    C87.3,9.1,88,9.4,88.8,9.4z"></path>
		<path class="st0" d="M97,3.6v7.1h-1.4V3.6H93V2.3h6.5v1.3H97z"></path>
		<path class="st0" d="M105.8,3.6v2.3h3.7v1.3h-3.7v3.5h-1.4V2.3h5.6v1.3H105.8z"></path>
		<path class="st0" d="M118.6,9.5c-0.8,0.8-1.9,1.2-3.1,1.2s-2.3-0.4-3.1-1.2c-0.8-0.8-1.3-1.9-1.3-3.1s0.4-2.3,1.3-3.1    c0.8-0.8,1.9-1.2,3.1-1.2s2.3,0.4,3.1,1.2c0.8,0.8,1.3,1.9,1.3,3.1S119.5,8.7,118.6,9.5z M117.6,4.3c-0.6-0.6-1.3-0.9-2.1-0.9    c-0.8,0-1.5,0.3-2.1,0.9c-0.6,0.6-0.9,1.3-0.9,2.2s0.3,1.6,0.9,2.2c0.6,0.6,1.3,0.9,2.1,0.9c0.8,0,1.5-0.3,2.1-0.9    c0.6-0.6,0.9-1.3,0.9-2.2S118.1,4.8,117.6,4.3z"></path>
		<path class="st0" d="M128.4,5c0,1.4-0.6,2.3-1.8,2.6l2.2,3H127l-2-2.8h-1.9v2.8h-1.4V2.3h3.1c1.3,0,2.2,0.2,2.7,0.6    C128.1,3.4,128.4,4,128.4,5z M126.5,6.2c0.3-0.2,0.4-0.6,0.4-1.2s-0.1-0.9-0.4-1.1c-0.3-0.2-0.8-0.3-1.6-0.3h-1.8v3h1.8    C125.7,6.6,126.2,6.4,126.5,6.2z"></path>
		<path class="st0" d="M136.2,3.4c-0.4,0-0.8,0.1-1,0.3c-0.3,0.2-0.4,0.4-0.4,0.8c0,0.3,0.1,0.6,0.4,0.8c0.3,0.2,0.8,0.4,1.7,0.6    c0.9,0.2,1.5,0.5,1.9,0.9c0.4,0.4,0.7,0.9,0.7,1.7s-0.3,1.3-0.8,1.8c-0.6,0.5-1.3,0.7-2.2,0.7c-1.3,0-2.5-0.5-3.5-1.4l0.9-1.1    c0.8,0.7,1.7,1.1,2.6,1.1c0.5,0,0.8-0.1,1.1-0.3s0.4-0.5,0.4-0.8c0-0.3-0.1-0.6-0.4-0.8c-0.3-0.2-0.7-0.3-1.3-0.5    s-1.1-0.3-1.4-0.4c-0.3-0.1-0.6-0.3-0.9-0.5c-0.5-0.4-0.7-1-0.7-1.7s0.3-1.4,0.8-1.8c0.5-0.4,1.3-0.6,2.1-0.6    c0.5,0,1.1,0.1,1.6,0.3c0.5,0.2,1,0.4,1.4,0.7l-0.8,1.1c-0.2-0.2-0.6-0.4-1-0.6C137.1,3.4,136.6,3.4,136.2,3.4z"></path>
		<path class="st0" d="M143.1,8.7c0.4,0.4,0.9,0.7,1.6,0.7s1.2-0.2,1.6-0.7c0.4-0.5,0.6-1.1,0.6-1.8V2.3h1.4V7c0,1.2-0.3,2.1-1,2.8    c-0.7,0.7-1.5,1-2.6,1s-1.9-0.3-2.6-1c-0.7-0.7-1-1.6-1-2.8V2.3h1.4v4.6C142.6,7.7,142.8,8.3,143.1,8.7z"></path>
		<path class="st0" d="M156.1,3c0.6,0.5,0.9,1.2,0.9,2.3s-0.3,1.8-0.9,2.2c-0.6,0.5-1.5,0.7-2.7,0.7h-1.5v2.5h-1.4V2.3h2.9    C154.6,2.3,155.6,2.5,156.1,3z M155.1,6.5c0.3-0.3,0.4-0.7,0.4-1.3c0-0.6-0.2-1-0.5-1.2c-0.4-0.2-0.9-0.4-1.7-0.4h-1.4V7h1.6    C154.3,6.9,154.9,6.8,155.1,6.5z"></path>
		<path class="st0" d="M164.3,3c0.6,0.5,0.9,1.2,0.9,2.3s-0.3,1.8-0.9,2.2c-0.6,0.5-1.5,0.7-2.7,0.7h-1.5v2.5h-1.4V2.3h2.9    C162.8,2.3,163.8,2.5,164.3,3z M163.3,6.5c0.3-0.3,0.4-0.7,0.4-1.3c0-0.6-0.2-1-0.5-1.2c-0.4-0.2-0.9-0.4-1.7-0.4h-1.4V7h1.6    C162.5,6.9,163.1,6.8,163.3,6.5z"></path>
		<path class="st0" d="M173.9,9.5c-0.8,0.8-1.9,1.2-3.1,1.2s-2.3-0.4-3.1-1.2c-0.8-0.8-1.3-1.9-1.3-3.1s0.4-2.3,1.3-3.1    c0.8-0.8,1.9-1.2,3.1-1.2s2.3,0.4,3.1,1.2s1.3,1.9,1.3,3.1S174.8,8.7,173.9,9.5z M172.9,4.3c-0.6-0.6-1.3-0.9-2.1-0.9    s-1.5,0.3-2.1,0.9c-0.6,0.6-0.9,1.3-0.9,2.2s0.3,1.6,0.9,2.2c0.6,0.6,1.3,0.9,2.1,0.9s1.5-0.3,2.1-0.9s0.9-1.3,0.9-2.2    S173.4,4.8,172.9,4.3z"></path>
		<path class="st0" d="M183.7,5c0,1.4-0.6,2.3-1.8,2.6l2.2,3h-1.8l-2-2.8h-1.9v2.8H177V2.3h3.1c1.3,0,2.2,0.2,2.7,0.6    C183.4,3.4,183.7,4,183.7,5z M181.8,6.2c0.3-0.2,0.4-0.6,0.4-1.2s-0.1-0.9-0.4-1.1c-0.3-0.2-0.8-0.3-1.6-0.3h-1.8v3h1.8    C180.9,6.6,181.5,6.4,181.8,6.2z"></path>
		<path class="st0" d="M188.9,3.6v7.1h-1.4V3.6H185V2.3h6.5v1.3H188.9z"></path>
	</g>
	<g>
		<path class="st0" d="M48.1,24.1h-3.2v3.1h-2.4v-3.1h-3.2v-2.2h3.2v-3.1h2.4v3.1h3.2V24.1z"></path>
		<path class="st0" d="M58.6,17.9c1,1.1,1.5,2.7,1.5,4.7c0,1.5-0.3,2.7-0.8,3.7c-0.5,1-1.3,1.8-2.3,2.4c-1,0.5-2.1,0.8-3.4,0.8    c-0.7,0-1.3-0.1-2-0.2C51,29.2,50.5,29,50,28.7l1.1-2.2c0.6,0.4,1.4,0.6,2.4,0.6c1.1,0,2-0.3,2.6-1c0.6-0.6,1-1.6,1-2.8    c-0.8,0.8-1.8,1.2-3.2,1.2c-0.8,0-1.6-0.2-2.2-0.5c-0.7-0.3-1.2-0.8-1.6-1.4c-0.4-0.6-0.6-1.3-0.6-2.1c0-0.9,0.2-1.6,0.6-2.3    c0.4-0.6,1-1.1,1.8-1.5c0.7-0.3,1.6-0.5,2.5-0.5C56.2,16.3,57.6,16.8,58.6,17.9z M56.2,21.8c0.4-0.4,0.6-0.8,0.6-1.4    c0-0.6-0.2-1-0.6-1.4c-0.4-0.4-0.9-0.5-1.6-0.5c-0.6,0-1.2,0.2-1.6,0.5c-0.4,0.3-0.6,0.8-0.6,1.4c0,0.6,0.2,1.1,0.6,1.4    c0.4,0.3,0.9,0.5,1.6,0.5C55.3,22.4,55.8,22.2,56.2,21.8z"></path>
		<path class="st0" d="M66.5,16.5v12.9h-3V18.9h-2.6v-2.4H66.5z"></path>
		<path class="st0" d="M84.2,23.9c0.3,0.5,0.5,1.1,0.5,1.8c0,0.8-0.2,1.5-0.7,2.1c-0.5,0.6-1.1,1.1-1.9,1.4    c-0.8,0.3-1.8,0.5-2.8,0.5c-1.1,0-2-0.2-2.8-0.5c-0.8-0.3-1.4-0.8-1.9-1.4c-0.4-0.6-0.7-1.3-0.7-2.1c0-0.7,0.2-1.3,0.5-1.8    c0.3-0.5,0.8-0.9,1.4-1.2c-0.5-0.3-0.8-0.7-1.1-1.1c-0.3-0.4-0.4-1-0.4-1.5c0-0.7,0.2-1.4,0.6-1.9c0.4-0.6,1-1,1.7-1.3    c0.7-0.3,1.6-0.5,2.6-0.5c1,0,1.8,0.2,2.6,0.5c0.8,0.3,1.3,0.7,1.8,1.3c0.4,0.6,0.6,1.2,0.6,1.9c0,0.6-0.1,1.1-0.4,1.5    c-0.3,0.4-0.6,0.8-1.1,1.1C83.3,22.9,83.8,23.4,84.2,23.9z M81,26.9c0.4-0.3,0.7-0.8,0.7-1.4c0-0.6-0.2-1-0.7-1.3    c-0.4-0.3-1-0.5-1.8-0.5c-0.7,0-1.3,0.2-1.7,0.5c-0.4,0.3-0.6,0.8-0.6,1.3c0,0.6,0.2,1,0.6,1.4c0.4,0.3,1,0.5,1.7,0.5    C80,27.4,80.6,27.2,81,26.9z M77.8,18.9c-0.4,0.3-0.5,0.7-0.5,1.2c0,0.5,0.2,0.9,0.5,1.2c0.4,0.3,0.8,0.4,1.5,0.4    c0.6,0,1.1-0.1,1.5-0.4c0.4-0.3,0.6-0.7,0.6-1.2c0-0.5-0.2-0.9-0.6-1.2c-0.4-0.3-0.9-0.4-1.5-0.4C78.6,18.5,78.1,18.6,77.8,18.9z"></path>
		<path class="st0" d="M95.6,27v2.4h-9.7v-1.9l5-4.7c0.5-0.5,0.9-0.9,1.1-1.3c0.2-0.4,0.3-0.7,0.3-1.1c0-0.5-0.2-0.9-0.5-1.2    c-0.3-0.3-0.9-0.4-1.5-0.4c-0.6,0-1.1,0.1-1.5,0.3c-0.5,0.2-0.8,0.5-1.1,1l-2.2-1.4c0.5-0.7,1.2-1.3,2.1-1.8    c0.9-0.4,1.9-0.6,3-0.6c1,0,1.8,0.2,2.5,0.5c0.7,0.3,1.3,0.8,1.7,1.3c0.4,0.6,0.6,1.2,0.6,2c0,0.7-0.1,1.4-0.4,2    c-0.3,0.6-0.9,1.3-1.7,2.1l-3,2.8H95.6z"></path>
		<path class="st0" d="M107.1,23.9c0.3,0.5,0.5,1.1,0.5,1.8c0,0.8-0.2,1.5-0.7,2.1c-0.5,0.6-1.1,1.1-1.9,1.4    c-0.8,0.3-1.8,0.5-2.8,0.5c-1.1,0-2-0.2-2.8-0.5c-0.8-0.3-1.4-0.8-1.9-1.4c-0.4-0.6-0.7-1.3-0.7-2.1c0-0.7,0.2-1.3,0.5-1.8    c0.3-0.5,0.8-0.9,1.4-1.2c-0.5-0.3-0.8-0.7-1.1-1.1c-0.3-0.4-0.4-1-0.4-1.5c0-0.7,0.2-1.4,0.6-1.9c0.4-0.6,1-1,1.7-1.3    c0.7-0.3,1.6-0.5,2.6-0.5c1,0,1.8,0.2,2.6,0.5c0.8,0.3,1.3,0.7,1.8,1.3c0.4,0.6,0.6,1.2,0.6,1.9c0,0.6-0.1,1.1-0.4,1.5    c-0.3,0.4-0.6,0.8-1.1,1.1C106.3,22.9,106.8,23.4,107.1,23.9z M104,26.9c0.4-0.3,0.7-0.8,0.7-1.4c0-0.6-0.2-1-0.7-1.3    c-0.4-0.3-1-0.5-1.8-0.5c-0.7,0-1.3,0.2-1.7,0.5c-0.4,0.3-0.6,0.8-0.6,1.3c0,0.6,0.2,1,0.6,1.4c0.4,0.3,1,0.5,1.7,0.5    C102.9,27.4,103.5,27.2,104,26.9z M100.8,18.9c-0.4,0.3-0.5,0.7-0.5,1.2c0,0.5,0.2,0.9,0.5,1.2c0.4,0.3,0.8,0.4,1.5,0.4    c0.6,0,1.1-0.1,1.5-0.4c0.4-0.3,0.6-0.7,0.6-1.2c0-0.5-0.2-0.9-0.6-1.2c-0.4-0.3-0.9-0.4-1.5-0.4    C101.6,18.5,101.1,18.6,100.8,18.9z"></path>
		<path class="st0" d="M119.1,16.5v1.9l-4.8,10.9h-3.2l4.6-10.4h-4.3V21h-2.6v-4.5H119.1z"></path>
		<path class="st0" d="M130.5,16.5v1.9l-4.8,10.9h-3.2l4.6-10.4h-4.3V21h-2.6v-4.5H130.5z"></path>
		<path class="st0" d="M146.6,27v2.4h-9.7v-1.9l5-4.7c0.5-0.5,0.9-0.9,1.1-1.3c0.2-0.4,0.3-0.7,0.3-1.1c0-0.5-0.2-0.9-0.5-1.2    s-0.9-0.4-1.5-0.4c-0.6,0-1.1,0.1-1.5,0.3c-0.5,0.2-0.8,0.5-1.1,1l-2.2-1.4c0.5-0.7,1.2-1.3,2.1-1.8c0.9-0.4,1.9-0.6,3-0.6    c1,0,1.8,0.2,2.5,0.5c0.7,0.3,1.3,0.8,1.7,1.3c0.4,0.6,0.6,1.2,0.6,2c0,0.7-0.1,1.4-0.4,2c-0.3,0.6-0.9,1.3-1.7,2.1l-3,2.8H146.6z    "></path>
		<path class="st0" d="M157.4,27v2.4h-9.7v-1.9l5-4.7c0.5-0.5,0.9-0.9,1.1-1.3c0.2-0.4,0.3-0.7,0.3-1.1c0-0.5-0.2-0.9-0.5-1.2    s-0.9-0.4-1.5-0.4c-0.6,0-1.1,0.1-1.5,0.3c-0.5,0.2-0.8,0.5-1.1,1l-2.2-1.4c0.5-0.7,1.2-1.3,2.1-1.8c0.9-0.4,1.9-0.6,3-0.6    c1,0,1.8,0.2,2.5,0.5c0.7,0.3,1.3,0.8,1.7,1.3c0.4,0.6,0.6,1.2,0.6,2c0,0.7-0.1,1.4-0.4,2c-0.3,0.6-0.9,1.3-1.7,2.1l-3,2.8H157.4z    "></path>
		<path class="st0" d="M168.7,16.5v1.9l-4.8,10.9h-3.2l4.6-10.4H161V21h-2.6v-4.5H168.7z"></path>
		<path class="st0" d="M180.1,16.5v1.9l-4.8,10.9h-3.2l4.6-10.4h-4.3V21h-2.6v-4.5H180.1z"></path>
		<path class="st0" d="M191.5,16.5v1.9l-4.8,10.9h-3.2l4.6-10.4h-4.3V21h-2.6v-4.5H191.5z"></path>
	</g>
</g>
</svg>